SplineFontDB: 3.0
FontName: mnicmp-Light
FullName: mnicmp Light
FamilyName: mnicmp
Weight: Light
Copyright: Copyright (c) 2017, Stewart C. Russell - @scruss
UComments: "2017-2-4: Created with FontForge (http://fontforge.org)"
Version: 001.000
ItalicAngle: 0
UnderlinePosition: -100
UnderlineWidth: 50
Ascent: 800
Descent: 200
InvalidEm: 0
LayerCount: 2
Layer: 0 0 "Back" 1
Layer: 1 0 "Fore" 0
XUID: [1021 892 1475881961 4100294]
StyleMap: 0x0000
FSType: 0
OS2Version: 0
OS2_WeightWidthSlopeOnly: 0
OS2_UseTypoMetrics: 1
CreationTime: 1486248366
ModificationTime: 1486414713
PfmFamily: 49
TTFWeight: 300
TTFWidth: 5
LineGap: 90
VLineGap: 0
OS2TypoAscent: 0
OS2TypoAOffset: 1
OS2TypoDescent: 0
OS2TypoDOffset: 1
OS2TypoLinegap: 90
OS2WinAscent: 0
OS2WinAOffset: 1
OS2WinDescent: 0
OS2WinDOffset: 1
HheadAscent: 0
HheadAOffset: 1
HheadDescent: 0
HheadDOffset: 1
OS2Vendor: 'PfEd'
MarkAttachClasses: 1
DEI: 91125

StartChar: glyph0
Encoding: 8593 8593 0
Width: 600
VWidth: 0
UnlinkRmOvrlpSave: 1
Flags: W
HStem: 220 60<251.106 308.894> 303 60<251.106 308.894> 387 60<251.106 308.894> 470 60<251.106 308.894> 553 60<91.1064 148.894 251.106 308.894 411.106 468.894> 637 60<144.106 201.894 251.106 308.894 358.106 415.894> 720 60<251.106 308.894>
VStem: 90 60<554.106 611.894> 143 60<638.106 695.894> 250 60<221.106 278.894 304.106 361.894 388.106 445.894 471.106 528.894 554.106 611.894 638.106 695.894 721.106 778.894> 357 60<638.106 695.894> 410 60<554.106 611.894>
LayerCount: 2
Back
Fore
SplineSet
310 250 m 0xfe40
 310 233 297 220 280 220 c 0
 263 220 250 233 250 250 c 0
 250 267 263 280 280 280 c 0
 297 280 310 267 310 250 c 0xfe40
310 333 m 0
 310 316 297 303 280 303 c 0
 263 303 250 316 250 333 c 0
 250 350 263 363 280 363 c 0
 297 363 310 350 310 333 c 0
310 417 m 0
 310 400 297 387 280 387 c 0
 263 387 250 400 250 417 c 0
 250 434 263 447 280 447 c 0
 297 447 310 434 310 417 c 0
310 500 m 0
 310 483 297 470 280 470 c 0
 263 470 250 483 250 500 c 0
 250 517 263 530 280 530 c 0
 297 530 310 517 310 500 c 0
470 583 m 0xfe50
 470 566 457 553 440 553 c 0
 423 553 410 566 410 583 c 0
 410 600 423 613 440 613 c 0
 457 613 470 600 470 583 c 0xfe50
310 583 m 0
 310 566 297 553 280 553 c 0
 263 553 250 566 250 583 c 0
 250 600 263 613 280 613 c 0
 297 613 310 600 310 583 c 0
150 583 m 0xff40
 150 566 137 553 120 553 c 0
 103 553 90 566 90 583 c 0
 90 600 103 613 120 613 c 0
 137 613 150 600 150 583 c 0xff40
417 667 m 0xfe60
 417 650 404 637 387 637 c 0
 370 637 357 650 357 667 c 0
 357 684 370 697 387 697 c 0
 404 697 417 684 417 667 c 0xfe60
310 667 m 0
 310 650 297 637 280 637 c 0
 263 637 250 650 250 667 c 0
 250 684 263 697 280 697 c 0
 297 697 310 684 310 667 c 0
203 667 m 0xfec0
 203 650 190 637 173 637 c 0
 156 637 143 650 143 667 c 0
 143 684 156 697 173 697 c 0
 190 697 203 684 203 667 c 0xfec0
310 750 m 0
 310 733 297 720 280 720 c 0
 263 720 250 733 250 750 c 0
 250 767 263 780 280 780 c 0
 297 780 310 767 310 750 c 0
EndSplineSet
EndChar

StartChar: glyph1
Encoding: 8216 8216 1
Width: 600
VWidth: 0
UnlinkRmOvrlpSave: 1
Flags: W
HStem: 553 60<145.106 202.894> 637 60<91.1064 148.894> 720 60<91.1064 148.894>
VStem: 90 60<638.106 695.894 721.106 778.894> 144 60<554.106 611.894>
LayerCount: 2
Back
Fore
SplineSet
204 583 m 0xe8
 204 566 191 553 174 553 c 0
 157 553 144 566 144 583 c 0
 144 600 157 613 174 613 c 0
 191 613 204 600 204 583 c 0xe8
150 667 m 0xf0
 150 650 137 637 120 637 c 0
 103 637 90 650 90 667 c 0
 90 684 103 697 120 697 c 0
 137 697 150 684 150 667 c 0xf0
150 750 m 0
 150 733 137 720 120 720 c 0
 103 720 90 733 90 750 c 0
 90 767 103 780 120 780 c 0
 137 780 150 767 150 750 c 0
EndSplineSet
EndChar

StartChar: glyph2
Encoding: 8220 8220 2
Width: 600
VWidth: 0
UnlinkRmOvrlpSave: 1
Flags: W
HStem: 553 60<144.106 201.894 304.106 361.894> 637 60<91.1064 148.894 251.106 308.894> 720 60<91.1064 148.894 251.106 308.894>
VStem: 90 60<638.106 695.894 721.106 778.894> 143 60<554.106 611.894> 250 60<638.106 695.894 721.106 778.894> 303 60<554.106 611.894>
LayerCount: 2
Back
Fore
SplineSet
363 583 m 0xe2
 363 566 350 553 333 553 c 0
 316 553 303 566 303 583 c 0
 303 600 316 613 333 613 c 0
 350 613 363 600 363 583 c 0xe2
203 583 m 0xe8
 203 566 190 553 173 553 c 0
 156 553 143 566 143 583 c 0
 143 600 156 613 173 613 c 0
 190 613 203 600 203 583 c 0xe8
310 667 m 0xe4
 310 650 297 637 280 637 c 0
 263 637 250 650 250 667 c 0
 250 684 263 697 280 697 c 0
 297 697 310 684 310 667 c 0xe4
150 667 m 0xf0
 150 650 137 637 120 637 c 0
 103 637 90 650 90 667 c 0
 90 684 103 697 120 697 c 0
 137 697 150 684 150 667 c 0xf0
310 750 m 0xe4
 310 733 297 720 280 720 c 0
 263 720 250 733 250 750 c 0
 250 767 263 780 280 780 c 0
 297 780 310 767 310 750 c 0xe4
150 750 m 0xf0
 150 733 137 720 120 720 c 0
 103 720 90 733 90 750 c 0
 90 767 103 780 120 780 c 0
 137 780 150 767 150 750 c 0xf0
EndSplineSet
EndChar

StartChar: dollar
Encoding: 36 36 4
Width: 600
VWidth: 0
UnlinkRmOvrlpSave: 1
Flags: W
HStem: 220 60<251.106 308.894> 303 60<144.106 201.894 251.106 308.894 358.106 415.894> 387 60<251.106 308.894 411.106 468.894> 470 60<144.106 201.894 251.106 308.894 358.106 415.894> 553 60<91.1064 148.894 251.106 308.894> 637 60<144.106 201.894 251.106 308.894 358.106 415.894> 720 60<251.106 308.894>
VStem: 90 60<554.106 611.894> 143 60<304.106 361.894 471.106 528.894 638.106 695.894> 250 60<221.106 278.894 304.106 361.894 388.106 445.894 471.106 528.894 554.106 611.894 638.106 695.894 721.106 778.894> 357 60<304.106 361.894 471.106 528.894 638.106 695.894> 410 60<388.106 445.894>
LayerCount: 2
Back
Fore
SplineSet
310 250 m 0xfe40
 310 233 297 220 280 220 c 0
 263 220 250 233 250 250 c 0
 250 267 263 280 280 280 c 0
 297 280 310 267 310 250 c 0xfe40
417 333 m 0xfe60
 417 316 404 303 387 303 c 0
 370 303 357 316 357 333 c 0
 357 350 370 363 387 363 c 0
 404 363 417 350 417 333 c 0xfe60
310 333 m 0
 310 316 297 303 280 303 c 0
 263 303 250 316 250 333 c 0
 250 350 263 363 280 363 c 0
 297 363 310 350 310 333 c 0
203 333 m 0xfec0
 203 316 190 303 173 303 c 0
 156 303 143 316 143 333 c 0
 143 350 156 363 173 363 c 0
 190 363 203 350 203 333 c 0xfec0
470 417 m 0xfe50
 470 400 457 387 440 387 c 0
 423 387 410 400 410 417 c 0
 410 434 423 447 440 447 c 0
 457 447 470 434 470 417 c 0xfe50
310 417 m 0
 310 400 297 387 280 387 c 0
 263 387 250 400 250 417 c 0
 250 434 263 447 280 447 c 0
 297 447 310 434 310 417 c 0
417 500 m 0xfe60
 417 483 404 470 387 470 c 0
 370 470 357 483 357 500 c 0
 357 517 370 530 387 530 c 0
 404 530 417 517 417 500 c 0xfe60
310 500 m 0
 310 483 297 470 280 470 c 0
 263 470 250 483 250 500 c 0
 250 517 263 530 280 530 c 0
 297 530 310 517 310 500 c 0
203 500 m 0xfec0
 203 483 190 470 173 470 c 0
 156 470 143 483 143 500 c 0
 143 517 156 530 173 530 c 0
 190 530 203 517 203 500 c 0xfec0
310 583 m 0
 310 566 297 553 280 553 c 0
 263 553 250 566 250 583 c 0
 250 600 263 613 280 613 c 0
 297 613 310 600 310 583 c 0
150 583 m 0xff40
 150 566 137 553 120 553 c 0
 103 553 90 566 90 583 c 0
 90 600 103 613 120 613 c 0
 137 613 150 600 150 583 c 0xff40
417 667 m 0xfe60
 417 650 404 637 387 637 c 0
 370 637 357 650 357 667 c 0
 357 684 370 697 387 697 c 0
 404 697 417 684 417 667 c 0xfe60
310 667 m 0
 310 650 297 637 280 637 c 0
 263 637 250 650 250 667 c 0
 250 684 263 697 280 697 c 0
 297 697 310 684 310 667 c 0
203 667 m 0xfec0
 203 650 190 637 173 637 c 0
 156 637 143 650 143 667 c 0
 143 684 156 697 173 697 c 0
 190 697 203 684 203 667 c 0xfec0
310 750 m 0
 310 733 297 720 280 720 c 0
 263 720 250 733 250 750 c 0
 250 767 263 780 280 780 c 0
 297 780 310 767 310 750 c 0
EndSplineSet
EndChar

StartChar: section
Encoding: 167 167 5
Width: 600
VWidth: 0
UnlinkRmOvrlpSave: 1
Flags: W
HStem: 220 60<91.1064 148.894 198.106 255.894> 303 60<251.106 308.894> 387 60<198.106 255.894 304.106 361.894> 470 60<144.106 201.894 358.106 415.894> 553 60<198.106 255.894 304.106 361.894> 637 60<251.106 308.894> 720 60<304.106 361.894 411.106 468.894>
VStem: 90 60<221.106 278.894> 143 60<471.106 528.894> 197 60<221.106 278.894 388.106 445.894 554.106 611.894> 250 60<304.106 361.894 638.106 695.894> 303 60<388.106 445.894 554.106 611.894 721.106 778.894> 357 60<471.106 528.894> 410 60<721.106 778.894>
LayerCount: 2
Back
Fore
SplineSet
257 250 m 0xfe40
 257 233 244 220 227 220 c 0
 210 220 197 233 197 250 c 0
 197 267 210 280 227 280 c 0
 244 280 257 267 257 250 c 0xfe40
150 250 m 0xff
 150 233 137 220 120 220 c 0
 103 220 90 233 90 250 c 0
 90 267 103 280 120 280 c 0
 137 280 150 267 150 250 c 0xff
310 333 m 0xfe20
 310 316 297 303 280 303 c 0
 263 303 250 316 250 333 c 0
 250 350 263 363 280 363 c 0
 297 363 310 350 310 333 c 0xfe20
363 417 m 0xfe10
 363 400 350 387 333 387 c 0
 316 387 303 400 303 417 c 0
 303 434 316 447 333 447 c 0
 350 447 363 434 363 417 c 0xfe10
257 417 m 0xfe40
 257 400 244 387 227 387 c 0
 210 387 197 400 197 417 c 0
 197 434 210 447 227 447 c 0
 244 447 257 434 257 417 c 0xfe40
417 500 m 0xfe08
 417 483 404 470 387 470 c 0
 370 470 357 483 357 500 c 0
 357 517 370 530 387 530 c 0
 404 530 417 517 417 500 c 0xfe08
203 500 m 0xfe80
 203 483 190 470 173 470 c 0
 156 470 143 483 143 500 c 0
 143 517 156 530 173 530 c 0
 190 530 203 517 203 500 c 0xfe80
363 583 m 0xfe10
 363 566 350 553 333 553 c 0
 316 553 303 566 303 583 c 0
 303 600 316 613 333 613 c 0
 350 613 363 600 363 583 c 0xfe10
257 583 m 0xfe40
 257 566 244 553 227 553 c 0
 210 553 197 566 197 583 c 0
 197 600 210 613 227 613 c 0
 244 613 257 600 257 583 c 0xfe40
310 667 m 0xfe20
 310 650 297 637 280 637 c 0
 263 637 250 650 250 667 c 0
 250 684 263 697 280 697 c 0
 297 697 310 684 310 667 c 0xfe20
470 750 m 0xfe04
 470 733 457 720 440 720 c 0
 423 720 410 733 410 750 c 0
 410 767 423 780 440 780 c 0
 457 780 470 767 470 750 c 0xfe04
363 750 m 0xfe10
 363 733 350 720 333 720 c 0
 316 720 303 733 303 750 c 0
 303 767 316 780 333 780 c 0
 350 780 363 767 363 750 c 0xfe10
EndSplineSet
EndChar

StartChar: parenleft
Encoding: 40 40 6
Width: 600
VWidth: 0
UnlinkRmOvrlpSave: 1
Flags: W
HStem: 220 60<197.106 254.894> 303 60<144.106 201.894> 387 60<91.1064 148.894> 470 60<91.1064 148.894> 553 60<91.1064 148.894> 637 60<144.106 201.894> 720 60<197.106 254.894>
VStem: 90 60<388.106 445.894 471.106 528.894 554.106 611.894> 143 60<304.106 361.894 638.106 695.894> 196 60<221.106 278.894 721.106 778.894>
LayerCount: 2
Back
Fore
SplineSet
256 250 m 0xfe40
 256 233 243 220 226 220 c 0
 209 220 196 233 196 250 c 0
 196 267 209 280 226 280 c 0
 243 280 256 267 256 250 c 0xfe40
203 333 m 0xfe80
 203 316 190 303 173 303 c 0
 156 303 143 316 143 333 c 0
 143 350 156 363 173 363 c 0
 190 363 203 350 203 333 c 0xfe80
150 417 m 0xff
 150 400 137 387 120 387 c 0
 103 387 90 400 90 417 c 0
 90 434 103 447 120 447 c 0
 137 447 150 434 150 417 c 0xff
150 500 m 0
 150 483 137 470 120 470 c 0
 103 470 90 483 90 500 c 0
 90 517 103 530 120 530 c 0
 137 530 150 517 150 500 c 0
150 583 m 0
 150 566 137 553 120 553 c 0
 103 553 90 566 90 583 c 0
 90 600 103 613 120 613 c 0
 137 613 150 600 150 583 c 0
203 667 m 0xfe80
 203 650 190 637 173 637 c 0
 156 637 143 650 143 667 c 0
 143 684 156 697 173 697 c 0
 190 697 203 684 203 667 c 0xfe80
256 750 m 0xfe40
 256 733 243 720 226 720 c 0
 209 720 196 733 196 750 c 0
 196 767 209 780 226 780 c 0
 243 780 256 767 256 750 c 0xfe40
EndSplineSet
EndChar

StartChar: comma
Encoding: 44 44 7
Width: 600
VWidth: 0
UnlinkRmOvrlpSave: 1
Flags: W
HStem: 220 60<91.1064 148.894> 303 60<144.106 201.894> 387 60<91.1064 148.894 197.106 254.894> 470 60<91.1064 148.894 197.106 254.894>
VStem: 90 60<221.106 278.894 388.106 445.894 471.106 528.894> 143 60<304.106 361.894> 196 60<388.106 445.894 471.106 528.894>
LayerCount: 2
Back
Fore
SplineSet
150 250 m 0xf8
 150 233 137 220 120 220 c 0
 103 220 90 233 90 250 c 0
 90 267 103 280 120 280 c 0
 137 280 150 267 150 250 c 0xf8
203 333 m 0xf4
 203 316 190 303 173 303 c 0
 156 303 143 316 143 333 c 0
 143 350 156 363 173 363 c 0
 190 363 203 350 203 333 c 0xf4
256 417 m 0xf2
 256 400 243 387 226 387 c 0
 209 387 196 400 196 417 c 0
 196 434 209 447 226 447 c 0
 243 447 256 434 256 417 c 0xf2
150 417 m 0xf8
 150 400 137 387 120 387 c 0
 103 387 90 400 90 417 c 0
 90 434 103 447 120 447 c 0
 137 447 150 434 150 417 c 0xf8
256 500 m 0xf2
 256 483 243 470 226 470 c 0
 209 470 196 483 196 500 c 0
 196 517 209 530 226 530 c 0
 243 530 256 517 256 500 c 0xf2
150 500 m 0xf8
 150 483 137 470 120 470 c 0
 103 470 90 483 90 500 c 0
 90 517 103 530 120 530 c 0
 137 530 150 517 150 500 c 0xf8
EndSplineSet
EndChar

StartChar: zero
Encoding: 48 48 8
Width: 600
VWidth: 0
UnlinkRmOvrlpSave: 1
Flags: W
HStem: 220 60<198.106 255.894 304.106 361.894> 303 60<144.106 201.894 358.106 415.894> 387 60<91.1064 148.894 411.106 468.894> 470 60<91.1064 148.894 411.106 468.894> 553 60<91.1064 148.894 411.106 468.894> 637 60<144.106 201.894 358.106 415.894> 720 60<198.106 255.894 304.106 361.894>
VStem: 90 60<388.106 445.894 471.106 528.894 554.106 611.894> 143 60<304.106 361.894 638.106 695.894> 197 60<221.106 278.894 721.106 778.894> 303 60<221.106 278.894 721.106 778.894> 357 60<304.106 361.894 638.106 695.894> 410 60<388.106 445.894 471.106 528.894 554.106 611.894>
LayerCount: 2
Back
Fore
SplineSet
363 250 m 0xfe20
 363 233 350 220 333 220 c 0
 316 220 303 233 303 250 c 0
 303 267 316 280 333 280 c 0
 350 280 363 267 363 250 c 0xfe20
257 250 m 0xfe40
 257 233 244 220 227 220 c 0
 210 220 197 233 197 250 c 0
 197 267 210 280 227 280 c 0
 244 280 257 267 257 250 c 0xfe40
417 333 m 0xfe10
 417 316 404 303 387 303 c 0
 370 303 357 316 357 333 c 0
 357 350 370 363 387 363 c 0
 404 363 417 350 417 333 c 0xfe10
203 333 m 0xfe80
 203 316 190 303 173 303 c 0
 156 303 143 316 143 333 c 0
 143 350 156 363 173 363 c 0
 190 363 203 350 203 333 c 0xfe80
470 417 m 0xfe08
 470 400 457 387 440 387 c 0
 423 387 410 400 410 417 c 0
 410 434 423 447 440 447 c 0
 457 447 470 434 470 417 c 0xfe08
150 417 m 0xff
 150 400 137 387 120 387 c 0
 103 387 90 400 90 417 c 0
 90 434 103 447 120 447 c 0
 137 447 150 434 150 417 c 0xff
470 500 m 0xfe08
 470 483 457 470 440 470 c 0
 423 470 410 483 410 500 c 0
 410 517 423 530 440 530 c 0
 457 530 470 517 470 500 c 0xfe08
150 500 m 0xff
 150 483 137 470 120 470 c 0
 103 470 90 483 90 500 c 0
 90 517 103 530 120 530 c 0
 137 530 150 517 150 500 c 0xff
470 583 m 0xfe08
 470 566 457 553 440 553 c 0
 423 553 410 566 410 583 c 0
 410 600 423 613 440 613 c 0
 457 613 470 600 470 583 c 0xfe08
150 583 m 0xff
 150 566 137 553 120 553 c 0
 103 553 90 566 90 583 c 0
 90 600 103 613 120 613 c 0
 137 613 150 600 150 583 c 0xff
417 667 m 0xfe10
 417 650 404 637 387 637 c 0
 370 637 357 650 357 667 c 0
 357 684 370 697 387 697 c 0
 404 697 417 684 417 667 c 0xfe10
203 667 m 0xfe80
 203 650 190 637 173 637 c 0
 156 637 143 650 143 667 c 0
 143 684 156 697 173 697 c 0
 190 697 203 684 203 667 c 0xfe80
363 750 m 0xfe20
 363 733 350 720 333 720 c 0
 316 720 303 733 303 750 c 0
 303 767 316 780 333 780 c 0
 350 780 363 767 363 750 c 0xfe20
257 750 m 0xfe40
 257 733 244 720 227 720 c 0
 210 720 197 733 197 750 c 0
 197 767 210 780 227 780 c 0
 244 780 257 767 257 750 c 0xfe40
EndSplineSet
EndChar

StartChar: glyph9
Encoding: 9785 9785 9
Width: 600
VWidth: 0
UnlinkRmOvrlpSave: 1
Flags: W
HStem: 303 60<91.1064 148.894 411.106 468.894> 387 60<144.106 201.894 251.106 308.894 358.106 415.894> 637 60<144.106 201.894 358.106 415.894>
VStem: 90 60<304.106 361.894> 143 60<388.106 445.894 638.106 695.894> 250 60<388.106 445.894> 357 60<388.106 445.894 638.106 695.894> 410 60<304.106 361.894>
LayerCount: 2
Back
Fore
SplineSet
470 333 m 0xe5
 470 316 457 303 440 303 c 0
 423 303 410 316 410 333 c 0
 410 350 423 363 440 363 c 0
 457 363 470 350 470 333 c 0xe5
150 333 m 0xf4
 150 316 137 303 120 303 c 0
 103 303 90 316 90 333 c 0
 90 350 103 363 120 363 c 0
 137 363 150 350 150 333 c 0xf4
417 417 m 0xe6
 417 400 404 387 387 387 c 0
 370 387 357 400 357 417 c 0
 357 434 370 447 387 447 c 0
 404 447 417 434 417 417 c 0xe6
310 417 m 0
 310 400 297 387 280 387 c 0
 263 387 250 400 250 417 c 0
 250 434 263 447 280 447 c 0
 297 447 310 434 310 417 c 0
203 417 m 0xec
 203 400 190 387 173 387 c 0
 156 387 143 400 143 417 c 0
 143 434 156 447 173 447 c 0
 190 447 203 434 203 417 c 0xec
417 667 m 0xe6
 417 650 404 637 387 637 c 0
 370 637 357 650 357 667 c 0
 357 684 370 697 387 697 c 0
 404 697 417 684 417 667 c 0xe6
203 667 m 0xec
 203 650 190 637 173 637 c 0
 156 637 143 650 143 667 c 0
 143 684 156 697 173 697 c 0
 190 697 203 684 203 667 c 0xec
EndSplineSet
EndChar

StartChar: four
Encoding: 52 52 10
Width: 600
VWidth: 0
UnlinkRmOvrlpSave: 1
Flags: W
HStem: 220 60<358.106 415.894> 303 60<358.106 415.894> 387 60<91.1064 148.894 198.106 255.894 304.106 361.894 411.106 468.894> 470 60<144.106 201.894 358.106 415.894> 553 60<198.106 255.894 358.106 415.894> 637 60<251.106 308.894 358.106 415.894> 720 60<304.106 361.894>
VStem: 90 60<388.106 445.894> 143 60<471.106 528.894> 197 60<388.106 445.894 554.106 611.894> 250 60<638.106 695.894> 303 60<388.106 445.894 721.106 778.894> 357 60<221.106 278.894 304.106 361.894 471.106 528.894 554.106 611.894 638.106 695.894> 410 60<388.106 445.894>
LayerCount: 2
Back
Fore
SplineSet
417 250 m 0xfe08
 417 233 404 220 387 220 c 0
 370 220 357 233 357 250 c 0
 357 267 370 280 387 280 c 0
 404 280 417 267 417 250 c 0xfe08
417 333 m 0
 417 316 404 303 387 303 c 0
 370 303 357 316 357 333 c 0
 357 350 370 363 387 363 c 0
 404 363 417 350 417 333 c 0
470 417 m 0xfe04
 470 400 457 387 440 387 c 0
 423 387 410 400 410 417 c 0
 410 434 423 447 440 447 c 0
 457 447 470 434 470 417 c 0xfe04
363 417 m 0xfe10
 363 400 350 387 333 387 c 0
 316 387 303 400 303 417 c 0
 303 434 316 447 333 447 c 0
 350 447 363 434 363 417 c 0xfe10
257 417 m 0xfe40
 257 400 244 387 227 387 c 0
 210 387 197 400 197 417 c 0
 197 434 210 447 227 447 c 0
 244 447 257 434 257 417 c 0xfe40
150 417 m 0xff
 150 400 137 387 120 387 c 0
 103 387 90 400 90 417 c 0
 90 434 103 447 120 447 c 0
 137 447 150 434 150 417 c 0xff
417 500 m 0xfe08
 417 483 404 470 387 470 c 0
 370 470 357 483 357 500 c 0
 357 517 370 530 387 530 c 0
 404 530 417 517 417 500 c 0xfe08
203 500 m 0xfe80
 203 483 190 470 173 470 c 0
 156 470 143 483 143 500 c 0
 143 517 156 530 173 530 c 0
 190 530 203 517 203 500 c 0xfe80
417 583 m 0xfe08
 417 566 404 553 387 553 c 0
 370 553 357 566 357 583 c 0
 357 600 370 613 387 613 c 0
 404 613 417 600 417 583 c 0xfe08
257 583 m 0xfe40
 257 566 244 553 227 553 c 0
 210 553 197 566 197 583 c 0
 197 600 210 613 227 613 c 0
 244 613 257 600 257 583 c 0xfe40
417 667 m 0xfe08
 417 650 404 637 387 637 c 0
 370 637 357 650 357 667 c 0
 357 684 370 697 387 697 c 0
 404 697 417 684 417 667 c 0xfe08
310 667 m 0xfe20
 310 650 297 637 280 637 c 0
 263 637 250 650 250 667 c 0
 250 684 263 697 280 697 c 0
 297 697 310 684 310 667 c 0xfe20
363 750 m 0xfe10
 363 733 350 720 333 720 c 0
 316 720 303 733 303 750 c 0
 303 767 316 780 333 780 c 0
 350 780 363 767 363 750 c 0xfe10
EndSplineSet
EndChar

StartChar: periodcentered
Encoding: 183 183 11
Width: 600
VWidth: 0
UnlinkRmOvrlpSave: 1
Flags: W
HStem: 387 60<145.106 202.894 251.106 308.894> 470 60<91.1064 148.894 198.106 255.894 305.106 362.894> 553 60<145.106 202.894 251.106 308.894>
VStem: 90 60<471.106 528.894> 144 60<388.106 445.894 554.106 611.894> 197 60<471.106 528.894> 250 60<388.106 445.894 554.106 611.894> 304 60<471.106 528.894>
CounterMasks: 1 e0
LayerCount: 2
Back
Fore
SplineSet
310 417 m 0xe2
 310 400 297 387 280 387 c 0
 263 387 250 400 250 417 c 0
 250 434 263 447 280 447 c 0
 297 447 310 434 310 417 c 0xe2
204 417 m 0xe8
 204 400 191 387 174 387 c 0
 157 387 144 400 144 417 c 0
 144 434 157 447 174 447 c 0
 191 447 204 434 204 417 c 0xe8
364 500 m 0xe1
 364 483 351 470 334 470 c 0
 317 470 304 483 304 500 c 0
 304 517 317 530 334 530 c 0
 351 530 364 517 364 500 c 0xe1
257 500 m 0xe4
 257 483 244 470 227 470 c 0
 210 470 197 483 197 500 c 0
 197 517 210 530 227 530 c 0
 244 530 257 517 257 500 c 0xe4
150 500 m 0xf0
 150 483 137 470 120 470 c 0
 103 470 90 483 90 500 c 0
 90 517 103 530 120 530 c 0
 137 530 150 517 150 500 c 0xf0
310 583 m 0xe2
 310 566 297 553 280 553 c 0
 263 553 250 566 250 583 c 0
 250 600 263 613 280 613 c 0
 297 613 310 600 310 583 c 0xe2
204 583 m 0xe8
 204 566 191 553 174 553 c 0
 157 553 144 566 144 583 c 0
 144 600 157 613 174 613 c 0
 191 613 204 600 204 583 c 0xe8
EndSplineSet
EndChar

StartChar: eight
Encoding: 56 56 12
Width: 600
VWidth: 0
UnlinkRmOvrlpSave: 1
Flags: W
HStem: 220 60<144.106 201.894 251.106 308.894 358.106 415.894> 303 60<91.1064 148.894 411.106 468.894> 387 60<91.1064 148.894 411.106 468.894> 470 60<144.106 201.894 251.106 308.894 358.106 415.894> 553 60<91.1064 148.894 411.106 468.894> 637 60<91.1064 148.894 411.106 468.894> 720 60<144.106 201.894 251.106 308.894 358.106 415.894>
VStem: 90 60<304.106 361.894 388.106 445.894 554.106 611.894 638.106 695.894> 143 60<221.106 278.894 471.106 528.894 721.106 778.894> 250 60<221.106 278.894 471.106 528.894 721.106 778.894> 357 60<221.106 278.894 471.106 528.894 721.106 778.894> 410 60<304.106 361.894 388.106 445.894 554.106 611.894 638.106 695.894>
LayerCount: 2
Back
Fore
SplineSet
417 250 m 0xfe60
 417 233 404 220 387 220 c 0
 370 220 357 233 357 250 c 0
 357 267 370 280 387 280 c 0
 404 280 417 267 417 250 c 0xfe60
310 250 m 0
 310 233 297 220 280 220 c 0
 263 220 250 233 250 250 c 0
 250 267 263 280 280 280 c 0
 297 280 310 267 310 250 c 0
203 250 m 0xfec0
 203 233 190 220 173 220 c 0
 156 220 143 233 143 250 c 0
 143 267 156 280 173 280 c 0
 190 280 203 267 203 250 c 0xfec0
470 333 m 0xfe50
 470 316 457 303 440 303 c 0
 423 303 410 316 410 333 c 0
 410 350 423 363 440 363 c 0
 457 363 470 350 470 333 c 0xfe50
150 333 m 0xff40
 150 316 137 303 120 303 c 0
 103 303 90 316 90 333 c 0
 90 350 103 363 120 363 c 0
 137 363 150 350 150 333 c 0xff40
470 417 m 0xfe50
 470 400 457 387 440 387 c 0
 423 387 410 400 410 417 c 0
 410 434 423 447 440 447 c 0
 457 447 470 434 470 417 c 0xfe50
150 417 m 0xff40
 150 400 137 387 120 387 c 0
 103 387 90 400 90 417 c 0
 90 434 103 447 120 447 c 0
 137 447 150 434 150 417 c 0xff40
417 500 m 0xfe60
 417 483 404 470 387 470 c 0
 370 470 357 483 357 500 c 0
 357 517 370 530 387 530 c 0
 404 530 417 517 417 500 c 0xfe60
310 500 m 0
 310 483 297 470 280 470 c 0
 263 470 250 483 250 500 c 0
 250 517 263 530 280 530 c 0
 297 530 310 517 310 500 c 0
203 500 m 0xfec0
 203 483 190 470 173 470 c 0
 156 470 143 483 143 500 c 0
 143 517 156 530 173 530 c 0
 190 530 203 517 203 500 c 0xfec0
470 583 m 0xfe50
 470 566 457 553 440 553 c 0
 423 553 410 566 410 583 c 0
 410 600 423 613 440 613 c 0
 457 613 470 600 470 583 c 0xfe50
150 583 m 0xff40
 150 566 137 553 120 553 c 0
 103 553 90 566 90 583 c 0
 90 600 103 613 120 613 c 0
 137 613 150 600 150 583 c 0xff40
470 667 m 0xfe50
 470 650 457 637 440 637 c 0
 423 637 410 650 410 667 c 0
 410 684 423 697 440 697 c 0
 457 697 470 684 470 667 c 0xfe50
150 667 m 0xff40
 150 650 137 637 120 637 c 0
 103 637 90 650 90 667 c 0
 90 684 103 697 120 697 c 0
 137 697 150 684 150 667 c 0xff40
417 750 m 0xfe60
 417 733 404 720 387 720 c 0
 370 720 357 733 357 750 c 0
 357 767 370 780 387 780 c 0
 404 780 417 767 417 750 c 0xfe60
310 750 m 0
 310 733 297 720 280 720 c 0
 263 720 250 733 250 750 c 0
 250 767 263 780 280 780 c 0
 297 780 310 767 310 750 c 0
203 750 m 0xfec0
 203 733 190 720 173 720 c 0
 156 720 143 733 143 750 c 0
 143 767 156 780 173 780 c 0
 190 780 203 767 203 750 c 0xfec0
EndSplineSet
EndChar

StartChar: less
Encoding: 60 60 13
Width: 600
VWidth: 0
UnlinkRmOvrlpSave: 1
Flags: W
HStem: 220 60<411.106 468.894> 303 60<304.106 361.894> 387 60<198.106 255.894> 470 60<91.1064 148.894> 553 60<198.106 255.894> 637 60<304.106 361.894> 720 60<411.106 468.894>
VStem: 90 60<471.106 528.894> 197 60<388.106 445.894 554.106 611.894> 303 60<304.106 361.894 638.106 695.894> 410 60<221.106 278.894 721.106 778.894>
LayerCount: 2
Back
Fore
SplineSet
470 250 m 0
 470 233 457 220 440 220 c 0
 423 220 410 233 410 250 c 0
 410 267 423 280 440 280 c 0
 457 280 470 267 470 250 c 0
363 333 m 0
 363 316 350 303 333 303 c 0
 316 303 303 316 303 333 c 0
 303 350 316 363 333 363 c 0
 350 363 363 350 363 333 c 0
257 417 m 0
 257 400 244 387 227 387 c 0
 210 387 197 400 197 417 c 0
 197 434 210 447 227 447 c 0
 244 447 257 434 257 417 c 0
150 500 m 0
 150 483 137 470 120 470 c 0
 103 470 90 483 90 500 c 0
 90 517 103 530 120 530 c 0
 137 530 150 517 150 500 c 0
257 583 m 0
 257 566 244 553 227 553 c 0
 210 553 197 566 197 583 c 0
 197 600 210 613 227 613 c 0
 244 613 257 600 257 583 c 0
363 667 m 0
 363 650 350 637 333 637 c 0
 316 637 303 650 303 667 c 0
 303 684 316 697 333 697 c 0
 350 697 363 684 363 667 c 0
470 750 m 0
 470 733 457 720 440 720 c 0
 423 720 410 733 410 750 c 0
 410 767 423 780 440 780 c 0
 457 780 470 767 470 750 c 0
EndSplineSet
EndChar

StartChar: at
Encoding: 64 64 14
Width: 600
VWidth: 0
UnlinkRmOvrlpSave: 1
Flags: W
HStem: 220 60<144.106 201.894 251.106 308.894 358.106 415.894> 303 60<91.1064 148.894> 387 60<91.1064 148.894 251.106 308.894 358.106 415.894> 470 60<91.1064 148.894 251.106 308.894 411.106 468.894> 553 60<91.1064 148.894 304.106 361.894 411.106 468.894> 637 60<91.1064 148.894 411.106 468.894> 720 60<144.106 201.894 251.106 308.894 358.106 415.894>
VStem: 90 60<304.106 361.894 388.106 445.894 471.106 528.894 554.106 611.894 638.106 695.894> 143 60<221.106 278.894 721.106 778.894> 250 60<221.106 278.894 388.106 445.894 471.106 528.894 721.106 778.894> 303 60<554.106 611.894> 357 60<221.106 278.894 388.106 445.894 721.106 778.894> 410 60<471.106 528.894 554.106 611.894 638.106 695.894>
LayerCount: 2
Back
Fore
SplineSet
417 250 m 0xfe10
 417 233 404 220 387 220 c 0
 370 220 357 233 357 250 c 0
 357 267 370 280 387 280 c 0
 404 280 417 267 417 250 c 0xfe10
310 250 m 0xfe40
 310 233 297 220 280 220 c 0
 263 220 250 233 250 250 c 0
 250 267 263 280 280 280 c 0
 297 280 310 267 310 250 c 0xfe40
203 250 m 0xfe80
 203 233 190 220 173 220 c 0
 156 220 143 233 143 250 c 0
 143 267 156 280 173 280 c 0
 190 280 203 267 203 250 c 0xfe80
150 333 m 0xff
 150 316 137 303 120 303 c 0
 103 303 90 316 90 333 c 0
 90 350 103 363 120 363 c 0
 137 363 150 350 150 333 c 0xff
417 417 m 0xfe10
 417 400 404 387 387 387 c 0
 370 387 357 400 357 417 c 0
 357 434 370 447 387 447 c 0
 404 447 417 434 417 417 c 0xfe10
310 417 m 0xfe40
 310 400 297 387 280 387 c 0
 263 387 250 400 250 417 c 0
 250 434 263 447 280 447 c 0
 297 447 310 434 310 417 c 0xfe40
150 417 m 0xff
 150 400 137 387 120 387 c 0
 103 387 90 400 90 417 c 0
 90 434 103 447 120 447 c 0
 137 447 150 434 150 417 c 0xff
470 500 m 0xfe08
 470 483 457 470 440 470 c 0
 423 470 410 483 410 500 c 0
 410 517 423 530 440 530 c 0
 457 530 470 517 470 500 c 0xfe08
310 500 m 0xfe40
 310 483 297 470 280 470 c 0
 263 470 250 483 250 500 c 0
 250 517 263 530 280 530 c 0
 297 530 310 517 310 500 c 0xfe40
150 500 m 0xff
 150 483 137 470 120 470 c 0
 103 470 90 483 90 500 c 0
 90 517 103 530 120 530 c 0
 137 530 150 517 150 500 c 0xff
470 583 m 0xfe08
 470 566 457 553 440 553 c 0
 423 553 410 566 410 583 c 0
 410 600 423 613 440 613 c 0
 457 613 470 600 470 583 c 0xfe08
363 583 m 0xfe20
 363 566 350 553 333 553 c 0
 316 553 303 566 303 583 c 0
 303 600 316 613 333 613 c 0
 350 613 363 600 363 583 c 0xfe20
150 583 m 0xff
 150 566 137 553 120 553 c 0
 103 553 90 566 90 583 c 0
 90 600 103 613 120 613 c 0
 137 613 150 600 150 583 c 0xff
470 667 m 0xfe08
 470 650 457 637 440 637 c 0
 423 637 410 650 410 667 c 0
 410 684 423 697 440 697 c 0
 457 697 470 684 470 667 c 0xfe08
150 667 m 0xff
 150 650 137 637 120 637 c 0
 103 637 90 650 90 667 c 0
 90 684 103 697 120 697 c 0
 137 697 150 684 150 667 c 0xff
417 750 m 0xfe10
 417 733 404 720 387 720 c 0
 370 720 357 733 357 750 c 0
 357 767 370 780 387 780 c 0
 404 780 417 767 417 750 c 0xfe10
310 750 m 0xfe40
 310 733 297 720 280 720 c 0
 263 720 250 733 250 750 c 0
 250 767 263 780 280 780 c 0
 297 780 310 767 310 750 c 0xfe40
203 750 m 0xfe80
 203 733 190 720 173 720 c 0
 156 720 143 733 143 750 c 0
 143 767 156 780 173 780 c 0
 190 780 203 767 203 750 c 0xfe80
EndSplineSet
EndChar

StartChar: D
Encoding: 68 68 15
Width: 600
VWidth: 0
UnlinkRmOvrlpSave: 1
Flags: W
HStem: 220 60<91.1064 148.894 198.106 255.894 304.106 361.894> 303 60<144.106 201.894 411.106 468.894> 387 60<144.106 201.894 411.106 468.894> 470 60<144.106 201.894 411.106 468.894> 553 60<144.106 201.894 411.106 468.894> 637 60<144.106 201.894 411.106 468.894> 720 60<91.1064 148.894 198.106 255.894 304.106 361.894>
VStem: 90 60<221.106 278.894 721.106 778.894> 143 60<304.106 361.894 388.106 445.894 471.106 528.894 554.106 611.894 638.106 695.894> 197 60<221.106 278.894 721.106 778.894> 303 60<221.106 278.894 721.106 778.894> 410 60<304.106 361.894 388.106 445.894 471.106 528.894 554.106 611.894 638.106 695.894>
LayerCount: 2
Back
Fore
SplineSet
363 250 m 0xfe30
 363 233 350 220 333 220 c 0
 316 220 303 233 303 250 c 0
 303 267 316 280 333 280 c 0
 350 280 363 267 363 250 c 0xfe30
257 250 m 0xfe70
 257 233 244 220 227 220 c 0
 210 220 197 233 197 250 c 0
 197 267 210 280 227 280 c 0
 244 280 257 267 257 250 c 0xfe70
150 250 m 0xff30
 150 233 137 220 120 220 c 0
 103 220 90 233 90 250 c 0
 90 267 103 280 120 280 c 0
 137 280 150 267 150 250 c 0xff30
470 333 m 0
 470 316 457 303 440 303 c 0
 423 303 410 316 410 333 c 0
 410 350 423 363 440 363 c 0
 457 363 470 350 470 333 c 0
203 333 m 0xfeb0
 203 316 190 303 173 303 c 0
 156 303 143 316 143 333 c 0
 143 350 156 363 173 363 c 0
 190 363 203 350 203 333 c 0xfeb0
470 417 m 0
 470 400 457 387 440 387 c 0
 423 387 410 400 410 417 c 0
 410 434 423 447 440 447 c 0
 457 447 470 434 470 417 c 0
203 417 m 0
 203 400 190 387 173 387 c 0
 156 387 143 400 143 417 c 0
 143 434 156 447 173 447 c 0
 190 447 203 434 203 417 c 0
470 500 m 0
 470 483 457 470 440 470 c 0
 423 470 410 483 410 500 c 0
 410 517 423 530 440 530 c 0
 457 530 470 517 470 500 c 0
203 500 m 0
 203 483 190 470 173 470 c 0
 156 470 143 483 143 500 c 0
 143 517 156 530 173 530 c 0
 190 530 203 517 203 500 c 0
470 583 m 0
 470 566 457 553 440 553 c 0
 423 553 410 566 410 583 c 0
 410 600 423 613 440 613 c 0
 457 613 470 600 470 583 c 0
203 583 m 0
 203 566 190 553 173 553 c 0
 156 553 143 566 143 583 c 0
 143 600 156 613 173 613 c 0
 190 613 203 600 203 583 c 0
470 667 m 0
 470 650 457 637 440 637 c 0
 423 637 410 650 410 667 c 0
 410 684 423 697 440 697 c 0
 457 697 470 684 470 667 c 0
203 667 m 0
 203 650 190 637 173 637 c 0
 156 637 143 650 143 667 c 0
 143 684 156 697 173 697 c 0
 190 697 203 684 203 667 c 0
363 750 m 0
 363 733 350 720 333 720 c 0
 316 720 303 733 303 750 c 0
 303 767 316 780 333 780 c 0
 350 780 363 767 363 750 c 0
257 750 m 0xfe70
 257 733 244 720 227 720 c 0
 210 720 197 733 197 750 c 0
 197 767 210 780 227 780 c 0
 244 780 257 767 257 750 c 0xfe70
150 750 m 0xff30
 150 733 137 720 120 720 c 0
 103 720 90 733 90 750 c 0
 90 767 103 780 120 780 c 0
 137 780 150 767 150 750 c 0xff30
EndSplineSet
EndChar

StartChar: Ccedilla
Encoding: 199 199 16
Width: 600
VWidth: 0
UnlinkRmOvrlpSave: 1
Flags: W
HStem: 220 60<251.106 308.894> 303 60<144.106 201.894 251.106 308.894 358.106 415.894> 387 60<91.1064 148.894 411.106 468.894> 470 60<91.1064 148.894> 553 60<91.1064 148.894> 637 60<91.1064 148.894 411.106 468.894> 720 60<144.106 201.894 251.106 308.894 358.106 415.894>
VStem: 90 60<388.106 445.894 471.106 528.894 554.106 611.894 638.106 695.894> 143 60<304.106 361.894 721.106 778.894> 250 60<221.106 278.894 304.106 361.894 721.106 778.894> 357 60<304.106 361.894 721.106 778.894> 410 60<388.106 445.894 638.106 695.894>
LayerCount: 2
Back
Fore
SplineSet
310 250 m 0xfe40
 310 233 297 220 280 220 c 0
 263 220 250 233 250 250 c 0
 250 267 263 280 280 280 c 0
 297 280 310 267 310 250 c 0xfe40
417 333 m 0xfe60
 417 316 404 303 387 303 c 0
 370 303 357 316 357 333 c 0
 357 350 370 363 387 363 c 0
 404 363 417 350 417 333 c 0xfe60
310 333 m 0
 310 316 297 303 280 303 c 0
 263 303 250 316 250 333 c 0
 250 350 263 363 280 363 c 0
 297 363 310 350 310 333 c 0
203 333 m 0xfec0
 203 316 190 303 173 303 c 0
 156 303 143 316 143 333 c 0
 143 350 156 363 173 363 c 0
 190 363 203 350 203 333 c 0xfec0
470 417 m 0xfe50
 470 400 457 387 440 387 c 0
 423 387 410 400 410 417 c 0
 410 434 423 447 440 447 c 0
 457 447 470 434 470 417 c 0xfe50
150 417 m 0xff40
 150 400 137 387 120 387 c 0
 103 387 90 400 90 417 c 0
 90 434 103 447 120 447 c 0
 137 447 150 434 150 417 c 0xff40
150 500 m 0
 150 483 137 470 120 470 c 0
 103 470 90 483 90 500 c 0
 90 517 103 530 120 530 c 0
 137 530 150 517 150 500 c 0
150 583 m 0
 150 566 137 553 120 553 c 0
 103 553 90 566 90 583 c 0
 90 600 103 613 120 613 c 0
 137 613 150 600 150 583 c 0
470 667 m 0xfe50
 470 650 457 637 440 637 c 0
 423 637 410 650 410 667 c 0
 410 684 423 697 440 697 c 0
 457 697 470 684 470 667 c 0xfe50
150 667 m 0xff40
 150 650 137 637 120 637 c 0
 103 637 90 650 90 667 c 0
 90 684 103 697 120 697 c 0
 137 697 150 684 150 667 c 0xff40
417 750 m 0xfe60
 417 733 404 720 387 720 c 0
 370 720 357 733 357 750 c 0
 357 767 370 780 387 780 c 0
 404 780 417 767 417 750 c 0xfe60
310 750 m 0
 310 733 297 720 280 720 c 0
 263 720 250 733 250 750 c 0
 250 767 263 780 280 780 c 0
 297 780 310 767 310 750 c 0
203 750 m 0xfec0
 203 733 190 720 173 720 c 0
 156 720 143 733 143 750 c 0
 143 767 156 780 173 780 c 0
 190 780 203 767 203 750 c 0xfec0
EndSplineSet
EndChar

StartChar: H
Encoding: 72 72 17
Width: 600
VWidth: 0
UnlinkRmOvrlpSave: 1
Flags: W
HStem: 220 60<91.1064 148.894 411.106 468.894> 303 60<91.1064 148.894 411.106 468.894> 387 60<91.1064 148.894 411.106 468.894> 470 60<91.1064 148.894 198.106 255.894 304.106 361.894 411.106 468.894> 553 60<91.1064 148.894 411.106 468.894> 637 60<91.1064 148.894 411.106 468.894> 720 60<91.1064 148.894 411.106 468.894>
VStem: 90 60<221.106 278.894 304.106 361.894 388.106 445.894 471.106 528.894 554.106 611.894 638.106 695.894 721.106 778.894> 197 60<471.106 528.894> 303 60<471.106 528.894> 410 60<221.106 278.894 304.106 361.894 388.106 445.894 471.106 528.894 554.106 611.894 638.106 695.894 721.106 778.894>
LayerCount: 2
Back
Fore
SplineSet
470 250 m 0
 470 233 457 220 440 220 c 0
 423 220 410 233 410 250 c 0
 410 267 423 280 440 280 c 0
 457 280 470 267 470 250 c 0
150 250 m 0
 150 233 137 220 120 220 c 0
 103 220 90 233 90 250 c 0
 90 267 103 280 120 280 c 0
 137 280 150 267 150 250 c 0
470 333 m 0
 470 316 457 303 440 303 c 0
 423 303 410 316 410 333 c 0
 410 350 423 363 440 363 c 0
 457 363 470 350 470 333 c 0
150 333 m 0
 150 316 137 303 120 303 c 0
 103 303 90 316 90 333 c 0
 90 350 103 363 120 363 c 0
 137 363 150 350 150 333 c 0
470 417 m 0
 470 400 457 387 440 387 c 0
 423 387 410 400 410 417 c 0
 410 434 423 447 440 447 c 0
 457 447 470 434 470 417 c 0
150 417 m 0
 150 400 137 387 120 387 c 0
 103 387 90 400 90 417 c 0
 90 434 103 447 120 447 c 0
 137 447 150 434 150 417 c 0
470 500 m 0
 470 483 457 470 440 470 c 0
 423 470 410 483 410 500 c 0
 410 517 423 530 440 530 c 0
 457 530 470 517 470 500 c 0
363 500 m 0
 363 483 350 470 333 470 c 0
 316 470 303 483 303 500 c 0
 303 517 316 530 333 530 c 0
 350 530 363 517 363 500 c 0
257 500 m 0
 257 483 244 470 227 470 c 0
 210 470 197 483 197 500 c 0
 197 517 210 530 227 530 c 0
 244 530 257 517 257 500 c 0
150 500 m 0
 150 483 137 470 120 470 c 0
 103 470 90 483 90 500 c 0
 90 517 103 530 120 530 c 0
 137 530 150 517 150 500 c 0
470 583 m 0
 470 566 457 553 440 553 c 0
 423 553 410 566 410 583 c 0
 410 600 423 613 440 613 c 0
 457 613 470 600 470 583 c 0
150 583 m 0
 150 566 137 553 120 553 c 0
 103 553 90 566 90 583 c 0
 90 600 103 613 120 613 c 0
 137 613 150 600 150 583 c 0
470 667 m 0
 470 650 457 637 440 637 c 0
 423 637 410 650 410 667 c 0
 410 684 423 697 440 697 c 0
 457 697 470 684 470 667 c 0
150 667 m 0
 150 650 137 637 120 637 c 0
 103 637 90 650 90 667 c 0
 90 684 103 697 120 697 c 0
 137 697 150 684 150 667 c 0
470 750 m 0
 470 733 457 720 440 720 c 0
 423 720 410 733 410 750 c 0
 410 767 423 780 440 780 c 0
 457 780 470 767 470 750 c 0
150 750 m 0
 150 733 137 720 120 720 c 0
 103 720 90 733 90 750 c 0
 90 767 103 780 120 780 c 0
 137 780 150 767 150 750 c 0
EndSplineSet
EndChar

StartChar: Edieresis
Encoding: 203 203 18
Width: 600
VWidth: 0
UnlinkRmOvrlpSave: 1
Flags: W
HStem: 220 60<91.1064 148.894 198.106 255.894 304.106 361.894 411.106 468.894> 303 60<91.1064 148.894> 387 60<91.1064 148.894 198.106 255.894 304.106 361.894> 470 60<91.1064 148.894> 553 60<91.1064 148.894 198.106 255.894 304.106 361.894 411.106 468.894> 720 60<144.106 201.894 358.106 415.894>
VStem: 90 60<221.106 278.894 304.106 361.894 388.106 445.894 471.106 528.894 554.106 611.894> 143 60<721.106 778.894> 197 60<221.106 278.894 388.106 445.894 554.106 611.894> 303 60<221.106 278.894 388.106 445.894 554.106 611.894> 357 60<721.106 778.894> 410 60<221.106 278.894 554.106 611.894>
LayerCount: 2
Back
Fore
SplineSet
470 250 m 0xfc10
 470 233 457 220 440 220 c 0
 423 220 410 233 410 250 c 0
 410 267 423 280 440 280 c 0
 457 280 470 267 470 250 c 0xfc10
363 250 m 0xfc40
 363 233 350 220 333 220 c 0
 316 220 303 233 303 250 c 0
 303 267 316 280 333 280 c 0
 350 280 363 267 363 250 c 0xfc40
257 250 m 0xfc80
 257 233 244 220 227 220 c 0
 210 220 197 233 197 250 c 0
 197 267 210 280 227 280 c 0
 244 280 257 267 257 250 c 0xfc80
150 250 m 0xfe
 150 233 137 220 120 220 c 0
 103 220 90 233 90 250 c 0
 90 267 103 280 120 280 c 0
 137 280 150 267 150 250 c 0xfe
150 333 m 0
 150 316 137 303 120 303 c 0
 103 303 90 316 90 333 c 0
 90 350 103 363 120 363 c 0
 137 363 150 350 150 333 c 0
363 417 m 0xfc40
 363 400 350 387 333 387 c 0
 316 387 303 400 303 417 c 0
 303 434 316 447 333 447 c 0
 350 447 363 434 363 417 c 0xfc40
257 417 m 0xfc80
 257 400 244 387 227 387 c 0
 210 387 197 400 197 417 c 0
 197 434 210 447 227 447 c 0
 244 447 257 434 257 417 c 0xfc80
150 417 m 0xfe
 150 400 137 387 120 387 c 0
 103 387 90 400 90 417 c 0
 90 434 103 447 120 447 c 0
 137 447 150 434 150 417 c 0xfe
150 500 m 0
 150 483 137 470 120 470 c 0
 103 470 90 483 90 500 c 0
 90 517 103 530 120 530 c 0
 137 530 150 517 150 500 c 0
470 583 m 0xfc10
 470 566 457 553 440 553 c 0
 423 553 410 566 410 583 c 0
 410 600 423 613 440 613 c 0
 457 613 470 600 470 583 c 0xfc10
363 583 m 0xfc40
 363 566 350 553 333 553 c 0
 316 553 303 566 303 583 c 0
 303 600 316 613 333 613 c 0
 350 613 363 600 363 583 c 0xfc40
257 583 m 0xfc80
 257 566 244 553 227 553 c 0
 210 553 197 566 197 583 c 0
 197 600 210 613 227 613 c 0
 244 613 257 600 257 583 c 0xfc80
150 583 m 0xfe
 150 566 137 553 120 553 c 0
 103 553 90 566 90 583 c 0
 90 600 103 613 120 613 c 0
 137 613 150 600 150 583 c 0xfe
417 750 m 0xfc20
 417 733 404 720 387 720 c 0
 370 720 357 733 357 750 c 0
 357 767 370 780 387 780 c 0
 404 780 417 767 417 750 c 0xfc20
203 750 m 0xfd
 203 733 190 720 173 720 c 0
 156 720 143 733 143 750 c 0
 143 767 156 780 173 780 c 0
 190 780 203 767 203 750 c 0xfd
EndSplineSet
EndChar

StartChar: L
Encoding: 76 76 19
Width: 600
VWidth: 0
UnlinkRmOvrlpSave: 1
Flags: W
HStem: 220 60<91.1064 148.894 198.106 255.894 304.106 361.894 411.106 468.894> 303 60<91.1064 148.894> 387 60<91.1064 148.894> 470 60<91.1064 148.894> 553 60<91.1064 148.894> 637 60<91.1064 148.894> 720 60<91.1064 148.894>
VStem: 90 60<221.106 278.894 304.106 361.894 388.106 445.894 471.106 528.894 554.106 611.894 638.106 695.894 721.106 778.894> 197 60<221.106 278.894> 303 60<221.106 278.894> 410 60<221.106 278.894>
LayerCount: 2
Back
Fore
SplineSet
470 250 m 0
 470 233 457 220 440 220 c 0
 423 220 410 233 410 250 c 0
 410 267 423 280 440 280 c 0
 457 280 470 267 470 250 c 0
363 250 m 0
 363 233 350 220 333 220 c 0
 316 220 303 233 303 250 c 0
 303 267 316 280 333 280 c 0
 350 280 363 267 363 250 c 0
257 250 m 0
 257 233 244 220 227 220 c 0
 210 220 197 233 197 250 c 0
 197 267 210 280 227 280 c 0
 244 280 257 267 257 250 c 0
150 250 m 0
 150 233 137 220 120 220 c 0
 103 220 90 233 90 250 c 0
 90 267 103 280 120 280 c 0
 137 280 150 267 150 250 c 0
150 333 m 0
 150 316 137 303 120 303 c 0
 103 303 90 316 90 333 c 0
 90 350 103 363 120 363 c 0
 137 363 150 350 150 333 c 0
150 417 m 0
 150 400 137 387 120 387 c 0
 103 387 90 400 90 417 c 0
 90 434 103 447 120 447 c 0
 137 447 150 434 150 417 c 0
150 500 m 0
 150 483 137 470 120 470 c 0
 103 470 90 483 90 500 c 0
 90 517 103 530 120 530 c 0
 137 530 150 517 150 500 c 0
150 583 m 0
 150 566 137 553 120 553 c 0
 103 553 90 566 90 583 c 0
 90 600 103 613 120 613 c 0
 137 613 150 600 150 583 c 0
150 667 m 0
 150 650 137 637 120 637 c 0
 103 637 90 650 90 667 c 0
 90 684 103 697 120 697 c 0
 137 697 150 684 150 667 c 0
150 750 m 0
 150 733 137 720 120 720 c 0
 103 720 90 733 90 750 c 0
 90 767 103 780 120 780 c 0
 137 780 150 767 150 750 c 0
EndSplineSet
EndChar

StartChar: P
Encoding: 80 80 20
Width: 600
VWidth: 0
UnlinkRmOvrlpSave: 1
Flags: W
HStem: 220 60<91.1064 148.894> 303 60<91.1064 148.894> 387 60<91.1064 148.894> 470 60<91.1064 148.894 198.106 255.894 304.106 361.894> 553 60<91.1064 148.894 411.106 468.894> 637 60<91.1064 148.894 411.106 468.894> 720 60<91.1064 148.894 198.106 255.894 304.106 361.894>
VStem: 90 60<221.106 278.894 304.106 361.894 388.106 445.894 471.106 528.894 554.106 611.894 638.106 695.894 721.106 778.894> 197 60<471.106 528.894 721.106 778.894> 303 60<471.106 528.894 721.106 778.894> 410 60<554.106 611.894 638.106 695.894>
LayerCount: 2
Back
Fore
SplineSet
150 250 m 0
 150 233 137 220 120 220 c 0
 103 220 90 233 90 250 c 0
 90 267 103 280 120 280 c 0
 137 280 150 267 150 250 c 0
150 333 m 0
 150 316 137 303 120 303 c 0
 103 303 90 316 90 333 c 0
 90 350 103 363 120 363 c 0
 137 363 150 350 150 333 c 0
150 417 m 0
 150 400 137 387 120 387 c 0
 103 387 90 400 90 417 c 0
 90 434 103 447 120 447 c 0
 137 447 150 434 150 417 c 0
363 500 m 0
 363 483 350 470 333 470 c 0
 316 470 303 483 303 500 c 0
 303 517 316 530 333 530 c 0
 350 530 363 517 363 500 c 0
257 500 m 0
 257 483 244 470 227 470 c 0
 210 470 197 483 197 500 c 0
 197 517 210 530 227 530 c 0
 244 530 257 517 257 500 c 0
150 500 m 0
 150 483 137 470 120 470 c 0
 103 470 90 483 90 500 c 0
 90 517 103 530 120 530 c 0
 137 530 150 517 150 500 c 0
470 583 m 0
 470 566 457 553 440 553 c 0
 423 553 410 566 410 583 c 0
 410 600 423 613 440 613 c 0
 457 613 470 600 470 583 c 0
150 583 m 0
 150 566 137 553 120 553 c 0
 103 553 90 566 90 583 c 0
 90 600 103 613 120 613 c 0
 137 613 150 600 150 583 c 0
470 667 m 0
 470 650 457 637 440 637 c 0
 423 637 410 650 410 667 c 0
 410 684 423 697 440 697 c 0
 457 697 470 684 470 667 c 0
150 667 m 0
 150 650 137 637 120 637 c 0
 103 637 90 650 90 667 c 0
 90 684 103 697 120 697 c 0
 137 697 150 684 150 667 c 0
363 750 m 0
 363 733 350 720 333 720 c 0
 316 720 303 733 303 750 c 0
 303 767 316 780 333 780 c 0
 350 780 363 767 363 750 c 0
257 750 m 0
 257 733 244 720 227 720 c 0
 210 720 197 733 197 750 c 0
 197 767 210 780 227 780 c 0
 244 780 257 767 257 750 c 0
150 750 m 0
 150 733 137 720 120 720 c 0
 103 720 90 733 90 750 c 0
 90 767 103 780 120 780 c 0
 137 780 150 767 150 750 c 0
EndSplineSet
EndChar

StartChar: T
Encoding: 84 84 21
Width: 600
VWidth: 0
UnlinkRmOvrlpSave: 1
Flags: W
HStem: 220 60<251.106 308.894> 303 60<251.106 308.894> 387 60<251.106 308.894> 470 60<251.106 308.894> 553 60<251.106 308.894> 637 60<251.106 308.894> 720 60<91.1064 148.894 198.106 255.894 304.106 361.894 411.106 468.894>
VStem: 90 60<721.106 778.894> 197 60<721.106 778.894> 250 60<221.106 278.894 304.106 361.894 388.106 445.894 471.106 528.894 554.106 611.894 638.106 695.894> 303 60<721.106 778.894> 410 60<721.106 778.894>
LayerCount: 2
Back
Fore
SplineSet
310 250 m 0xff50
 310 233 297 220 280 220 c 0
 263 220 250 233 250 250 c 0
 250 267 263 280 280 280 c 0
 297 280 310 267 310 250 c 0xff50
310 333 m 0
 310 316 297 303 280 303 c 0
 263 303 250 316 250 333 c 0
 250 350 263 363 280 363 c 0
 297 363 310 350 310 333 c 0
310 417 m 0
 310 400 297 387 280 387 c 0
 263 387 250 400 250 417 c 0
 250 434 263 447 280 447 c 0
 297 447 310 434 310 417 c 0
310 500 m 0
 310 483 297 470 280 470 c 0
 263 470 250 483 250 500 c 0
 250 517 263 530 280 530 c 0
 297 530 310 517 310 500 c 0
310 583 m 0
 310 566 297 553 280 553 c 0
 263 553 250 566 250 583 c 0
 250 600 263 613 280 613 c 0
 297 613 310 600 310 583 c 0
310 667 m 0
 310 650 297 637 280 637 c 0
 263 637 250 650 250 667 c 0
 250 684 263 697 280 697 c 0
 297 697 310 684 310 667 c 0
470 750 m 0
 470 733 457 720 440 720 c 0
 423 720 410 733 410 750 c 0
 410 767 423 780 440 780 c 0
 457 780 470 767 470 750 c 0
363 750 m 0xff30
 363 733 350 720 333 720 c 0
 316 720 303 733 303 750 c 0
 303 767 316 780 333 780 c 0
 350 780 363 767 363 750 c 0xff30
257 750 m 0xff90
 257 733 244 720 227 720 c 0
 210 720 197 733 197 750 c 0
 197 767 210 780 227 780 c 0
 244 780 257 767 257 750 c 0xff90
150 750 m 0
 150 733 137 720 120 720 c 0
 103 720 90 733 90 750 c 0
 90 767 103 780 120 780 c 0
 137 780 150 767 150 750 c 0
EndSplineSet
EndChar

StartChar: multiply
Encoding: 215 215 22
Width: 600
VWidth: 0
UnlinkRmOvrlpSave: 1
Flags: W
HStem: 303 60<91.1064 148.894 305.106 362.894> 387 60<145.106 202.894 251.106 308.894> 470 60<198.106 255.894> 553 60<145.106 202.894 251.106 308.894> 637 60<91.1064 148.894 305.106 362.894>
VStem: 90 60<304.106 361.894 638.106 695.894> 144 60<388.106 445.894 554.106 611.894> 197 60<471.106 528.894> 250 60<388.106 445.894 554.106 611.894> 304 60<304.106 361.894 638.106 695.894>
LayerCount: 2
Back
Fore
SplineSet
364 333 m 0xf840
 364 316 351 303 334 303 c 0
 317 303 304 316 304 333 c 0
 304 350 317 363 334 363 c 0
 351 363 364 350 364 333 c 0xf840
150 333 m 0xfc
 150 316 137 303 120 303 c 0
 103 303 90 316 90 333 c 0
 90 350 103 363 120 363 c 0
 137 363 150 350 150 333 c 0xfc
310 417 m 0xf880
 310 400 297 387 280 387 c 0
 263 387 250 400 250 417 c 0
 250 434 263 447 280 447 c 0
 297 447 310 434 310 417 c 0xf880
204 417 m 0xfa
 204 400 191 387 174 387 c 0
 157 387 144 400 144 417 c 0
 144 434 157 447 174 447 c 0
 191 447 204 434 204 417 c 0xfa
257 500 m 0xf9
 257 483 244 470 227 470 c 0
 210 470 197 483 197 500 c 0
 197 517 210 530 227 530 c 0
 244 530 257 517 257 500 c 0xf9
310 583 m 0xf880
 310 566 297 553 280 553 c 0
 263 553 250 566 250 583 c 0
 250 600 263 613 280 613 c 0
 297 613 310 600 310 583 c 0xf880
204 583 m 0xfa
 204 566 191 553 174 553 c 0
 157 553 144 566 144 583 c 0
 144 600 157 613 174 613 c 0
 191 613 204 600 204 583 c 0xfa
364 667 m 0xf840
 364 650 351 637 334 637 c 0
 317 637 304 650 304 667 c 0
 304 684 317 697 334 697 c 0
 351 697 364 684 364 667 c 0xf840
150 667 m 0xfc
 150 650 137 637 120 637 c 0
 103 637 90 650 90 667 c 0
 90 684 103 697 120 697 c 0
 137 697 150 684 150 667 c 0xfc
EndSplineSet
EndChar

StartChar: X
Encoding: 88 88 23
Width: 600
VWidth: 0
UnlinkRmOvrlpSave: 1
Flags: W
HStem: 220 60<91.1064 148.894 411.106 468.894> 303 60<144.106 201.894 358.106 415.894> 387 60<198.106 255.894 304.106 361.894> 470 60<251.106 308.894> 553 60<198.106 255.894 304.106 361.894> 637 60<144.106 201.894 358.106 415.894> 720 60<91.1064 148.894 411.106 468.894>
VStem: 90 60<221.106 278.894 721.106 778.894> 143 60<304.106 361.894 638.106 695.894> 197 60<388.106 445.894 554.106 611.894> 250 60<471.106 528.894> 303 60<388.106 445.894 554.106 611.894> 357 60<304.106 361.894 638.106 695.894> 410 60<221.106 278.894 721.106 778.894>
LayerCount: 2
Back
Fore
SplineSet
470 250 m 0xfe04
 470 233 457 220 440 220 c 0
 423 220 410 233 410 250 c 0
 410 267 423 280 440 280 c 0
 457 280 470 267 470 250 c 0xfe04
150 250 m 0xff
 150 233 137 220 120 220 c 0
 103 220 90 233 90 250 c 0
 90 267 103 280 120 280 c 0
 137 280 150 267 150 250 c 0xff
417 333 m 0xfe08
 417 316 404 303 387 303 c 0
 370 303 357 316 357 333 c 0
 357 350 370 363 387 363 c 0
 404 363 417 350 417 333 c 0xfe08
203 333 m 0xfe80
 203 316 190 303 173 303 c 0
 156 303 143 316 143 333 c 0
 143 350 156 363 173 363 c 0
 190 363 203 350 203 333 c 0xfe80
363 417 m 0xfe10
 363 400 350 387 333 387 c 0
 316 387 303 400 303 417 c 0
 303 434 316 447 333 447 c 0
 350 447 363 434 363 417 c 0xfe10
257 417 m 0xfe40
 257 400 244 387 227 387 c 0
 210 387 197 400 197 417 c 0
 197 434 210 447 227 447 c 0
 244 447 257 434 257 417 c 0xfe40
310 500 m 0xfe20
 310 483 297 470 280 470 c 0
 263 470 250 483 250 500 c 0
 250 517 263 530 280 530 c 0
 297 530 310 517 310 500 c 0xfe20
363 583 m 0xfe10
 363 566 350 553 333 553 c 0
 316 553 303 566 303 583 c 0
 303 600 316 613 333 613 c 0
 350 613 363 600 363 583 c 0xfe10
257 583 m 0xfe40
 257 566 244 553 227 553 c 0
 210 553 197 566 197 583 c 0
 197 600 210 613 227 613 c 0
 244 613 257 600 257 583 c 0xfe40
417 667 m 0xfe08
 417 650 404 637 387 637 c 0
 370 637 357 650 357 667 c 0
 357 684 370 697 387 697 c 0
 404 697 417 684 417 667 c 0xfe08
203 667 m 0xfe80
 203 650 190 637 173 637 c 0
 156 637 143 650 143 667 c 0
 143 684 156 697 173 697 c 0
 190 697 203 684 203 667 c 0xfe80
470 750 m 0xfe04
 470 733 457 720 440 720 c 0
 423 720 410 733 410 750 c 0
 410 767 423 780 440 780 c 0
 457 780 470 767 470 750 c 0xfe04
150 750 m 0xff
 150 733 137 720 120 720 c 0
 103 720 90 733 90 750 c 0
 90 767 103 780 120 780 c 0
 137 780 150 767 150 750 c 0xff
EndSplineSet
EndChar

StartChar: backslash
Encoding: 92 92 24
Width: 600
VWidth: 0
UnlinkRmOvrlpSave: 1
Flags: W
HStem: 220 60<411.106 468.894> 303 60<358.106 415.894> 387 60<304.106 361.894> 470 60<251.106 308.894> 553 60<198.106 255.894> 637 60<144.106 201.894> 720 60<91.1064 148.894>
VStem: 90 60<721.106 778.894> 143 60<638.106 695.894> 197 60<554.106 611.894> 250 60<471.106 528.894> 303 60<388.106 445.894> 357 60<304.106 361.894> 410 60<221.106 278.894>
LayerCount: 2
Back
Fore
SplineSet
470 250 m 0xfe04
 470 233 457 220 440 220 c 0
 423 220 410 233 410 250 c 0
 410 267 423 280 440 280 c 0
 457 280 470 267 470 250 c 0xfe04
417 333 m 0xfe08
 417 316 404 303 387 303 c 0
 370 303 357 316 357 333 c 0
 357 350 370 363 387 363 c 0
 404 363 417 350 417 333 c 0xfe08
363 417 m 0xfe10
 363 400 350 387 333 387 c 0
 316 387 303 400 303 417 c 0
 303 434 316 447 333 447 c 0
 350 447 363 434 363 417 c 0xfe10
310 500 m 0xfe20
 310 483 297 470 280 470 c 0
 263 470 250 483 250 500 c 0
 250 517 263 530 280 530 c 0
 297 530 310 517 310 500 c 0xfe20
257 583 m 0xfe40
 257 566 244 553 227 553 c 0
 210 553 197 566 197 583 c 0
 197 600 210 613 227 613 c 0
 244 613 257 600 257 583 c 0xfe40
203 667 m 0xfe80
 203 650 190 637 173 637 c 0
 156 637 143 650 143 667 c 0
 143 684 156 697 173 697 c 0
 190 697 203 684 203 667 c 0xfe80
150 750 m 0xff
 150 733 137 720 120 720 c 0
 103 720 90 733 90 750 c 0
 90 767 103 780 120 780 c 0
 137 780 150 767 150 750 c 0xff
EndSplineSet
EndChar

StartChar: germandbls
Encoding: 223 223 25
Width: 600
VWidth: 0
UnlinkRmOvrlpSave: 1
Flags: W
HStem: 220 60<91.1064 148.894 251.106 308.894 358.106 415.894> 303 60<91.1064 148.894 411.106 468.894> 387 60<91.1064 148.894 411.106 468.894> 470 60<91.1064 148.894 198.106 255.894 304.106 361.894> 553 60<91.1064 148.894 251.106 308.894> 637 60<91.1064 148.894 304.106 361.894> 720 60<144.106 201.894 251.106 308.894>
VStem: 90 60<221.106 278.894 304.106 361.894 388.106 445.894 471.106 528.894 554.106 611.894 638.106 695.894> 143 60<721.106 778.894> 197 60<471.106 528.894> 250 60<221.106 278.894 554.106 611.894 721.106 778.894> 303 60<471.106 528.894 638.106 695.894> 357 60<221.106 278.894> 410 60<304.106 361.894 388.106 445.894>
LayerCount: 2
Back
Fore
SplineSet
417 250 m 0xfe08
 417 233 404 220 387 220 c 0
 370 220 357 233 357 250 c 0
 357 267 370 280 387 280 c 0
 404 280 417 267 417 250 c 0xfe08
310 250 m 0xfe20
 310 233 297 220 280 220 c 0
 263 220 250 233 250 250 c 0
 250 267 263 280 280 280 c 0
 297 280 310 267 310 250 c 0xfe20
150 250 m 0xff
 150 233 137 220 120 220 c 0
 103 220 90 233 90 250 c 0
 90 267 103 280 120 280 c 0
 137 280 150 267 150 250 c 0xff
470 333 m 0xfe04
 470 316 457 303 440 303 c 0
 423 303 410 316 410 333 c 0
 410 350 423 363 440 363 c 0
 457 363 470 350 470 333 c 0xfe04
150 333 m 0xff
 150 316 137 303 120 303 c 0
 103 303 90 316 90 333 c 0
 90 350 103 363 120 363 c 0
 137 363 150 350 150 333 c 0xff
470 417 m 0xfe04
 470 400 457 387 440 387 c 0
 423 387 410 400 410 417 c 0
 410 434 423 447 440 447 c 0
 457 447 470 434 470 417 c 0xfe04
150 417 m 0xff
 150 400 137 387 120 387 c 0
 103 387 90 400 90 417 c 0
 90 434 103 447 120 447 c 0
 137 447 150 434 150 417 c 0xff
363 500 m 0xfe10
 363 483 350 470 333 470 c 0
 316 470 303 483 303 500 c 0
 303 517 316 530 333 530 c 0
 350 530 363 517 363 500 c 0xfe10
257 500 m 0xfe40
 257 483 244 470 227 470 c 0
 210 470 197 483 197 500 c 0
 197 517 210 530 227 530 c 0
 244 530 257 517 257 500 c 0xfe40
150 500 m 0xff
 150 483 137 470 120 470 c 0
 103 470 90 483 90 500 c 0
 90 517 103 530 120 530 c 0
 137 530 150 517 150 500 c 0xff
310 583 m 0xfe20
 310 566 297 553 280 553 c 0
 263 553 250 566 250 583 c 0
 250 600 263 613 280 613 c 0
 297 613 310 600 310 583 c 0xfe20
150 583 m 0xff
 150 566 137 553 120 553 c 0
 103 553 90 566 90 583 c 0
 90 600 103 613 120 613 c 0
 137 613 150 600 150 583 c 0xff
363 667 m 0xfe10
 363 650 350 637 333 637 c 0
 316 637 303 650 303 667 c 0
 303 684 316 697 333 697 c 0
 350 697 363 684 363 667 c 0xfe10
150 667 m 0xff
 150 650 137 637 120 637 c 0
 103 637 90 650 90 667 c 0
 90 684 103 697 120 697 c 0
 137 697 150 684 150 667 c 0xff
310 750 m 0xfe20
 310 733 297 720 280 720 c 0
 263 720 250 733 250 750 c 0
 250 767 263 780 280 780 c 0
 297 780 310 767 310 750 c 0xfe20
203 750 m 0xfe80
 203 733 190 720 173 720 c 0
 156 720 143 733 143 750 c 0
 143 767 156 780 173 780 c 0
 190 780 203 767 203 750 c 0xfe80
EndSplineSet
EndChar

StartChar: grave
Encoding: 96 96 26
Width: 600
VWidth: 0
UnlinkRmOvrlpSave: 1
Flags: W
HStem: 553 60<197.106 254.894> 637 60<144.106 201.894> 720 60<91.1064 148.894>
VStem: 90 60<721.106 778.894> 143 60<638.106 695.894> 196 60<554.106 611.894>
LayerCount: 2
Back
Fore
SplineSet
256 583 m 0xe4
 256 566 243 553 226 553 c 0
 209 553 196 566 196 583 c 0
 196 600 209 613 226 613 c 0
 243 613 256 600 256 583 c 0xe4
203 667 m 0xe8
 203 650 190 637 173 637 c 0
 156 637 143 650 143 667 c 0
 143 684 156 697 173 697 c 0
 190 697 203 684 203 667 c 0xe8
150 750 m 0xf0
 150 733 137 720 120 720 c 0
 103 720 90 733 90 750 c 0
 90 767 103 780 120 780 c 0
 137 780 150 767 150 750 c 0xf0
EndSplineSet
EndChar

StartChar: d
Encoding: 100 100 27
Width: 600
VWidth: 0
UnlinkRmOvrlpSave: 1
Flags: W
HStem: 220 60<198.106 255.894 304.106 361.894 411.106 468.894> 303 60<91.1064 148.894 411.106 468.894> 387 60<91.1064 148.894 411.106 468.894> 470 60<91.1064 148.894 411.106 468.894> 553 60<144.106 201.894 251.106 308.894 358.106 415.894> 637 60<411.106 468.894> 720 60<411.106 468.894>
VStem: 90 60<304.106 361.894 388.106 445.894 471.106 528.894> 143 60<554.106 611.894> 197 60<221.106 278.894> 250 60<554.106 611.894> 303 60<221.106 278.894> 357 60<554.106 611.894> 410 60<221.106 278.894 304.106 361.894 388.106 445.894 471.106 528.894 638.106 695.894 721.106 778.894>
LayerCount: 2
Back
Fore
SplineSet
470 250 m 0xfe04
 470 233 457 220 440 220 c 0
 423 220 410 233 410 250 c 0
 410 267 423 280 440 280 c 0
 457 280 470 267 470 250 c 0xfe04
363 250 m 0xfe10
 363 233 350 220 333 220 c 0
 316 220 303 233 303 250 c 0
 303 267 316 280 333 280 c 0
 350 280 363 267 363 250 c 0xfe10
257 250 m 0xfe40
 257 233 244 220 227 220 c 0
 210 220 197 233 197 250 c 0
 197 267 210 280 227 280 c 0
 244 280 257 267 257 250 c 0xfe40
470 333 m 0xfe04
 470 316 457 303 440 303 c 0
 423 303 410 316 410 333 c 0
 410 350 423 363 440 363 c 0
 457 363 470 350 470 333 c 0xfe04
150 333 m 0xff
 150 316 137 303 120 303 c 0
 103 303 90 316 90 333 c 0
 90 350 103 363 120 363 c 0
 137 363 150 350 150 333 c 0xff
470 417 m 0xfe04
 470 400 457 387 440 387 c 0
 423 387 410 400 410 417 c 0
 410 434 423 447 440 447 c 0
 457 447 470 434 470 417 c 0xfe04
150 417 m 0xff
 150 400 137 387 120 387 c 0
 103 387 90 400 90 417 c 0
 90 434 103 447 120 447 c 0
 137 447 150 434 150 417 c 0xff
470 500 m 0xfe04
 470 483 457 470 440 470 c 0
 423 470 410 483 410 500 c 0
 410 517 423 530 440 530 c 0
 457 530 470 517 470 500 c 0xfe04
150 500 m 0xff
 150 483 137 470 120 470 c 0
 103 470 90 483 90 500 c 0
 90 517 103 530 120 530 c 0
 137 530 150 517 150 500 c 0xff
417 583 m 0xfe08
 417 566 404 553 387 553 c 0
 370 553 357 566 357 583 c 0
 357 600 370 613 387 613 c 0
 404 613 417 600 417 583 c 0xfe08
310 583 m 0xfe20
 310 566 297 553 280 553 c 0
 263 553 250 566 250 583 c 0
 250 600 263 613 280 613 c 0
 297 613 310 600 310 583 c 0xfe20
203 583 m 0xfe80
 203 566 190 553 173 553 c 0
 156 553 143 566 143 583 c 0
 143 600 156 613 173 613 c 0
 190 613 203 600 203 583 c 0xfe80
470 667 m 0xfe04
 470 650 457 637 440 637 c 0
 423 637 410 650 410 667 c 0
 410 684 423 697 440 697 c 0
 457 697 470 684 470 667 c 0xfe04
470 750 m 0
 470 733 457 720 440 720 c 0
 423 720 410 733 410 750 c 0
 410 767 423 780 440 780 c 0
 457 780 470 767 470 750 c 0
EndSplineSet
EndChar

StartChar: ccedilla
Encoding: 231 231 28
Width: 600
VWidth: 0
UnlinkRmOvrlpSave: 1
Flags: W
HStem: 220 60<251.106 308.894> 303 60<144.106 201.894 251.106 308.894 358.106 415.894> 387 60<91.1064 148.894> 470 60<91.1064 148.894> 553 60<91.1064 148.894 411.106 468.894> 637 60<144.106 201.894 251.106 308.894 358.106 415.894>
VStem: 90 60<388.106 445.894 471.106 528.894 554.106 611.894> 143 60<304.106 361.894 638.106 695.894> 250 60<221.106 278.894 304.106 361.894 638.106 695.894> 357 60<304.106 361.894 638.106 695.894> 410 60<554.106 611.894>
LayerCount: 2
Back
Fore
SplineSet
310 250 m 0xfc80
 310 233 297 220 280 220 c 0
 263 220 250 233 250 250 c 0
 250 267 263 280 280 280 c 0
 297 280 310 267 310 250 c 0xfc80
417 333 m 0xfcc0
 417 316 404 303 387 303 c 0
 370 303 357 316 357 333 c 0
 357 350 370 363 387 363 c 0
 404 363 417 350 417 333 c 0xfcc0
310 333 m 0
 310 316 297 303 280 303 c 0
 263 303 250 316 250 333 c 0
 250 350 263 363 280 363 c 0
 297 363 310 350 310 333 c 0
203 333 m 0xfd80
 203 316 190 303 173 303 c 0
 156 303 143 316 143 333 c 0
 143 350 156 363 173 363 c 0
 190 363 203 350 203 333 c 0xfd80
150 417 m 0xfe80
 150 400 137 387 120 387 c 0
 103 387 90 400 90 417 c 0
 90 434 103 447 120 447 c 0
 137 447 150 434 150 417 c 0xfe80
150 500 m 0
 150 483 137 470 120 470 c 0
 103 470 90 483 90 500 c 0
 90 517 103 530 120 530 c 0
 137 530 150 517 150 500 c 0
470 583 m 0xfca0
 470 566 457 553 440 553 c 0
 423 553 410 566 410 583 c 0
 410 600 423 613 440 613 c 0
 457 613 470 600 470 583 c 0xfca0
150 583 m 0xfe80
 150 566 137 553 120 553 c 0
 103 553 90 566 90 583 c 0
 90 600 103 613 120 613 c 0
 137 613 150 600 150 583 c 0xfe80
417 667 m 0xfcc0
 417 650 404 637 387 637 c 0
 370 637 357 650 357 667 c 0
 357 684 370 697 387 697 c 0
 404 697 417 684 417 667 c 0xfcc0
310 667 m 0
 310 650 297 637 280 637 c 0
 263 637 250 650 250 667 c 0
 250 684 263 697 280 697 c 0
 297 697 310 684 310 667 c 0
203 667 m 0xfd80
 203 650 190 637 173 637 c 0
 156 637 143 650 143 667 c 0
 143 684 156 697 173 697 c 0
 190 697 203 684 203 667 c 0xfd80
EndSplineSet
EndChar

StartChar: h
Encoding: 104 104 29
Width: 600
VWidth: 0
UnlinkRmOvrlpSave: 1
Flags: W
HStem: 220 60<91.1064 148.894 411.106 468.894> 303 60<91.1064 148.894 411.106 468.894> 387 60<91.1064 148.894 411.106 468.894> 470 60<91.1064 148.894 411.106 468.894> 553 60<144.106 201.894 251.106 308.894 358.106 415.894> 637 60<91.1064 148.894> 720 60<91.1064 148.894>
VStem: 90 60<221.106 278.894 304.106 361.894 388.106 445.894 471.106 528.894 638.106 695.894 721.106 778.894> 143 60<554.106 611.894> 250 60<554.106 611.894> 357 60<554.106 611.894> 410 60<221.106 278.894 304.106 361.894 388.106 445.894 471.106 528.894>
LayerCount: 2
Back
Fore
SplineSet
470 250 m 0xfe50
 470 233 457 220 440 220 c 0
 423 220 410 233 410 250 c 0
 410 267 423 280 440 280 c 0
 457 280 470 267 470 250 c 0xfe50
150 250 m 0xff40
 150 233 137 220 120 220 c 0
 103 220 90 233 90 250 c 0
 90 267 103 280 120 280 c 0
 137 280 150 267 150 250 c 0xff40
470 333 m 0xfe50
 470 316 457 303 440 303 c 0
 423 303 410 316 410 333 c 0
 410 350 423 363 440 363 c 0
 457 363 470 350 470 333 c 0xfe50
150 333 m 0xff40
 150 316 137 303 120 303 c 0
 103 303 90 316 90 333 c 0
 90 350 103 363 120 363 c 0
 137 363 150 350 150 333 c 0xff40
470 417 m 0xfe50
 470 400 457 387 440 387 c 0
 423 387 410 400 410 417 c 0
 410 434 423 447 440 447 c 0
 457 447 470 434 470 417 c 0xfe50
150 417 m 0xff40
 150 400 137 387 120 387 c 0
 103 387 90 400 90 417 c 0
 90 434 103 447 120 447 c 0
 137 447 150 434 150 417 c 0xff40
470 500 m 0xfe50
 470 483 457 470 440 470 c 0
 423 470 410 483 410 500 c 0
 410 517 423 530 440 530 c 0
 457 530 470 517 470 500 c 0xfe50
150 500 m 0xff40
 150 483 137 470 120 470 c 0
 103 470 90 483 90 500 c 0
 90 517 103 530 120 530 c 0
 137 530 150 517 150 500 c 0xff40
417 583 m 0xfe60
 417 566 404 553 387 553 c 0
 370 553 357 566 357 583 c 0
 357 600 370 613 387 613 c 0
 404 613 417 600 417 583 c 0xfe60
310 583 m 0
 310 566 297 553 280 553 c 0
 263 553 250 566 250 583 c 0
 250 600 263 613 280 613 c 0
 297 613 310 600 310 583 c 0
203 583 m 0xfec0
 203 566 190 553 173 553 c 0
 156 553 143 566 143 583 c 0
 143 600 156 613 173 613 c 0
 190 613 203 600 203 583 c 0xfec0
150 667 m 0xff40
 150 650 137 637 120 637 c 0
 103 637 90 650 90 667 c 0
 90 684 103 697 120 697 c 0
 137 697 150 684 150 667 c 0xff40
150 750 m 0
 150 733 137 720 120 720 c 0
 103 720 90 733 90 750 c 0
 90 767 103 780 120 780 c 0
 137 780 150 767 150 750 c 0
EndSplineSet
EndChar

StartChar: edieresis
Encoding: 235 235 30
Width: 600
VWidth: 0
UnlinkRmOvrlpSave: 1
Flags: W
HStem: 220 60<144.106 201.894 251.106 308.894 358.106 415.894> 303 60<91.1064 148.894> 387 60<91.1064 148.894 198.106 255.894 304.106 361.894 411.106 468.894> 470 60<91.1064 148.894 411.106 468.894> 553 60<144.106 201.894 251.106 308.894 358.106 415.894> 720 60<144.106 201.894 358.106 415.894>
VStem: 90 60<304.106 361.894 388.106 445.894 471.106 528.894> 143 60<221.106 278.894 554.106 611.894 721.106 778.894> 197 60<388.106 445.894> 250 60<221.106 278.894 554.106 611.894> 303 60<388.106 445.894> 357 60<221.106 278.894 554.106 611.894 721.106 778.894> 410 60<388.106 445.894 471.106 528.894>
LayerCount: 2
Back
Fore
SplineSet
417 250 m 0xfc10
 417 233 404 220 387 220 c 0
 370 220 357 233 357 250 c 0
 357 267 370 280 387 280 c 0
 404 280 417 267 417 250 c 0xfc10
310 250 m 0xfc40
 310 233 297 220 280 220 c 0
 263 220 250 233 250 250 c 0
 250 267 263 280 280 280 c 0
 297 280 310 267 310 250 c 0xfc40
203 250 m 0xfd
 203 233 190 220 173 220 c 0
 156 220 143 233 143 250 c 0
 143 267 156 280 173 280 c 0
 190 280 203 267 203 250 c 0xfd
150 333 m 0xfe
 150 316 137 303 120 303 c 0
 103 303 90 316 90 333 c 0
 90 350 103 363 120 363 c 0
 137 363 150 350 150 333 c 0xfe
470 417 m 0xfc08
 470 400 457 387 440 387 c 0
 423 387 410 400 410 417 c 0
 410 434 423 447 440 447 c 0
 457 447 470 434 470 417 c 0xfc08
363 417 m 0xfc20
 363 400 350 387 333 387 c 0
 316 387 303 400 303 417 c 0
 303 434 316 447 333 447 c 0
 350 447 363 434 363 417 c 0xfc20
257 417 m 0xfc80
 257 400 244 387 227 387 c 0
 210 387 197 400 197 417 c 0
 197 434 210 447 227 447 c 0
 244 447 257 434 257 417 c 0xfc80
150 417 m 0xfe
 150 400 137 387 120 387 c 0
 103 387 90 400 90 417 c 0
 90 434 103 447 120 447 c 0
 137 447 150 434 150 417 c 0xfe
470 500 m 0xfc08
 470 483 457 470 440 470 c 0
 423 470 410 483 410 500 c 0
 410 517 423 530 440 530 c 0
 457 530 470 517 470 500 c 0xfc08
150 500 m 0xfe
 150 483 137 470 120 470 c 0
 103 470 90 483 90 500 c 0
 90 517 103 530 120 530 c 0
 137 530 150 517 150 500 c 0xfe
417 583 m 0xfc10
 417 566 404 553 387 553 c 0
 370 553 357 566 357 583 c 0
 357 600 370 613 387 613 c 0
 404 613 417 600 417 583 c 0xfc10
310 583 m 0xfc40
 310 566 297 553 280 553 c 0
 263 553 250 566 250 583 c 0
 250 600 263 613 280 613 c 0
 297 613 310 600 310 583 c 0xfc40
203 583 m 0xfd
 203 566 190 553 173 553 c 0
 156 553 143 566 143 583 c 0
 143 600 156 613 173 613 c 0
 190 613 203 600 203 583 c 0xfd
417 750 m 0xfc10
 417 733 404 720 387 720 c 0
 370 720 357 733 357 750 c 0
 357 767 370 780 387 780 c 0
 404 780 417 767 417 750 c 0xfc10
203 750 m 0xfd
 203 733 190 720 173 720 c 0
 156 720 143 733 143 750 c 0
 143 767 156 780 173 780 c 0
 190 780 203 767 203 750 c 0xfd
EndSplineSet
EndChar

StartChar: l
Encoding: 108 108 31
Width: 600
VWidth: 0
UnlinkRmOvrlpSave: 1
Flags: W
HStem: 220 60<91.1064 148.894 198.106 255.894 305.106 362.894> 303 60<198.106 255.894> 387 60<198.106 255.894> 470 60<198.106 255.894> 553 60<198.106 255.894> 637 60<198.106 255.894> 720 60<91.1064 148.894 198.106 255.894>
VStem: 90 60<221.106 278.894 721.106 778.894> 197 60<221.106 278.894 304.106 361.894 388.106 445.894 471.106 528.894 554.106 611.894 638.106 695.894 721.106 778.894> 304 60<221.106 278.894>
CounterMasks: 1 01c0
LayerCount: 2
Back
Fore
SplineSet
364 250 m 0
 364 233 351 220 334 220 c 0
 317 220 304 233 304 250 c 0
 304 267 317 280 334 280 c 0
 351 280 364 267 364 250 c 0
257 250 m 0
 257 233 244 220 227 220 c 0
 210 220 197 233 197 250 c 0
 197 267 210 280 227 280 c 0
 244 280 257 267 257 250 c 0
150 250 m 0
 150 233 137 220 120 220 c 0
 103 220 90 233 90 250 c 0
 90 267 103 280 120 280 c 0
 137 280 150 267 150 250 c 0
257 333 m 0
 257 316 244 303 227 303 c 0
 210 303 197 316 197 333 c 0
 197 350 210 363 227 363 c 0
 244 363 257 350 257 333 c 0
257 417 m 0
 257 400 244 387 227 387 c 0
 210 387 197 400 197 417 c 0
 197 434 210 447 227 447 c 0
 244 447 257 434 257 417 c 0
257 500 m 0
 257 483 244 470 227 470 c 0
 210 470 197 483 197 500 c 0
 197 517 210 530 227 530 c 0
 244 530 257 517 257 500 c 0
257 583 m 0
 257 566 244 553 227 553 c 0
 210 553 197 566 197 583 c 0
 197 600 210 613 227 613 c 0
 244 613 257 600 257 583 c 0
257 667 m 0
 257 650 244 637 227 637 c 0
 210 637 197 650 197 667 c 0
 197 684 210 697 227 697 c 0
 244 697 257 684 257 667 c 0
257 750 m 0
 257 733 244 720 227 720 c 0
 210 720 197 733 197 750 c 0
 197 767 210 780 227 780 c 0
 244 780 257 767 257 750 c 0
150 750 m 0
 150 733 137 720 120 720 c 0
 103 720 90 733 90 750 c 0
 90 767 103 780 120 780 c 0
 137 780 150 767 150 750 c 0
EndSplineSet
EndChar

StartChar: p
Encoding: 112 112 32
Width: 600
VWidth: 0
UnlinkRmOvrlpSave: 1
Flags: W
HStem: 220 60<91.1064 148.894> 303 60<91.1064 148.894> 387 60<144.106 201.894 251.106 308.894 358.106 415.894> 470 60<91.1064 148.894 411.106 468.894> 553 60<91.1064 148.894 198.106 255.894 304.106 361.894>
VStem: 90 60<221.106 278.894 304.106 361.894 471.106 528.894 554.106 611.894> 143 60<388.106 445.894> 197 60<554.106 611.894> 250 60<388.106 445.894> 303 60<554.106 611.894> 357 60<388.106 445.894> 410 60<471.106 528.894>
LayerCount: 2
Back
Fore
SplineSet
150 250 m 0xfc
 150 233 137 220 120 220 c 0
 103 220 90 233 90 250 c 0
 90 267 103 280 120 280 c 0
 137 280 150 267 150 250 c 0xfc
150 333 m 0
 150 316 137 303 120 303 c 0
 103 303 90 316 90 333 c 0
 90 350 103 363 120 363 c 0
 137 363 150 350 150 333 c 0
417 417 m 0xf820
 417 400 404 387 387 387 c 0
 370 387 357 400 357 417 c 0
 357 434 370 447 387 447 c 0
 404 447 417 434 417 417 c 0xf820
310 417 m 0xf880
 310 400 297 387 280 387 c 0
 263 387 250 400 250 417 c 0
 250 434 263 447 280 447 c 0
 297 447 310 434 310 417 c 0xf880
203 417 m 0xfa
 203 400 190 387 173 387 c 0
 156 387 143 400 143 417 c 0
 143 434 156 447 173 447 c 0
 190 447 203 434 203 417 c 0xfa
470 500 m 0xf810
 470 483 457 470 440 470 c 0
 423 470 410 483 410 500 c 0
 410 517 423 530 440 530 c 0
 457 530 470 517 470 500 c 0xf810
150 500 m 0xfc
 150 483 137 470 120 470 c 0
 103 470 90 483 90 500 c 0
 90 517 103 530 120 530 c 0
 137 530 150 517 150 500 c 0xfc
363 583 m 0xf840
 363 566 350 553 333 553 c 0
 316 553 303 566 303 583 c 0
 303 600 316 613 333 613 c 0
 350 613 363 600 363 583 c 0xf840
257 583 m 0xf9
 257 566 244 553 227 553 c 0
 210 553 197 566 197 583 c 0
 197 600 210 613 227 613 c 0
 244 613 257 600 257 583 c 0xf9
150 583 m 0xfc
 150 566 137 553 120 553 c 0
 103 553 90 566 90 583 c 0
 90 600 103 613 120 613 c 0
 137 613 150 600 150 583 c 0xfc
EndSplineSet
EndChar

StartChar: t
Encoding: 116 116 33
Width: 600
VWidth: 0
UnlinkRmOvrlpSave: 1
Flags: W
HStem: 220 60<251.106 308.894 358.106 415.894> 303 60<198.106 255.894 411.106 468.894> 387 60<198.106 255.894> 470 60<198.106 255.894> 553 60<91.1064 148.894 198.106 255.894 304.106 361.894> 637 60<198.106 255.894> 720 60<198.106 255.894>
VStem: 90 60<554.106 611.894> 197 60<304.106 361.894 388.106 445.894 471.106 528.894 554.106 611.894 638.106 695.894 721.106 778.894> 250 60<221.106 278.894> 303 60<554.106 611.894> 357 60<221.106 278.894> 410 60<304.106 361.894>
LayerCount: 2
Back
Fore
SplineSet
417 250 m 0xff10
 417 233 404 220 387 220 c 0
 370 220 357 233 357 250 c 0
 357 267 370 280 387 280 c 0
 404 280 417 267 417 250 c 0xff10
310 250 m 0xff40
 310 233 297 220 280 220 c 0
 263 220 250 233 250 250 c 0
 250 267 263 280 280 280 c 0
 297 280 310 267 310 250 c 0xff40
470 333 m 0xff08
 470 316 457 303 440 303 c 0
 423 303 410 316 410 333 c 0
 410 350 423 363 440 363 c 0
 457 363 470 350 470 333 c 0xff08
257 333 m 0xff80
 257 316 244 303 227 303 c 0
 210 303 197 316 197 333 c 0
 197 350 210 363 227 363 c 0
 244 363 257 350 257 333 c 0xff80
257 417 m 0
 257 400 244 387 227 387 c 0
 210 387 197 400 197 417 c 0
 197 434 210 447 227 447 c 0
 244 447 257 434 257 417 c 0
257 500 m 0
 257 483 244 470 227 470 c 0
 210 470 197 483 197 500 c 0
 197 517 210 530 227 530 c 0
 244 530 257 517 257 500 c 0
363 583 m 0xff20
 363 566 350 553 333 553 c 0
 316 553 303 566 303 583 c 0
 303 600 316 613 333 613 c 0
 350 613 363 600 363 583 c 0xff20
257 583 m 0xff80
 257 566 244 553 227 553 c 0
 210 553 197 566 197 583 c 0
 197 600 210 613 227 613 c 0
 244 613 257 600 257 583 c 0xff80
150 583 m 0
 150 566 137 553 120 553 c 0
 103 553 90 566 90 583 c 0
 90 600 103 613 120 613 c 0
 137 613 150 600 150 583 c 0
257 667 m 0
 257 650 244 637 227 637 c 0
 210 637 197 650 197 667 c 0
 197 684 210 697 227 697 c 0
 244 697 257 684 257 667 c 0
257 750 m 0
 257 733 244 720 227 720 c 0
 210 720 197 733 197 750 c 0
 197 767 210 780 227 780 c 0
 244 780 257 767 257 750 c 0
EndSplineSet
EndChar

StartChar: divide
Encoding: 247 247 34
Width: 600
VWidth: 0
UnlinkRmOvrlpSave: 1
Flags: W
HStem: 303 60<251.106 308.894> 470 60<91.1064 148.894 198.106 255.894 304.106 361.894 411.106 468.894> 637 60<251.106 308.894>
VStem: 90 60<471.106 528.894> 197 60<471.106 528.894> 250 60<304.106 361.894 638.106 695.894> 303 60<471.106 528.894> 410 60<471.106 528.894>
CounterMasks: 1 e0
LayerCount: 2
Back
Fore
SplineSet
310 333 m 0xf5
 310 316 297 303 280 303 c 0
 263 303 250 316 250 333 c 0
 250 350 263 363 280 363 c 0
 297 363 310 350 310 333 c 0xf5
470 500 m 0
 470 483 457 470 440 470 c 0
 423 470 410 483 410 500 c 0
 410 517 423 530 440 530 c 0
 457 530 470 517 470 500 c 0
363 500 m 0xf3
 363 483 350 470 333 470 c 0
 316 470 303 483 303 500 c 0
 303 517 316 530 333 530 c 0
 350 530 363 517 363 500 c 0xf3
257 500 m 0xf9
 257 483 244 470 227 470 c 0
 210 470 197 483 197 500 c 0
 197 517 210 530 227 530 c 0
 244 530 257 517 257 500 c 0xf9
150 500 m 0
 150 483 137 470 120 470 c 0
 103 470 90 483 90 500 c 0
 90 517 103 530 120 530 c 0
 137 530 150 517 150 500 c 0
310 667 m 0xf5
 310 650 297 637 280 637 c 0
 263 637 250 650 250 667 c 0
 250 684 263 697 280 697 c 0
 297 697 310 684 310 667 c 0xf5
EndSplineSet
EndChar

StartChar: x
Encoding: 120 120 35
Width: 600
VWidth: 0
UnlinkRmOvrlpSave: 1
Flags: W
HStem: 220 60<91.1064 148.894 411.106 468.894> 303 60<144.106 201.894 358.106 415.894> 387 60<251.106 308.894> 470 60<144.106 201.894 358.106 415.894> 553 60<91.1064 148.894 411.106 468.894>
VStem: 90 60<221.106 278.894 554.106 611.894> 143 60<304.106 361.894 471.106 528.894> 250 60<388.106 445.894> 357 60<304.106 361.894 471.106 528.894> 410 60<221.106 278.894 554.106 611.894>
LayerCount: 2
Back
Fore
SplineSet
470 250 m 0xf940
 470 233 457 220 440 220 c 0
 423 220 410 233 410 250 c 0
 410 267 423 280 440 280 c 0
 457 280 470 267 470 250 c 0xf940
150 250 m 0xfd
 150 233 137 220 120 220 c 0
 103 220 90 233 90 250 c 0
 90 267 103 280 120 280 c 0
 137 280 150 267 150 250 c 0xfd
417 333 m 0xf980
 417 316 404 303 387 303 c 0
 370 303 357 316 357 333 c 0
 357 350 370 363 387 363 c 0
 404 363 417 350 417 333 c 0xf980
203 333 m 0xfb
 203 316 190 303 173 303 c 0
 156 303 143 316 143 333 c 0
 143 350 156 363 173 363 c 0
 190 363 203 350 203 333 c 0xfb
310 417 m 0
 310 400 297 387 280 387 c 0
 263 387 250 400 250 417 c 0
 250 434 263 447 280 447 c 0
 297 447 310 434 310 417 c 0
417 500 m 0xf980
 417 483 404 470 387 470 c 0
 370 470 357 483 357 500 c 0
 357 517 370 530 387 530 c 0
 404 530 417 517 417 500 c 0xf980
203 500 m 0xfb
 203 483 190 470 173 470 c 0
 156 470 143 483 143 500 c 0
 143 517 156 530 173 530 c 0
 190 530 203 517 203 500 c 0xfb
470 583 m 0xf940
 470 566 457 553 440 553 c 0
 423 553 410 566 410 583 c 0
 410 600 423 613 440 613 c 0
 457 613 470 600 470 583 c 0xf940
150 583 m 0xfd
 150 566 137 553 120 553 c 0
 103 553 90 566 90 583 c 0
 90 600 103 613 120 613 c 0
 137 613 150 600 150 583 c 0xfd
EndSplineSet
EndChar

StartChar: bar
Encoding: 124 124 36
Width: 600
VWidth: 0
UnlinkRmOvrlpSave: 1
Flags: W
HStem: 220 60<91.1064 148.894> 303 60<91.1064 148.894> 387 60<91.1064 148.894> 470 60<91.1064 148.894> 553 60<91.1064 148.894> 637 60<91.1064 148.894> 720 60<91.1064 148.894>
VStem: 90 60<221.106 278.894 304.106 361.894 388.106 445.894 471.106 528.894 554.106 611.894 638.106 695.894 721.106 778.894>
LayerCount: 2
Back
Fore
SplineSet
150 250 m 0
 150 233 137 220 120 220 c 0
 103 220 90 233 90 250 c 0
 90 267 103 280 120 280 c 0
 137 280 150 267 150 250 c 0
150 333 m 0
 150 316 137 303 120 303 c 0
 103 303 90 316 90 333 c 0
 90 350 103 363 120 363 c 0
 137 363 150 350 150 333 c 0
150 417 m 0
 150 400 137 387 120 387 c 0
 103 387 90 400 90 417 c 0
 90 434 103 447 120 447 c 0
 137 447 150 434 150 417 c 0
150 500 m 0
 150 483 137 470 120 470 c 0
 103 470 90 483 90 500 c 0
 90 517 103 530 120 530 c 0
 137 530 150 517 150 500 c 0
150 583 m 0
 150 566 137 553 120 553 c 0
 103 553 90 566 90 583 c 0
 90 600 103 613 120 613 c 0
 137 613 150 600 150 583 c 0
150 667 m 0
 150 650 137 637 120 637 c 0
 103 637 90 650 90 667 c 0
 90 684 103 697 120 697 c 0
 137 697 150 684 150 667 c 0
150 750 m 0
 150 733 137 720 120 720 c 0
 103 720 90 733 90 750 c 0
 90 767 103 780 120 780 c 0
 137 780 150 767 150 750 c 0
EndSplineSet
EndChar

StartChar: glyph37
Encoding: 769 769 37
Width: 600
VWidth: 0
UnlinkRmOvrlpSave: 1
Flags: W
HStem: 553 60<91.1064 148.894> 637 60<144.106 201.894> 720 60<197.106 254.894>
VStem: 90 60<554.106 611.894> 143 60<638.106 695.894> 196 60<721.106 778.894>
LayerCount: 2
Back
Fore
SplineSet
150 583 m 0xf0
 150 566 137 553 120 553 c 0
 103 553 90 566 90 583 c 0
 90 600 103 613 120 613 c 0
 137 613 150 600 150 583 c 0xf0
203 667 m 0xe8
 203 650 190 637 173 637 c 0
 156 637 143 650 143 667 c 0
 143 684 156 697 173 697 c 0
 190 697 203 684 203 667 c 0xe8
256 750 m 0xe4
 256 733 243 720 226 720 c 0
 209 720 196 733 196 750 c 0
 196 767 209 780 226 780 c 0
 243 780 256 767 256 750 c 0xe4
EndSplineSet
EndChar

StartChar: glyph38
Encoding: 8594 8594 38
Width: 600
VWidth: 0
UnlinkRmOvrlpSave: 1
Flags: W
HStem: 303 60<304.106 361.894> 387 60<358.106 415.894> 470 60<91.1064 148.894 198.106 255.894 304.106 361.894 411.106 468.894> 553 60<358.106 415.894> 637 60<304.106 361.894>
VStem: 90 60<471.106 528.894> 197 60<471.106 528.894> 303 60<304.106 361.894 471.106 528.894 638.106 695.894> 357 60<388.106 445.894 554.106 611.894> 410 60<471.106 528.894>
LayerCount: 2
Back
Fore
SplineSet
363 333 m 0xff
 363 316 350 303 333 303 c 0
 316 303 303 316 303 333 c 0
 303 350 316 363 333 363 c 0
 350 363 363 350 363 333 c 0xff
417 417 m 0xfe80
 417 400 404 387 387 387 c 0
 370 387 357 400 357 417 c 0
 357 434 370 447 387 447 c 0
 404 447 417 434 417 417 c 0xfe80
470 500 m 0xfe40
 470 483 457 470 440 470 c 0
 423 470 410 483 410 500 c 0
 410 517 423 530 440 530 c 0
 457 530 470 517 470 500 c 0xfe40
363 500 m 0xff
 363 483 350 470 333 470 c 0
 316 470 303 483 303 500 c 0
 303 517 316 530 333 530 c 0
 350 530 363 517 363 500 c 0xff
257 500 m 0
 257 483 244 470 227 470 c 0
 210 470 197 483 197 500 c 0
 197 517 210 530 227 530 c 0
 244 530 257 517 257 500 c 0
150 500 m 0
 150 483 137 470 120 470 c 0
 103 470 90 483 90 500 c 0
 90 517 103 530 120 530 c 0
 137 530 150 517 150 500 c 0
417 583 m 0xfe80
 417 566 404 553 387 553 c 0
 370 553 357 566 357 583 c 0
 357 600 370 613 387 613 c 0
 404 613 417 600 417 583 c 0xfe80
363 667 m 0xff
 363 650 350 637 333 637 c 0
 316 637 303 650 303 667 c 0
 303 684 316 697 333 697 c 0
 350 697 363 684 363 667 c 0xff
EndSplineSet
EndChar

StartChar: numbersign
Encoding: 35 35 39
Width: 600
VWidth: 0
UnlinkRmOvrlpSave: 1
Flags: W
HStem: 220 60<198.106 255.894 304.106 361.894> 303 60<198.106 255.894 304.106 361.894> 387 60<91.1064 148.894 198.106 255.894 304.106 361.894 411.106 468.894> 470 60<198.106 255.894 304.106 361.894> 553 60<91.1064 148.894 198.106 255.894 304.106 361.894 411.106 468.894> 637 60<198.106 255.894 304.106 361.894> 720 60<198.106 255.894 304.106 361.894>
VStem: 90 60<388.106 445.894 554.106 611.894> 197 60<221.106 278.894 304.106 361.894 388.106 445.894 471.106 528.894 554.106 611.894 638.106 695.894 721.106 778.894> 303 60<221.106 278.894 304.106 361.894 388.106 445.894 471.106 528.894 554.106 611.894 638.106 695.894 721.106 778.894> 410 60<388.106 445.894 554.106 611.894>
LayerCount: 2
Back
Fore
SplineSet
363 250 m 0
 363 233 350 220 333 220 c 0
 316 220 303 233 303 250 c 0
 303 267 316 280 333 280 c 0
 350 280 363 267 363 250 c 0
257 250 m 0
 257 233 244 220 227 220 c 0
 210 220 197 233 197 250 c 0
 197 267 210 280 227 280 c 0
 244 280 257 267 257 250 c 0
363 333 m 0
 363 316 350 303 333 303 c 0
 316 303 303 316 303 333 c 0
 303 350 316 363 333 363 c 0
 350 363 363 350 363 333 c 0
257 333 m 0
 257 316 244 303 227 303 c 0
 210 303 197 316 197 333 c 0
 197 350 210 363 227 363 c 0
 244 363 257 350 257 333 c 0
470 417 m 0
 470 400 457 387 440 387 c 0
 423 387 410 400 410 417 c 0
 410 434 423 447 440 447 c 0
 457 447 470 434 470 417 c 0
363 417 m 0
 363 400 350 387 333 387 c 0
 316 387 303 400 303 417 c 0
 303 434 316 447 333 447 c 0
 350 447 363 434 363 417 c 0
257 417 m 0
 257 400 244 387 227 387 c 0
 210 387 197 400 197 417 c 0
 197 434 210 447 227 447 c 0
 244 447 257 434 257 417 c 0
150 417 m 0
 150 400 137 387 120 387 c 0
 103 387 90 400 90 417 c 0
 90 434 103 447 120 447 c 0
 137 447 150 434 150 417 c 0
363 500 m 0
 363 483 350 470 333 470 c 0
 316 470 303 483 303 500 c 0
 303 517 316 530 333 530 c 0
 350 530 363 517 363 500 c 0
257 500 m 0
 257 483 244 470 227 470 c 0
 210 470 197 483 197 500 c 0
 197 517 210 530 227 530 c 0
 244 530 257 517 257 500 c 0
470 583 m 0
 470 566 457 553 440 553 c 0
 423 553 410 566 410 583 c 0
 410 600 423 613 440 613 c 0
 457 613 470 600 470 583 c 0
363 583 m 0
 363 566 350 553 333 553 c 0
 316 553 303 566 303 583 c 0
 303 600 316 613 333 613 c 0
 350 613 363 600 363 583 c 0
257 583 m 0
 257 566 244 553 227 553 c 0
 210 553 197 566 197 583 c 0
 197 600 210 613 227 613 c 0
 244 613 257 600 257 583 c 0
150 583 m 0
 150 566 137 553 120 553 c 0
 103 553 90 566 90 583 c 0
 90 600 103 613 120 613 c 0
 137 613 150 600 150 583 c 0
363 667 m 0
 363 650 350 637 333 637 c 0
 316 637 303 650 303 667 c 0
 303 684 316 697 333 697 c 0
 350 697 363 684 363 667 c 0
257 667 m 0
 257 650 244 637 227 637 c 0
 210 637 197 650 197 667 c 0
 197 684 210 697 227 697 c 0
 244 697 257 684 257 667 c 0
363 750 m 0
 363 733 350 720 333 720 c 0
 316 720 303 733 303 750 c 0
 303 767 316 780 333 780 c 0
 350 780 363 767 363 750 c 0
257 750 m 0
 257 733 244 720 227 720 c 0
 210 720 197 733 197 750 c 0
 197 767 210 780 227 780 c 0
 244 780 257 767 257 750 c 0
EndSplineSet
EndChar

StartChar: glyph40
Encoding: 8356 8356 40
Width: 600
VWidth: 0
UnlinkRmOvrlpSave: 1
Flags: W
HStem: 220 60<91.1064 148.894 198.106 255.894 304.106 361.894 411.106 468.894> 303 60<198.106 255.894> 387 60<91.1064 148.894 198.106 255.894 304.106 361.894> 470 60<198.106 255.894> 553 60<91.1064 148.894 198.106 255.894 304.106 361.894> 637 60<198.106 255.894 411.106 468.894> 720 60<251.106 308.894 358.106 415.894>
VStem: 90 60<221.106 278.894 388.106 445.894 554.106 611.894> 197 60<221.106 278.894 304.106 361.894 388.106 445.894 471.106 528.894 554.106 611.894 638.106 695.894> 250 60<721.106 778.894> 303 60<221.106 278.894 388.106 445.894 554.106 611.894> 357 60<721.106 778.894> 410 60<221.106 278.894 638.106 695.894>
LayerCount: 2
Back
Fore
SplineSet
470 250 m 0xff08
 470 233 457 220 440 220 c 0
 423 220 410 233 410 250 c 0
 410 267 423 280 440 280 c 0
 457 280 470 267 470 250 c 0xff08
363 250 m 0xff20
 363 233 350 220 333 220 c 0
 316 220 303 233 303 250 c 0
 303 267 316 280 333 280 c 0
 350 280 363 267 363 250 c 0xff20
257 250 m 0xff80
 257 233 244 220 227 220 c 0
 210 220 197 233 197 250 c 0
 197 267 210 280 227 280 c 0
 244 280 257 267 257 250 c 0xff80
150 250 m 0
 150 233 137 220 120 220 c 0
 103 220 90 233 90 250 c 0
 90 267 103 280 120 280 c 0
 137 280 150 267 150 250 c 0
257 333 m 0
 257 316 244 303 227 303 c 0
 210 303 197 316 197 333 c 0
 197 350 210 363 227 363 c 0
 244 363 257 350 257 333 c 0
363 417 m 0xff20
 363 400 350 387 333 387 c 0
 316 387 303 400 303 417 c 0
 303 434 316 447 333 447 c 0
 350 447 363 434 363 417 c 0xff20
257 417 m 0xff80
 257 400 244 387 227 387 c 0
 210 387 197 400 197 417 c 0
 197 434 210 447 227 447 c 0
 244 447 257 434 257 417 c 0xff80
150 417 m 0
 150 400 137 387 120 387 c 0
 103 387 90 400 90 417 c 0
 90 434 103 447 120 447 c 0
 137 447 150 434 150 417 c 0
257 500 m 0
 257 483 244 470 227 470 c 0
 210 470 197 483 197 500 c 0
 197 517 210 530 227 530 c 0
 244 530 257 517 257 500 c 0
363 583 m 0xff20
 363 566 350 553 333 553 c 0
 316 553 303 566 303 583 c 0
 303 600 316 613 333 613 c 0
 350 613 363 600 363 583 c 0xff20
257 583 m 0xff80
 257 566 244 553 227 553 c 0
 210 553 197 566 197 583 c 0
 197 600 210 613 227 613 c 0
 244 613 257 600 257 583 c 0xff80
150 583 m 0
 150 566 137 553 120 553 c 0
 103 553 90 566 90 583 c 0
 90 600 103 613 120 613 c 0
 137 613 150 600 150 583 c 0
470 667 m 0xff08
 470 650 457 637 440 637 c 0
 423 637 410 650 410 667 c 0
 410 684 423 697 440 697 c 0
 457 697 470 684 470 667 c 0xff08
257 667 m 0xff80
 257 650 244 637 227 637 c 0
 210 637 197 650 197 667 c 0
 197 684 210 697 227 697 c 0
 244 697 257 684 257 667 c 0xff80
417 750 m 0xff10
 417 733 404 720 387 720 c 0
 370 720 357 733 357 750 c 0
 357 767 370 780 387 780 c 0
 404 780 417 767 417 750 c 0xff10
310 750 m 0xff40
 310 733 297 720 280 720 c 0
 263 720 250 733 250 750 c 0
 250 767 263 780 280 780 c 0
 297 780 310 767 310 750 c 0xff40
EndSplineSet
EndChar

StartChar: quotesingle
Encoding: 39 39 41
Width: 600
VWidth: 0
UnlinkRmOvrlpSave: 1
Flags: W
HStem: 553 60<91.1064 148.894> 637 60<144.106 201.894> 720 60<197.106 254.894>
VStem: 90 60<554.106 611.894> 143 60<638.106 695.894> 196 60<721.106 778.894>
LayerCount: 2
Back
Fore
SplineSet
150 583 m 0xf0
 150 566 137 553 120 553 c 0
 103 553 90 566 90 583 c 0
 90 600 103 613 120 613 c 0
 137 613 150 600 150 583 c 0xf0
203 667 m 0xe8
 203 650 190 637 173 637 c 0
 156 637 143 650 143 667 c 0
 143 684 156 697 173 697 c 0
 190 697 203 684 203 667 c 0xe8
256 750 m 0xe4
 256 733 243 720 226 720 c 0
 209 720 196 733 196 750 c 0
 196 767 209 780 226 780 c 0
 243 780 256 767 256 750 c 0xe4
EndSplineSet
EndChar

StartChar: plus
Encoding: 43 43 42
Width: 600
VWidth: 0
UnlinkRmOvrlpSave: 1
Flags: W
HStem: 220 60<251.106 308.894> 303 60<251.106 308.894> 387 60<251.106 308.894> 470 60<91.1064 148.894 198.106 255.894 304.106 361.894 411.106 468.894> 553 60<251.106 308.894> 637 60<251.106 308.894> 720 60<251.106 308.894>
VStem: 90 60<471.106 528.894> 197 60<471.106 528.894> 250 60<221.106 278.894 304.106 361.894 388.106 445.894 554.106 611.894 638.106 695.894 721.106 778.894> 303 60<471.106 528.894> 410 60<471.106 528.894>
LayerCount: 2
Back
Fore
SplineSet
310 250 m 0xff50
 310 233 297 220 280 220 c 0
 263 220 250 233 250 250 c 0
 250 267 263 280 280 280 c 0
 297 280 310 267 310 250 c 0xff50
310 333 m 0
 310 316 297 303 280 303 c 0
 263 303 250 316 250 333 c 0
 250 350 263 363 280 363 c 0
 297 363 310 350 310 333 c 0
310 417 m 0
 310 400 297 387 280 387 c 0
 263 387 250 400 250 417 c 0
 250 434 263 447 280 447 c 0
 297 447 310 434 310 417 c 0
470 500 m 0
 470 483 457 470 440 470 c 0
 423 470 410 483 410 500 c 0
 410 517 423 530 440 530 c 0
 457 530 470 517 470 500 c 0
363 500 m 0xff30
 363 483 350 470 333 470 c 0
 316 470 303 483 303 500 c 0
 303 517 316 530 333 530 c 0
 350 530 363 517 363 500 c 0xff30
257 500 m 0xff90
 257 483 244 470 227 470 c 0
 210 470 197 483 197 500 c 0
 197 517 210 530 227 530 c 0
 244 530 257 517 257 500 c 0xff90
150 500 m 0
 150 483 137 470 120 470 c 0
 103 470 90 483 90 500 c 0
 90 517 103 530 120 530 c 0
 137 530 150 517 150 500 c 0
310 583 m 0xff50
 310 566 297 553 280 553 c 0
 263 553 250 566 250 583 c 0
 250 600 263 613 280 613 c 0
 297 613 310 600 310 583 c 0xff50
310 667 m 0
 310 650 297 637 280 637 c 0
 263 637 250 650 250 667 c 0
 250 684 263 697 280 697 c 0
 297 697 310 684 310 667 c 0
310 750 m 0
 310 733 297 720 280 720 c 0
 263 720 250 733 250 750 c 0
 250 767 263 780 280 780 c 0
 297 780 310 767 310 750 c 0
EndSplineSet
EndChar

StartChar: glyph43
Encoding: 8364 8364 43
Width: 600
VWidth: 0
UnlinkRmOvrlpSave: 1
Flags: W
HStem: 220 60<251.106 308.894 358.106 415.894> 303 60<198.106 255.894 411.106 468.894> 387 60<91.1064 148.894 198.106 255.894 304.106 361.894> 470 60<198.106 255.894> 553 60<91.1064 148.894 198.106 255.894 304.106 361.894> 637 60<198.106 255.894 411.106 468.894> 720 60<251.106 308.894 358.106 415.894>
VStem: 90 60<388.106 445.894 554.106 611.894> 197 60<304.106 361.894 388.106 445.894 471.106 528.894 554.106 611.894 638.106 695.894> 250 60<221.106 278.894 721.106 778.894> 303 60<388.106 445.894 554.106 611.894> 357 60<221.106 278.894 721.106 778.894> 410 60<304.106 361.894 638.106 695.894>
LayerCount: 2
Back
Fore
SplineSet
417 250 m 0xff10
 417 233 404 220 387 220 c 0
 370 220 357 233 357 250 c 0
 357 267 370 280 387 280 c 0
 404 280 417 267 417 250 c 0xff10
310 250 m 0xff40
 310 233 297 220 280 220 c 0
 263 220 250 233 250 250 c 0
 250 267 263 280 280 280 c 0
 297 280 310 267 310 250 c 0xff40
470 333 m 0xff08
 470 316 457 303 440 303 c 0
 423 303 410 316 410 333 c 0
 410 350 423 363 440 363 c 0
 457 363 470 350 470 333 c 0xff08
257 333 m 0xff80
 257 316 244 303 227 303 c 0
 210 303 197 316 197 333 c 0
 197 350 210 363 227 363 c 0
 244 363 257 350 257 333 c 0xff80
363 417 m 0xff20
 363 400 350 387 333 387 c 0
 316 387 303 400 303 417 c 0
 303 434 316 447 333 447 c 0
 350 447 363 434 363 417 c 0xff20
257 417 m 0xff80
 257 400 244 387 227 387 c 0
 210 387 197 400 197 417 c 0
 197 434 210 447 227 447 c 0
 244 447 257 434 257 417 c 0xff80
150 417 m 0
 150 400 137 387 120 387 c 0
 103 387 90 400 90 417 c 0
 90 434 103 447 120 447 c 0
 137 447 150 434 150 417 c 0
257 500 m 0
 257 483 244 470 227 470 c 0
 210 470 197 483 197 500 c 0
 197 517 210 530 227 530 c 0
 244 530 257 517 257 500 c 0
363 583 m 0xff20
 363 566 350 553 333 553 c 0
 316 553 303 566 303 583 c 0
 303 600 316 613 333 613 c 0
 350 613 363 600 363 583 c 0xff20
257 583 m 0xff80
 257 566 244 553 227 553 c 0
 210 553 197 566 197 583 c 0
 197 600 210 613 227 613 c 0
 244 613 257 600 257 583 c 0xff80
150 583 m 0
 150 566 137 553 120 553 c 0
 103 553 90 566 90 583 c 0
 90 600 103 613 120 613 c 0
 137 613 150 600 150 583 c 0
470 667 m 0xff08
 470 650 457 637 440 637 c 0
 423 637 410 650 410 667 c 0
 410 684 423 697 440 697 c 0
 457 697 470 684 470 667 c 0xff08
257 667 m 0xff80
 257 650 244 637 227 637 c 0
 210 637 197 650 197 667 c 0
 197 684 210 697 227 697 c 0
 244 697 257 684 257 667 c 0xff80
417 750 m 0xff10
 417 733 404 720 387 720 c 0
 370 720 357 733 357 750 c 0
 357 767 370 780 387 780 c 0
 404 780 417 767 417 750 c 0xff10
310 750 m 0xff40
 310 733 297 720 280 720 c 0
 263 720 250 733 250 750 c 0
 250 767 263 780 280 780 c 0
 297 780 310 767 310 750 c 0xff40
EndSplineSet
EndChar

StartChar: slash
Encoding: 47 47 44
Width: 600
VWidth: 0
UnlinkRmOvrlpSave: 1
Flags: W
HStem: 220 60<91.1064 148.894> 303 60<144.106 201.894> 387 60<198.106 255.894> 470 60<251.106 308.894> 553 60<304.106 361.894> 637 60<358.106 415.894> 720 60<411.106 468.894>
VStem: 90 60<221.106 278.894> 143 60<304.106 361.894> 197 60<388.106 445.894> 250 60<471.106 528.894> 303 60<554.106 611.894> 357 60<638.106 695.894> 410 60<721.106 778.894>
LayerCount: 2
Back
Fore
SplineSet
150 250 m 0xff
 150 233 137 220 120 220 c 0
 103 220 90 233 90 250 c 0
 90 267 103 280 120 280 c 0
 137 280 150 267 150 250 c 0xff
203 333 m 0xfe80
 203 316 190 303 173 303 c 0
 156 303 143 316 143 333 c 0
 143 350 156 363 173 363 c 0
 190 363 203 350 203 333 c 0xfe80
257 417 m 0xfe40
 257 400 244 387 227 387 c 0
 210 387 197 400 197 417 c 0
 197 434 210 447 227 447 c 0
 244 447 257 434 257 417 c 0xfe40
310 500 m 0xfe20
 310 483 297 470 280 470 c 0
 263 470 250 483 250 500 c 0
 250 517 263 530 280 530 c 0
 297 530 310 517 310 500 c 0xfe20
363 583 m 0xfe10
 363 566 350 553 333 553 c 0
 316 553 303 566 303 583 c 0
 303 600 316 613 333 613 c 0
 350 613 363 600 363 583 c 0xfe10
417 667 m 0xfe08
 417 650 404 637 387 637 c 0
 370 637 357 650 357 667 c 0
 357 684 370 697 387 697 c 0
 404 697 417 684 417 667 c 0xfe08
470 750 m 0xfe04
 470 733 457 720 440 720 c 0
 423 720 410 733 410 750 c 0
 410 767 423 780 440 780 c 0
 457 780 470 767 470 750 c 0xfe04
EndSplineSet
EndChar

StartChar: glyph45
Encoding: 305 305 45
Width: 600
VWidth: 0
UnlinkRmOvrlpSave: 1
Flags: W
HStem: 220 60<91.1064 148.894 198.106 255.894 305.106 362.894> 303 60<198.106 255.894> 387 60<198.106 255.894> 470 60<198.106 255.894> 553 60<91.1064 148.894 198.106 255.894>
VStem: 90 60<221.106 278.894 554.106 611.894> 197 60<221.106 278.894 304.106 361.894 388.106 445.894 471.106 528.894 554.106 611.894> 304 60<221.106 278.894>
CounterMasks: 1 07
LayerCount: 2
Back
Fore
SplineSet
364 250 m 0
 364 233 351 220 334 220 c 0
 317 220 304 233 304 250 c 0
 304 267 317 280 334 280 c 0
 351 280 364 267 364 250 c 0
257 250 m 0
 257 233 244 220 227 220 c 0
 210 220 197 233 197 250 c 0
 197 267 210 280 227 280 c 0
 244 280 257 267 257 250 c 0
150 250 m 0
 150 233 137 220 120 220 c 0
 103 220 90 233 90 250 c 0
 90 267 103 280 120 280 c 0
 137 280 150 267 150 250 c 0
257 333 m 0
 257 316 244 303 227 303 c 0
 210 303 197 316 197 333 c 0
 197 350 210 363 227 363 c 0
 244 363 257 350 257 333 c 0
257 417 m 0
 257 400 244 387 227 387 c 0
 210 387 197 400 197 417 c 0
 197 434 210 447 227 447 c 0
 244 447 257 434 257 417 c 0
257 500 m 0
 257 483 244 470 227 470 c 0
 210 470 197 483 197 500 c 0
 197 517 210 530 227 530 c 0
 244 530 257 517 257 500 c 0
257 583 m 0
 257 566 244 553 227 553 c 0
 210 553 197 566 197 583 c 0
 197 600 210 613 227 613 c 0
 244 613 257 600 257 583 c 0
150 583 m 0
 150 566 137 553 120 553 c 0
 103 553 90 566 90 583 c 0
 90 600 103 613 120 613 c 0
 137 613 150 600 150 583 c 0
EndSplineSet
EndChar

StartChar: degree
Encoding: 176 176 46
Width: 600
VWidth: 0
UnlinkRmOvrlpSave: 1
Flags: W
HStem: 553 60<145.106 202.894 251.106 308.894> 637 60<91.1064 148.894 305.106 362.894> 720 60<145.106 202.894 251.106 308.894>
VStem: 90 60<638.106 695.894> 144 60<554.106 611.894 721.106 778.894> 250 60<554.106 611.894 721.106 778.894> 304 60<638.106 695.894>
LayerCount: 2
Back
Fore
SplineSet
310 583 m 0xe4
 310 566 297 553 280 553 c 0
 263 553 250 566 250 583 c 0
 250 600 263 613 280 613 c 0
 297 613 310 600 310 583 c 0xe4
204 583 m 0xe8
 204 566 191 553 174 553 c 0
 157 553 144 566 144 583 c 0
 144 600 157 613 174 613 c 0
 191 613 204 600 204 583 c 0xe8
364 667 m 0xe2
 364 650 351 637 334 637 c 0
 317 637 304 650 304 667 c 0
 304 684 317 697 334 697 c 0
 351 697 364 684 364 667 c 0xe2
150 667 m 0xf0
 150 650 137 637 120 637 c 0
 103 637 90 650 90 667 c 0
 90 684 103 697 120 697 c 0
 137 697 150 684 150 667 c 0xf0
310 750 m 0xe4
 310 733 297 720 280 720 c 0
 263 720 250 733 250 750 c 0
 250 767 263 780 280 780 c 0
 297 780 310 767 310 750 c 0xe4
204 750 m 0xe8
 204 733 191 720 174 720 c 0
 157 720 144 733 144 750 c 0
 144 767 157 780 174 780 c 0
 191 780 204 767 204 750 c 0xe8
EndSplineSet
EndChar

StartChar: three
Encoding: 51 51 47
Width: 600
VWidth: 0
UnlinkRmOvrlpSave: 1
Flags: W
HStem: 220 60<144.106 201.894 251.106 308.894 358.106 415.894> 303 60<91.1064 148.894 411.106 468.894> 387 60<411.106 468.894> 470 60<251.106 308.894 358.106 415.894> 553 60<304.106 361.894> 637 60<358.106 415.894> 720 60<91.1064 148.894 198.106 255.894 304.106 361.894 411.106 468.894>
VStem: 90 60<304.106 361.894 721.106 778.894> 143 60<221.106 278.894> 197 60<721.106 778.894> 250 60<221.106 278.894 471.106 528.894> 303 60<554.106 611.894 721.106 778.894> 357 60<221.106 278.894 471.106 528.894 638.106 695.894> 410 60<304.106 361.894 388.106 445.894 721.106 778.894>
LayerCount: 2
Back
Fore
SplineSet
417 250 m 0xfe08
 417 233 404 220 387 220 c 0
 370 220 357 233 357 250 c 0
 357 267 370 280 387 280 c 0
 404 280 417 267 417 250 c 0xfe08
310 250 m 0xfe20
 310 233 297 220 280 220 c 0
 263 220 250 233 250 250 c 0
 250 267 263 280 280 280 c 0
 297 280 310 267 310 250 c 0xfe20
203 250 m 0xfe80
 203 233 190 220 173 220 c 0
 156 220 143 233 143 250 c 0
 143 267 156 280 173 280 c 0
 190 280 203 267 203 250 c 0xfe80
470 333 m 0xfe04
 470 316 457 303 440 303 c 0
 423 303 410 316 410 333 c 0
 410 350 423 363 440 363 c 0
 457 363 470 350 470 333 c 0xfe04
150 333 m 0xff
 150 316 137 303 120 303 c 0
 103 303 90 316 90 333 c 0
 90 350 103 363 120 363 c 0
 137 363 150 350 150 333 c 0xff
470 417 m 0xfe04
 470 400 457 387 440 387 c 0
 423 387 410 400 410 417 c 0
 410 434 423 447 440 447 c 0
 457 447 470 434 470 417 c 0xfe04
417 500 m 0xfe08
 417 483 404 470 387 470 c 0
 370 470 357 483 357 500 c 0
 357 517 370 530 387 530 c 0
 404 530 417 517 417 500 c 0xfe08
310 500 m 0xfe20
 310 483 297 470 280 470 c 0
 263 470 250 483 250 500 c 0
 250 517 263 530 280 530 c 0
 297 530 310 517 310 500 c 0xfe20
363 583 m 0xfe10
 363 566 350 553 333 553 c 0
 316 553 303 566 303 583 c 0
 303 600 316 613 333 613 c 0
 350 613 363 600 363 583 c 0xfe10
417 667 m 0xfe08
 417 650 404 637 387 637 c 0
 370 637 357 650 357 667 c 0
 357 684 370 697 387 697 c 0
 404 697 417 684 417 667 c 0xfe08
470 750 m 0xfe04
 470 733 457 720 440 720 c 0
 423 720 410 733 410 750 c 0
 410 767 423 780 440 780 c 0
 457 780 470 767 470 750 c 0xfe04
363 750 m 0xfe10
 363 733 350 720 333 720 c 0
 316 720 303 733 303 750 c 0
 303 767 316 780 333 780 c 0
 350 780 363 767 363 750 c 0xfe10
257 750 m 0xfe40
 257 733 244 720 227 720 c 0
 210 720 197 733 197 750 c 0
 197 767 210 780 227 780 c 0
 244 780 257 767 257 750 c 0xfe40
150 750 m 0xff
 150 733 137 720 120 720 c 0
 103 720 90 733 90 750 c 0
 90 767 103 780 120 780 c 0
 137 780 150 767 150 750 c 0xff
EndSplineSet
EndChar

StartChar: seven
Encoding: 55 55 48
Width: 600
VWidth: 0
UnlinkRmOvrlpSave: 1
Flags: W
HStem: 220 60<144.106 201.894> 303 60<198.106 255.894> 387 60<251.106 308.894> 470 60<304.106 361.894> 553 60<358.106 415.894> 637 60<411.106 468.894> 720 60<91.1064 148.894 198.106 255.894 304.106 361.894 411.106 468.894>
VStem: 90 60<721.106 778.894> 143 60<221.106 278.894> 197 60<304.106 361.894 721.106 778.894> 250 60<388.106 445.894> 303 60<471.106 528.894 721.106 778.894> 357 60<554.106 611.894> 410 60<638.106 695.894 721.106 778.894>
LayerCount: 2
Back
Fore
SplineSet
203 250 m 0xfe80
 203 233 190 220 173 220 c 0
 156 220 143 233 143 250 c 0
 143 267 156 280 173 280 c 0
 190 280 203 267 203 250 c 0xfe80
257 333 m 0xfe40
 257 316 244 303 227 303 c 0
 210 303 197 316 197 333 c 0
 197 350 210 363 227 363 c 0
 244 363 257 350 257 333 c 0xfe40
310 417 m 0xfe20
 310 400 297 387 280 387 c 0
 263 387 250 400 250 417 c 0
 250 434 263 447 280 447 c 0
 297 447 310 434 310 417 c 0xfe20
363 500 m 0xfe10
 363 483 350 470 333 470 c 0
 316 470 303 483 303 500 c 0
 303 517 316 530 333 530 c 0
 350 530 363 517 363 500 c 0xfe10
417 583 m 0xfe08
 417 566 404 553 387 553 c 0
 370 553 357 566 357 583 c 0
 357 600 370 613 387 613 c 0
 404 613 417 600 417 583 c 0xfe08
470 667 m 0xfe04
 470 650 457 637 440 637 c 0
 423 637 410 650 410 667 c 0
 410 684 423 697 440 697 c 0
 457 697 470 684 470 667 c 0xfe04
470 750 m 0
 470 733 457 720 440 720 c 0
 423 720 410 733 410 750 c 0
 410 767 423 780 440 780 c 0
 457 780 470 767 470 750 c 0
363 750 m 0xfe10
 363 733 350 720 333 720 c 0
 316 720 303 733 303 750 c 0
 303 767 316 780 333 780 c 0
 350 780 363 767 363 750 c 0xfe10
257 750 m 0xfe40
 257 733 244 720 227 720 c 0
 210 720 197 733 197 750 c 0
 197 767 210 780 227 780 c 0
 244 780 257 767 257 750 c 0xfe40
150 750 m 0xff
 150 733 137 720 120 720 c 0
 103 720 90 733 90 750 c 0
 90 767 103 780 120 780 c 0
 137 780 150 767 150 750 c 0xff
EndSplineSet
EndChar

StartChar: semicolon
Encoding: 59 59 49
Width: 600
VWidth: 0
UnlinkRmOvrlpSave: 1
Flags: W
HStem: 220 60<91.1064 148.894> 303 60<144.106 201.894> 387 60<91.1064 148.894 197.106 254.894> 470 60<91.1064 148.894 197.106 254.894> 637 60<91.1064 148.894 197.106 254.894> 720 60<144.106 201.894>
VStem: 90 60<221.106 278.894 388.106 445.894 471.106 528.894 638.106 695.894> 143 60<304.106 361.894 721.106 778.894> 196 60<388.106 445.894 471.106 528.894 638.106 695.894>
LayerCount: 2
Back
Fore
SplineSet
150 250 m 0xfe
 150 233 137 220 120 220 c 0
 103 220 90 233 90 250 c 0
 90 267 103 280 120 280 c 0
 137 280 150 267 150 250 c 0xfe
203 333 m 0xfd
 203 316 190 303 173 303 c 0
 156 303 143 316 143 333 c 0
 143 350 156 363 173 363 c 0
 190 363 203 350 203 333 c 0xfd
256 417 m 0xfc80
 256 400 243 387 226 387 c 0
 209 387 196 400 196 417 c 0
 196 434 209 447 226 447 c 0
 243 447 256 434 256 417 c 0xfc80
150 417 m 0xfe
 150 400 137 387 120 387 c 0
 103 387 90 400 90 417 c 0
 90 434 103 447 120 447 c 0
 137 447 150 434 150 417 c 0xfe
256 500 m 0xfc80
 256 483 243 470 226 470 c 0
 209 470 196 483 196 500 c 0
 196 517 209 530 226 530 c 0
 243 530 256 517 256 500 c 0xfc80
150 500 m 0xfe
 150 483 137 470 120 470 c 0
 103 470 90 483 90 500 c 0
 90 517 103 530 120 530 c 0
 137 530 150 517 150 500 c 0xfe
256 667 m 0xfc80
 256 650 243 637 226 637 c 0
 209 637 196 650 196 667 c 0
 196 684 209 697 226 697 c 0
 243 697 256 684 256 667 c 0xfc80
150 667 m 0xfe
 150 650 137 637 120 637 c 0
 103 637 90 650 90 667 c 0
 90 684 103 697 120 697 c 0
 137 697 150 684 150 667 c 0xfe
203 750 m 0xfd
 203 733 190 720 173 720 c 0
 156 720 143 733 143 750 c 0
 143 767 156 780 173 780 c 0
 190 780 203 767 203 750 c 0xfd
EndSplineSet
EndChar

StartChar: question
Encoding: 63 63 50
Width: 600
VWidth: 0
UnlinkRmOvrlpSave: 1
Flags: W
HStem: 220 60<251.106 308.894> 387 60<251.106 308.894> 470 60<251.106 308.894> 553 60<251.106 308.894 358.106 415.894> 637 60<91.1064 148.894 411.106 468.894> 720 60<144.106 201.894 251.106 308.894 358.106 415.894>
VStem: 90 60<638.106 695.894> 143 60<721.106 778.894> 250 60<221.106 278.894 388.106 445.894 471.106 528.894 554.106 611.894 721.106 778.894> 357 60<554.106 611.894 721.106 778.894> 410 60<638.106 695.894>
LayerCount: 2
Back
Fore
SplineSet
310 250 m 0xfc80
 310 233 297 220 280 220 c 0
 263 220 250 233 250 250 c 0
 250 267 263 280 280 280 c 0
 297 280 310 267 310 250 c 0xfc80
310 417 m 0
 310 400 297 387 280 387 c 0
 263 387 250 400 250 417 c 0
 250 434 263 447 280 447 c 0
 297 447 310 434 310 417 c 0
310 500 m 0
 310 483 297 470 280 470 c 0
 263 470 250 483 250 500 c 0
 250 517 263 530 280 530 c 0
 297 530 310 517 310 500 c 0
417 583 m 0xfcc0
 417 566 404 553 387 553 c 0
 370 553 357 566 357 583 c 0
 357 600 370 613 387 613 c 0
 404 613 417 600 417 583 c 0xfcc0
310 583 m 0
 310 566 297 553 280 553 c 0
 263 553 250 566 250 583 c 0
 250 600 263 613 280 613 c 0
 297 613 310 600 310 583 c 0
470 667 m 0xfca0
 470 650 457 637 440 637 c 0
 423 637 410 650 410 667 c 0
 410 684 423 697 440 697 c 0
 457 697 470 684 470 667 c 0xfca0
150 667 m 0xfe80
 150 650 137 637 120 637 c 0
 103 637 90 650 90 667 c 0
 90 684 103 697 120 697 c 0
 137 697 150 684 150 667 c 0xfe80
417 750 m 0xfcc0
 417 733 404 720 387 720 c 0
 370 720 357 733 357 750 c 0
 357 767 370 780 387 780 c 0
 404 780 417 767 417 750 c 0xfcc0
310 750 m 0
 310 733 297 720 280 720 c 0
 263 720 250 733 250 750 c 0
 250 767 263 780 280 780 c 0
 297 780 310 767 310 750 c 0
203 750 m 0xfd80
 203 733 190 720 173 720 c 0
 156 720 143 733 143 750 c 0
 143 767 156 780 173 780 c 0
 190 780 203 767 203 750 c 0xfd80
EndSplineSet
EndChar

StartChar: Agrave
Encoding: 192 192 51
Width: 600
VWidth: 0
UnlinkRmOvrlpSave: 1
Flags: W
HStem: 220 60<91.1064 148.894 411.106 468.894> 303 60<91.1064 148.894 198.106 255.894 304.106 361.894 411.106 468.894> 387 60<144.106 201.894 358.106 415.894> 470 60<198.106 255.894 304.106 361.894> 553 60<251.106 308.894> 637 60<304.106 361.894> 720 60<251.106 308.894>
VStem: 90 60<221.106 278.894 304.106 361.894> 143 60<388.106 445.894> 197 60<304.106 361.894 471.106 528.894> 250 60<554.106 611.894 721.106 778.894> 303 60<304.106 361.894 471.106 528.894 638.106 695.894> 357 60<388.106 445.894> 410 60<221.106 278.894 304.106 361.894>
LayerCount: 2
Back
Fore
SplineSet
470 250 m 0xfe04
 470 233 457 220 440 220 c 0
 423 220 410 233 410 250 c 0
 410 267 423 280 440 280 c 0
 457 280 470 267 470 250 c 0xfe04
150 250 m 0xff
 150 233 137 220 120 220 c 0
 103 220 90 233 90 250 c 0
 90 267 103 280 120 280 c 0
 137 280 150 267 150 250 c 0xff
470 333 m 0xfe04
 470 316 457 303 440 303 c 0
 423 303 410 316 410 333 c 0
 410 350 423 363 440 363 c 0
 457 363 470 350 470 333 c 0xfe04
363 333 m 0xfe10
 363 316 350 303 333 303 c 0
 316 303 303 316 303 333 c 0
 303 350 316 363 333 363 c 0
 350 363 363 350 363 333 c 0xfe10
257 333 m 0xfe40
 257 316 244 303 227 303 c 0
 210 303 197 316 197 333 c 0
 197 350 210 363 227 363 c 0
 244 363 257 350 257 333 c 0xfe40
150 333 m 0xff
 150 316 137 303 120 303 c 0
 103 303 90 316 90 333 c 0
 90 350 103 363 120 363 c 0
 137 363 150 350 150 333 c 0xff
417 417 m 0xfe08
 417 400 404 387 387 387 c 0
 370 387 357 400 357 417 c 0
 357 434 370 447 387 447 c 0
 404 447 417 434 417 417 c 0xfe08
203 417 m 0xfe80
 203 400 190 387 173 387 c 0
 156 387 143 400 143 417 c 0
 143 434 156 447 173 447 c 0
 190 447 203 434 203 417 c 0xfe80
363 500 m 0xfe10
 363 483 350 470 333 470 c 0
 316 470 303 483 303 500 c 0
 303 517 316 530 333 530 c 0
 350 530 363 517 363 500 c 0xfe10
257 500 m 0xfe40
 257 483 244 470 227 470 c 0
 210 470 197 483 197 500 c 0
 197 517 210 530 227 530 c 0
 244 530 257 517 257 500 c 0xfe40
310 583 m 0xfe20
 310 566 297 553 280 553 c 0
 263 553 250 566 250 583 c 0
 250 600 263 613 280 613 c 0
 297 613 310 600 310 583 c 0xfe20
363 667 m 0xfe10
 363 650 350 637 333 637 c 0
 316 637 303 650 303 667 c 0
 303 684 316 697 333 697 c 0
 350 697 363 684 363 667 c 0xfe10
310 750 m 0xfe20
 310 733 297 720 280 720 c 0
 263 720 250 733 250 750 c 0
 250 767 263 780 280 780 c 0
 297 780 310 767 310 750 c 0xfe20
EndSplineSet
EndChar

StartChar: C
Encoding: 67 67 52
Width: 600
VWidth: 0
UnlinkRmOvrlpSave: 1
Flags: W
HStem: 220 60<144.106 201.894 251.106 308.894 358.106 415.894> 303 60<91.1064 148.894 411.106 468.894> 387 60<91.1064 148.894> 470 60<91.1064 148.894> 553 60<91.1064 148.894> 637 60<91.1064 148.894 411.106 468.894> 720 60<144.106 201.894 251.106 308.894 358.106 415.894>
VStem: 90 60<304.106 361.894 388.106 445.894 471.106 528.894 554.106 611.894 638.106 695.894> 143 60<221.106 278.894 721.106 778.894> 250 60<221.106 278.894 721.106 778.894> 357 60<221.106 278.894 721.106 778.894> 410 60<304.106 361.894 638.106 695.894>
LayerCount: 2
Back
Fore
SplineSet
417 250 m 0xfe60
 417 233 404 220 387 220 c 0
 370 220 357 233 357 250 c 0
 357 267 370 280 387 280 c 0
 404 280 417 267 417 250 c 0xfe60
310 250 m 0
 310 233 297 220 280 220 c 0
 263 220 250 233 250 250 c 0
 250 267 263 280 280 280 c 0
 297 280 310 267 310 250 c 0
203 250 m 0xfec0
 203 233 190 220 173 220 c 0
 156 220 143 233 143 250 c 0
 143 267 156 280 173 280 c 0
 190 280 203 267 203 250 c 0xfec0
470 333 m 0xfe50
 470 316 457 303 440 303 c 0
 423 303 410 316 410 333 c 0
 410 350 423 363 440 363 c 0
 457 363 470 350 470 333 c 0xfe50
150 333 m 0xff40
 150 316 137 303 120 303 c 0
 103 303 90 316 90 333 c 0
 90 350 103 363 120 363 c 0
 137 363 150 350 150 333 c 0xff40
150 417 m 0
 150 400 137 387 120 387 c 0
 103 387 90 400 90 417 c 0
 90 434 103 447 120 447 c 0
 137 447 150 434 150 417 c 0
150 500 m 0
 150 483 137 470 120 470 c 0
 103 470 90 483 90 500 c 0
 90 517 103 530 120 530 c 0
 137 530 150 517 150 500 c 0
150 583 m 0
 150 566 137 553 120 553 c 0
 103 553 90 566 90 583 c 0
 90 600 103 613 120 613 c 0
 137 613 150 600 150 583 c 0
470 667 m 0xfe50
 470 650 457 637 440 637 c 0
 423 637 410 650 410 667 c 0
 410 684 423 697 440 697 c 0
 457 697 470 684 470 667 c 0xfe50
150 667 m 0xff40
 150 650 137 637 120 637 c 0
 103 637 90 650 90 667 c 0
 90 684 103 697 120 697 c 0
 137 697 150 684 150 667 c 0xff40
417 750 m 0xfe60
 417 733 404 720 387 720 c 0
 370 720 357 733 357 750 c 0
 357 767 370 780 387 780 c 0
 404 780 417 767 417 750 c 0xfe60
310 750 m 0
 310 733 297 720 280 720 c 0
 263 720 250 733 250 750 c 0
 250 767 263 780 280 780 c 0
 297 780 310 767 310 750 c 0
203 750 m 0xfec0
 203 733 190 720 173 720 c 0
 156 720 143 733 143 750 c 0
 143 767 156 780 173 780 c 0
 190 780 203 767 203 750 c 0xfec0
EndSplineSet
EndChar

StartChar: Adieresis
Encoding: 196 196 53
Width: 600
VWidth: 0
UnlinkRmOvrlpSave: 1
Flags: W
HStem: 220 60<91.1064 148.894 411.106 468.894> 303 60<91.1064 148.894 411.106 468.894> 387 60<91.1064 148.894 198.106 255.894 304.106 361.894 411.106 468.894> 470 60<144.106 201.894 358.106 415.894> 553 60<198.106 255.894 304.106 361.894> 637 60<251.106 308.894> 720 60<144.106 201.894 358.106 415.894>
VStem: 90 60<221.106 278.894 304.106 361.894 388.106 445.894> 143 60<471.106 528.894 721.106 778.894> 197 60<388.106 445.894 554.106 611.894> 250 60<638.106 695.894> 303 60<388.106 445.894 554.106 611.894> 357 60<471.106 528.894 721.106 778.894> 410 60<221.106 278.894 304.106 361.894 388.106 445.894>
LayerCount: 2
Back
Fore
SplineSet
470 250 m 0xfe04
 470 233 457 220 440 220 c 0
 423 220 410 233 410 250 c 0
 410 267 423 280 440 280 c 0
 457 280 470 267 470 250 c 0xfe04
150 250 m 0xff
 150 233 137 220 120 220 c 0
 103 220 90 233 90 250 c 0
 90 267 103 280 120 280 c 0
 137 280 150 267 150 250 c 0xff
470 333 m 0xfe04
 470 316 457 303 440 303 c 0
 423 303 410 316 410 333 c 0
 410 350 423 363 440 363 c 0
 457 363 470 350 470 333 c 0xfe04
150 333 m 0xff
 150 316 137 303 120 303 c 0
 103 303 90 316 90 333 c 0
 90 350 103 363 120 363 c 0
 137 363 150 350 150 333 c 0xff
470 417 m 0xfe04
 470 400 457 387 440 387 c 0
 423 387 410 400 410 417 c 0
 410 434 423 447 440 447 c 0
 457 447 470 434 470 417 c 0xfe04
363 417 m 0xfe10
 363 400 350 387 333 387 c 0
 316 387 303 400 303 417 c 0
 303 434 316 447 333 447 c 0
 350 447 363 434 363 417 c 0xfe10
257 417 m 0xfe40
 257 400 244 387 227 387 c 0
 210 387 197 400 197 417 c 0
 197 434 210 447 227 447 c 0
 244 447 257 434 257 417 c 0xfe40
150 417 m 0xff
 150 400 137 387 120 387 c 0
 103 387 90 400 90 417 c 0
 90 434 103 447 120 447 c 0
 137 447 150 434 150 417 c 0xff
417 500 m 0xfe08
 417 483 404 470 387 470 c 0
 370 470 357 483 357 500 c 0
 357 517 370 530 387 530 c 0
 404 530 417 517 417 500 c 0xfe08
203 500 m 0xfe80
 203 483 190 470 173 470 c 0
 156 470 143 483 143 500 c 0
 143 517 156 530 173 530 c 0
 190 530 203 517 203 500 c 0xfe80
363 583 m 0xfe10
 363 566 350 553 333 553 c 0
 316 553 303 566 303 583 c 0
 303 600 316 613 333 613 c 0
 350 613 363 600 363 583 c 0xfe10
257 583 m 0xfe40
 257 566 244 553 227 553 c 0
 210 553 197 566 197 583 c 0
 197 600 210 613 227 613 c 0
 244 613 257 600 257 583 c 0xfe40
310 667 m 0xfe20
 310 650 297 637 280 637 c 0
 263 637 250 650 250 667 c 0
 250 684 263 697 280 697 c 0
 297 697 310 684 310 667 c 0xfe20
417 750 m 0xfe08
 417 733 404 720 387 720 c 0
 370 720 357 733 357 750 c 0
 357 767 370 780 387 780 c 0
 404 780 417 767 417 750 c 0xfe08
203 750 m 0xfe80
 203 733 190 720 173 720 c 0
 156 720 143 733 143 750 c 0
 143 767 156 780 173 780 c 0
 190 780 203 767 203 750 c 0xfe80
EndSplineSet
EndChar

StartChar: G
Encoding: 71 71 54
Width: 600
VWidth: 0
UnlinkRmOvrlpSave: 1
Flags: W
HStem: 220 60<144.106 201.894 251.106 308.894 358.106 415.894> 303 60<91.1064 148.894 411.106 468.894> 387 60<91.1064 148.894 411.106 468.894> 470 60<91.1064 148.894 304.106 361.894 411.106 468.894> 553 60<91.1064 148.894> 637 60<91.1064 148.894 411.106 468.894> 720 60<144.106 201.894 251.106 308.894 358.106 415.894>
VStem: 90 60<304.106 361.894 388.106 445.894 471.106 528.894 554.106 611.894 638.106 695.894> 143 60<221.106 278.894 721.106 778.894> 250 60<221.106 278.894 721.106 778.894> 303 60<471.106 528.894> 357 60<221.106 278.894 721.106 778.894> 410 60<304.106 361.894 388.106 445.894 471.106 528.894 638.106 695.894>
LayerCount: 2
Back
Fore
SplineSet
417 250 m 0xfe10
 417 233 404 220 387 220 c 0
 370 220 357 233 357 250 c 0
 357 267 370 280 387 280 c 0
 404 280 417 267 417 250 c 0xfe10
310 250 m 0xfe40
 310 233 297 220 280 220 c 0
 263 220 250 233 250 250 c 0
 250 267 263 280 280 280 c 0
 297 280 310 267 310 250 c 0xfe40
203 250 m 0xfe80
 203 233 190 220 173 220 c 0
 156 220 143 233 143 250 c 0
 143 267 156 280 173 280 c 0
 190 280 203 267 203 250 c 0xfe80
470 333 m 0xfe08
 470 316 457 303 440 303 c 0
 423 303 410 316 410 333 c 0
 410 350 423 363 440 363 c 0
 457 363 470 350 470 333 c 0xfe08
150 333 m 0xff
 150 316 137 303 120 303 c 0
 103 303 90 316 90 333 c 0
 90 350 103 363 120 363 c 0
 137 363 150 350 150 333 c 0xff
470 417 m 0xfe08
 470 400 457 387 440 387 c 0
 423 387 410 400 410 417 c 0
 410 434 423 447 440 447 c 0
 457 447 470 434 470 417 c 0xfe08
150 417 m 0xff
 150 400 137 387 120 387 c 0
 103 387 90 400 90 417 c 0
 90 434 103 447 120 447 c 0
 137 447 150 434 150 417 c 0xff
470 500 m 0xfe08
 470 483 457 470 440 470 c 0
 423 470 410 483 410 500 c 0
 410 517 423 530 440 530 c 0
 457 530 470 517 470 500 c 0xfe08
363 500 m 0xfe20
 363 483 350 470 333 470 c 0
 316 470 303 483 303 500 c 0
 303 517 316 530 333 530 c 0
 350 530 363 517 363 500 c 0xfe20
150 500 m 0xff
 150 483 137 470 120 470 c 0
 103 470 90 483 90 500 c 0
 90 517 103 530 120 530 c 0
 137 530 150 517 150 500 c 0xff
150 583 m 0
 150 566 137 553 120 553 c 0
 103 553 90 566 90 583 c 0
 90 600 103 613 120 613 c 0
 137 613 150 600 150 583 c 0
470 667 m 0xfe08
 470 650 457 637 440 637 c 0
 423 637 410 650 410 667 c 0
 410 684 423 697 440 697 c 0
 457 697 470 684 470 667 c 0xfe08
150 667 m 0xff
 150 650 137 637 120 637 c 0
 103 637 90 650 90 667 c 0
 90 684 103 697 120 697 c 0
 137 697 150 684 150 667 c 0xff
417 750 m 0xfe10
 417 733 404 720 387 720 c 0
 370 720 357 733 357 750 c 0
 357 767 370 780 387 780 c 0
 404 780 417 767 417 750 c 0xfe10
310 750 m 0xfe40
 310 733 297 720 280 720 c 0
 263 720 250 733 250 750 c 0
 250 767 263 780 280 780 c 0
 297 780 310 767 310 750 c 0xfe40
203 750 m 0xfe80
 203 733 190 720 173 720 c 0
 156 720 143 733 143 750 c 0
 143 767 156 780 173 780 c 0
 190 780 203 767 203 750 c 0xfe80
EndSplineSet
EndChar

StartChar: Egrave
Encoding: 200 200 55
Width: 600
VWidth: 0
UnlinkRmOvrlpSave: 1
Flags: W
HStem: 220 60<91.1064 148.894 198.106 255.894 304.106 361.894 411.106 468.894> 303 60<91.1064 148.894> 387 60<91.1064 148.894 198.106 255.894 304.106 361.894> 470 60<91.1064 148.894> 553 60<91.1064 148.894 198.106 255.894 304.106 361.894 411.106 468.894> 637 60<304.106 361.894> 720 60<251.106 308.894>
VStem: 90 60<221.106 278.894 304.106 361.894 388.106 445.894 471.106 528.894 554.106 611.894> 197 60<221.106 278.894 388.106 445.894 554.106 611.894> 250 60<721.106 778.894> 303 60<221.106 278.894 388.106 445.894 554.106 611.894 638.106 695.894> 410 60<221.106 278.894 554.106 611.894>
LayerCount: 2
Back
Fore
SplineSet
470 250 m 0xff10
 470 233 457 220 440 220 c 0
 423 220 410 233 410 250 c 0
 410 267 423 280 440 280 c 0
 457 280 470 267 470 250 c 0xff10
363 250 m 0xff30
 363 233 350 220 333 220 c 0
 316 220 303 233 303 250 c 0
 303 267 316 280 333 280 c 0
 350 280 363 267 363 250 c 0xff30
257 250 m 0xff90
 257 233 244 220 227 220 c 0
 210 220 197 233 197 250 c 0
 197 267 210 280 227 280 c 0
 244 280 257 267 257 250 c 0xff90
150 250 m 0
 150 233 137 220 120 220 c 0
 103 220 90 233 90 250 c 0
 90 267 103 280 120 280 c 0
 137 280 150 267 150 250 c 0
150 333 m 0
 150 316 137 303 120 303 c 0
 103 303 90 316 90 333 c 0
 90 350 103 363 120 363 c 0
 137 363 150 350 150 333 c 0
363 417 m 0xff30
 363 400 350 387 333 387 c 0
 316 387 303 400 303 417 c 0
 303 434 316 447 333 447 c 0
 350 447 363 434 363 417 c 0xff30
257 417 m 0xff90
 257 400 244 387 227 387 c 0
 210 387 197 400 197 417 c 0
 197 434 210 447 227 447 c 0
 244 447 257 434 257 417 c 0xff90
150 417 m 0
 150 400 137 387 120 387 c 0
 103 387 90 400 90 417 c 0
 90 434 103 447 120 447 c 0
 137 447 150 434 150 417 c 0
150 500 m 0
 150 483 137 470 120 470 c 0
 103 470 90 483 90 500 c 0
 90 517 103 530 120 530 c 0
 137 530 150 517 150 500 c 0
470 583 m 0
 470 566 457 553 440 553 c 0
 423 553 410 566 410 583 c 0
 410 600 423 613 440 613 c 0
 457 613 470 600 470 583 c 0
363 583 m 0xff30
 363 566 350 553 333 553 c 0
 316 553 303 566 303 583 c 0
 303 600 316 613 333 613 c 0
 350 613 363 600 363 583 c 0xff30
257 583 m 0xff90
 257 566 244 553 227 553 c 0
 210 553 197 566 197 583 c 0
 197 600 210 613 227 613 c 0
 244 613 257 600 257 583 c 0xff90
150 583 m 0
 150 566 137 553 120 553 c 0
 103 553 90 566 90 583 c 0
 90 600 103 613 120 613 c 0
 137 613 150 600 150 583 c 0
363 667 m 0xff30
 363 650 350 637 333 637 c 0
 316 637 303 650 303 667 c 0
 303 684 316 697 333 697 c 0
 350 697 363 684 363 667 c 0xff30
310 750 m 0xff50
 310 733 297 720 280 720 c 0
 263 720 250 733 250 750 c 0
 250 767 263 780 280 780 c 0
 297 780 310 767 310 750 c 0xff50
EndSplineSet
EndChar

StartChar: K
Encoding: 75 75 56
Width: 600
VWidth: 0
UnlinkRmOvrlpSave: 1
Flags: W
HStem: 220 60<91.1064 148.894 411.106 468.894> 303 60<91.1064 148.894 358.106 415.894> 387 60<91.1064 148.894 304.106 361.894> 470 60<91.1064 148.894 251.106 308.894> 553 60<91.1064 148.894 198.106 255.894> 637 60<91.1064 148.894 304.106 361.894> 720 60<91.1064 148.894 411.106 468.894>
VStem: 90 60<221.106 278.894 304.106 361.894 388.106 445.894 471.106 528.894 554.106 611.894 638.106 695.894 721.106 778.894> 197 60<554.106 611.894> 250 60<471.106 528.894> 303 60<388.106 445.894 638.106 695.894> 357 60<304.106 361.894> 410 60<221.106 278.894 721.106 778.894>
LayerCount: 2
Back
Fore
SplineSet
470 250 m 0xff08
 470 233 457 220 440 220 c 0
 423 220 410 233 410 250 c 0
 410 267 423 280 440 280 c 0
 457 280 470 267 470 250 c 0xff08
150 250 m 0
 150 233 137 220 120 220 c 0
 103 220 90 233 90 250 c 0
 90 267 103 280 120 280 c 0
 137 280 150 267 150 250 c 0
417 333 m 0xff10
 417 316 404 303 387 303 c 0
 370 303 357 316 357 333 c 0
 357 350 370 363 387 363 c 0
 404 363 417 350 417 333 c 0xff10
150 333 m 0
 150 316 137 303 120 303 c 0
 103 303 90 316 90 333 c 0
 90 350 103 363 120 363 c 0
 137 363 150 350 150 333 c 0
363 417 m 0xff20
 363 400 350 387 333 387 c 0
 316 387 303 400 303 417 c 0
 303 434 316 447 333 447 c 0
 350 447 363 434 363 417 c 0xff20
150 417 m 0
 150 400 137 387 120 387 c 0
 103 387 90 400 90 417 c 0
 90 434 103 447 120 447 c 0
 137 447 150 434 150 417 c 0
310 500 m 0xff40
 310 483 297 470 280 470 c 0
 263 470 250 483 250 500 c 0
 250 517 263 530 280 530 c 0
 297 530 310 517 310 500 c 0xff40
150 500 m 0
 150 483 137 470 120 470 c 0
 103 470 90 483 90 500 c 0
 90 517 103 530 120 530 c 0
 137 530 150 517 150 500 c 0
257 583 m 0xff80
 257 566 244 553 227 553 c 0
 210 553 197 566 197 583 c 0
 197 600 210 613 227 613 c 0
 244 613 257 600 257 583 c 0xff80
150 583 m 0
 150 566 137 553 120 553 c 0
 103 553 90 566 90 583 c 0
 90 600 103 613 120 613 c 0
 137 613 150 600 150 583 c 0
363 667 m 0xff20
 363 650 350 637 333 637 c 0
 316 637 303 650 303 667 c 0
 303 684 316 697 333 697 c 0
 350 697 363 684 363 667 c 0xff20
150 667 m 0
 150 650 137 637 120 637 c 0
 103 637 90 650 90 667 c 0
 90 684 103 697 120 697 c 0
 137 697 150 684 150 667 c 0
470 750 m 0xff08
 470 733 457 720 440 720 c 0
 423 720 410 733 410 750 c 0
 410 767 423 780 440 780 c 0
 457 780 470 767 470 750 c 0xff08
150 750 m 0
 150 733 137 720 120 720 c 0
 103 720 90 733 90 750 c 0
 90 767 103 780 120 780 c 0
 137 780 150 767 150 750 c 0
EndSplineSet
EndChar

StartChar: O
Encoding: 79 79 57
Width: 600
VWidth: 0
UnlinkRmOvrlpSave: 1
Flags: W
HStem: 220 60<144.106 201.894 251.106 308.894 358.106 415.894> 303 60<91.1064 148.894 411.106 468.894> 387 60<91.1064 148.894 411.106 468.894> 470 60<91.1064 148.894 411.106 468.894> 553 60<91.1064 148.894 411.106 468.894> 637 60<91.1064 148.894 411.106 468.894> 720 60<144.106 201.894 251.106 308.894 358.106 415.894>
VStem: 90 60<304.106 361.894 388.106 445.894 471.106 528.894 554.106 611.894 638.106 695.894> 143 60<221.106 278.894 721.106 778.894> 250 60<221.106 278.894 721.106 778.894> 357 60<221.106 278.894 721.106 778.894> 410 60<304.106 361.894 388.106 445.894 471.106 528.894 554.106 611.894 638.106 695.894>
LayerCount: 2
Back
Fore
SplineSet
417 250 m 0xfe60
 417 233 404 220 387 220 c 0
 370 220 357 233 357 250 c 0
 357 267 370 280 387 280 c 0
 404 280 417 267 417 250 c 0xfe60
310 250 m 0
 310 233 297 220 280 220 c 0
 263 220 250 233 250 250 c 0
 250 267 263 280 280 280 c 0
 297 280 310 267 310 250 c 0
203 250 m 0xfec0
 203 233 190 220 173 220 c 0
 156 220 143 233 143 250 c 0
 143 267 156 280 173 280 c 0
 190 280 203 267 203 250 c 0xfec0
470 333 m 0xfe50
 470 316 457 303 440 303 c 0
 423 303 410 316 410 333 c 0
 410 350 423 363 440 363 c 0
 457 363 470 350 470 333 c 0xfe50
150 333 m 0xff40
 150 316 137 303 120 303 c 0
 103 303 90 316 90 333 c 0
 90 350 103 363 120 363 c 0
 137 363 150 350 150 333 c 0xff40
470 417 m 0xfe50
 470 400 457 387 440 387 c 0
 423 387 410 400 410 417 c 0
 410 434 423 447 440 447 c 0
 457 447 470 434 470 417 c 0xfe50
150 417 m 0xff40
 150 400 137 387 120 387 c 0
 103 387 90 400 90 417 c 0
 90 434 103 447 120 447 c 0
 137 447 150 434 150 417 c 0xff40
470 500 m 0xfe50
 470 483 457 470 440 470 c 0
 423 470 410 483 410 500 c 0
 410 517 423 530 440 530 c 0
 457 530 470 517 470 500 c 0xfe50
150 500 m 0xff40
 150 483 137 470 120 470 c 0
 103 470 90 483 90 500 c 0
 90 517 103 530 120 530 c 0
 137 530 150 517 150 500 c 0xff40
470 583 m 0xfe50
 470 566 457 553 440 553 c 0
 423 553 410 566 410 583 c 0
 410 600 423 613 440 613 c 0
 457 613 470 600 470 583 c 0xfe50
150 583 m 0xff40
 150 566 137 553 120 553 c 0
 103 553 90 566 90 583 c 0
 90 600 103 613 120 613 c 0
 137 613 150 600 150 583 c 0xff40
470 667 m 0xfe50
 470 650 457 637 440 637 c 0
 423 637 410 650 410 667 c 0
 410 684 423 697 440 697 c 0
 457 697 470 684 470 667 c 0xfe50
150 667 m 0xff40
 150 650 137 637 120 637 c 0
 103 637 90 650 90 667 c 0
 90 684 103 697 120 697 c 0
 137 697 150 684 150 667 c 0xff40
417 750 m 0xfe60
 417 733 404 720 387 720 c 0
 370 720 357 733 357 750 c 0
 357 767 370 780 387 780 c 0
 404 780 417 767 417 750 c 0xfe60
310 750 m 0
 310 733 297 720 280 720 c 0
 263 720 250 733 250 750 c 0
 250 767 263 780 280 780 c 0
 297 780 310 767 310 750 c 0
203 750 m 0xfec0
 203 733 190 720 173 720 c 0
 156 720 143 733 143 750 c 0
 143 767 156 780 173 780 c 0
 190 780 203 767 203 750 c 0xfec0
EndSplineSet
EndChar

StartChar: S
Encoding: 83 83 58
Width: 600
VWidth: 0
UnlinkRmOvrlpSave: 1
Flags: W
HStem: 220 60<144.106 201.894 251.106 308.894 358.106 415.894> 303 60<91.1064 148.894 411.106 468.894> 387 60<411.106 468.894> 470 60<144.106 201.894 251.106 308.894 358.106 415.894> 553 60<91.1064 148.894> 637 60<91.1064 148.894 411.106 468.894> 720 60<144.106 201.894 251.106 308.894 358.106 415.894>
VStem: 90 60<304.106 361.894 554.106 611.894 638.106 695.894> 143 60<221.106 278.894 471.106 528.894 721.106 778.894> 250 60<221.106 278.894 471.106 528.894 721.106 778.894> 357 60<221.106 278.894 471.106 528.894 721.106 778.894> 410 60<304.106 361.894 388.106 445.894 638.106 695.894>
LayerCount: 2
Back
Fore
SplineSet
417 250 m 0xfe60
 417 233 404 220 387 220 c 0
 370 220 357 233 357 250 c 0
 357 267 370 280 387 280 c 0
 404 280 417 267 417 250 c 0xfe60
310 250 m 0
 310 233 297 220 280 220 c 0
 263 220 250 233 250 250 c 0
 250 267 263 280 280 280 c 0
 297 280 310 267 310 250 c 0
203 250 m 0xfec0
 203 233 190 220 173 220 c 0
 156 220 143 233 143 250 c 0
 143 267 156 280 173 280 c 0
 190 280 203 267 203 250 c 0xfec0
470 333 m 0xfe50
 470 316 457 303 440 303 c 0
 423 303 410 316 410 333 c 0
 410 350 423 363 440 363 c 0
 457 363 470 350 470 333 c 0xfe50
150 333 m 0xff40
 150 316 137 303 120 303 c 0
 103 303 90 316 90 333 c 0
 90 350 103 363 120 363 c 0
 137 363 150 350 150 333 c 0xff40
470 417 m 0xfe50
 470 400 457 387 440 387 c 0
 423 387 410 400 410 417 c 0
 410 434 423 447 440 447 c 0
 457 447 470 434 470 417 c 0xfe50
417 500 m 0xfe60
 417 483 404 470 387 470 c 0
 370 470 357 483 357 500 c 0
 357 517 370 530 387 530 c 0
 404 530 417 517 417 500 c 0xfe60
310 500 m 0
 310 483 297 470 280 470 c 0
 263 470 250 483 250 500 c 0
 250 517 263 530 280 530 c 0
 297 530 310 517 310 500 c 0
203 500 m 0xfec0
 203 483 190 470 173 470 c 0
 156 470 143 483 143 500 c 0
 143 517 156 530 173 530 c 0
 190 530 203 517 203 500 c 0xfec0
150 583 m 0xff40
 150 566 137 553 120 553 c 0
 103 553 90 566 90 583 c 0
 90 600 103 613 120 613 c 0
 137 613 150 600 150 583 c 0xff40
470 667 m 0xfe50
 470 650 457 637 440 637 c 0
 423 637 410 650 410 667 c 0
 410 684 423 697 440 697 c 0
 457 697 470 684 470 667 c 0xfe50
150 667 m 0xff40
 150 650 137 637 120 637 c 0
 103 637 90 650 90 667 c 0
 90 684 103 697 120 697 c 0
 137 697 150 684 150 667 c 0xff40
417 750 m 0xfe60
 417 733 404 720 387 720 c 0
 370 720 357 733 357 750 c 0
 357 767 370 780 387 780 c 0
 404 780 417 767 417 750 c 0xfe60
310 750 m 0
 310 733 297 720 280 720 c 0
 263 720 250 733 250 750 c 0
 250 767 263 780 280 780 c 0
 297 780 310 767 310 750 c 0
203 750 m 0xfec0
 203 733 190 720 173 720 c 0
 156 720 143 733 143 750 c 0
 143 767 156 780 173 780 c 0
 190 780 203 767 203 750 c 0xfec0
EndSplineSet
EndChar

StartChar: W
Encoding: 87 87 59
Width: 600
VWidth: 0
UnlinkRmOvrlpSave: 1
Flags: W
HStem: 220 60<144.106 201.894 358.106 415.894> 303 60<91.1064 148.894 198.106 255.894 304.106 361.894 411.106 468.894> 387 60<91.1064 148.894 251.106 308.894 411.106 468.894> 470 60<91.1064 148.894 251.106 308.894 411.106 468.894> 553 60<91.1064 148.894 411.106 468.894> 637 60<91.1064 148.894 411.106 468.894> 720 60<91.1064 148.894 411.106 468.894>
VStem: 90 60<304.106 361.894 388.106 445.894 471.106 528.894 554.106 611.894 638.106 695.894 721.106 778.894> 143 60<221.106 278.894> 197 60<304.106 361.894> 250 60<388.106 445.894 471.106 528.894> 303 60<304.106 361.894> 357 60<221.106 278.894> 410 60<304.106 361.894 388.106 445.894 471.106 528.894 554.106 611.894 638.106 695.894 721.106 778.894>
LayerCount: 2
Back
Fore
SplineSet
417 250 m 0xfe08
 417 233 404 220 387 220 c 0
 370 220 357 233 357 250 c 0
 357 267 370 280 387 280 c 0
 404 280 417 267 417 250 c 0xfe08
203 250 m 0xfe80
 203 233 190 220 173 220 c 0
 156 220 143 233 143 250 c 0
 143 267 156 280 173 280 c 0
 190 280 203 267 203 250 c 0xfe80
470 333 m 0xfe04
 470 316 457 303 440 303 c 0
 423 303 410 316 410 333 c 0
 410 350 423 363 440 363 c 0
 457 363 470 350 470 333 c 0xfe04
363 333 m 0xfe10
 363 316 350 303 333 303 c 0
 316 303 303 316 303 333 c 0
 303 350 316 363 333 363 c 0
 350 363 363 350 363 333 c 0xfe10
257 333 m 0xfe40
 257 316 244 303 227 303 c 0
 210 303 197 316 197 333 c 0
 197 350 210 363 227 363 c 0
 244 363 257 350 257 333 c 0xfe40
150 333 m 0xff
 150 316 137 303 120 303 c 0
 103 303 90 316 90 333 c 0
 90 350 103 363 120 363 c 0
 137 363 150 350 150 333 c 0xff
470 417 m 0xfe04
 470 400 457 387 440 387 c 0
 423 387 410 400 410 417 c 0
 410 434 423 447 440 447 c 0
 457 447 470 434 470 417 c 0xfe04
310 417 m 0xfe20
 310 400 297 387 280 387 c 0
 263 387 250 400 250 417 c 0
 250 434 263 447 280 447 c 0
 297 447 310 434 310 417 c 0xfe20
150 417 m 0xff
 150 400 137 387 120 387 c 0
 103 387 90 400 90 417 c 0
 90 434 103 447 120 447 c 0
 137 447 150 434 150 417 c 0xff
470 500 m 0xfe04
 470 483 457 470 440 470 c 0
 423 470 410 483 410 500 c 0
 410 517 423 530 440 530 c 0
 457 530 470 517 470 500 c 0xfe04
310 500 m 0xfe20
 310 483 297 470 280 470 c 0
 263 470 250 483 250 500 c 0
 250 517 263 530 280 530 c 0
 297 530 310 517 310 500 c 0xfe20
150 500 m 0xff
 150 483 137 470 120 470 c 0
 103 470 90 483 90 500 c 0
 90 517 103 530 120 530 c 0
 137 530 150 517 150 500 c 0xff
470 583 m 0xfe04
 470 566 457 553 440 553 c 0
 423 553 410 566 410 583 c 0
 410 600 423 613 440 613 c 0
 457 613 470 600 470 583 c 0xfe04
150 583 m 0xff
 150 566 137 553 120 553 c 0
 103 553 90 566 90 583 c 0
 90 600 103 613 120 613 c 0
 137 613 150 600 150 583 c 0xff
470 667 m 0xfe04
 470 650 457 637 440 637 c 0
 423 637 410 650 410 667 c 0
 410 684 423 697 440 697 c 0
 457 697 470 684 470 667 c 0xfe04
150 667 m 0xff
 150 650 137 637 120 637 c 0
 103 637 90 650 90 667 c 0
 90 684 103 697 120 697 c 0
 137 697 150 684 150 667 c 0xff
470 750 m 0xfe04
 470 733 457 720 440 720 c 0
 423 720 410 733 410 750 c 0
 410 767 423 780 440 780 c 0
 457 780 470 767 470 750 c 0xfe04
150 750 m 0xff
 150 733 137 720 120 720 c 0
 103 720 90 733 90 750 c 0
 90 767 103 780 120 780 c 0
 137 780 150 767 150 750 c 0xff
EndSplineSet
EndChar

StartChar: Oslash
Encoding: 216 216 60
Width: 600
VWidth: 0
UnlinkRmOvrlpSave: 1
Flags: W
HStem: 220 60<198.106 255.894 304.106 361.894> 303 60<144.106 201.894 358.106 415.894> 387 60<91.1064 148.894 198.106 255.894 411.106 468.894> 470 60<91.1064 148.894 251.106 308.894 411.106 468.894> 553 60<91.1064 148.894 304.106 361.894 411.106 468.894> 637 60<144.106 201.894 358.106 415.894> 720 60<198.106 255.894 304.106 361.894>
VStem: 90 60<388.106 445.894 471.106 528.894 554.106 611.894> 143 60<304.106 361.894 638.106 695.894> 197 60<221.106 278.894 388.106 445.894 721.106 778.894> 250 60<471.106 528.894> 303 60<221.106 278.894 554.106 611.894 721.106 778.894> 357 60<304.106 361.894 638.106 695.894> 410 60<388.106 445.894 471.106 528.894 554.106 611.894>
LayerCount: 2
Back
Fore
SplineSet
363 250 m 0xfe10
 363 233 350 220 333 220 c 0
 316 220 303 233 303 250 c 0
 303 267 316 280 333 280 c 0
 350 280 363 267 363 250 c 0xfe10
257 250 m 0xfe40
 257 233 244 220 227 220 c 0
 210 220 197 233 197 250 c 0
 197 267 210 280 227 280 c 0
 244 280 257 267 257 250 c 0xfe40
417 333 m 0xfe08
 417 316 404 303 387 303 c 0
 370 303 357 316 357 333 c 0
 357 350 370 363 387 363 c 0
 404 363 417 350 417 333 c 0xfe08
203 333 m 0xfe80
 203 316 190 303 173 303 c 0
 156 303 143 316 143 333 c 0
 143 350 156 363 173 363 c 0
 190 363 203 350 203 333 c 0xfe80
470 417 m 0xfe04
 470 400 457 387 440 387 c 0
 423 387 410 400 410 417 c 0
 410 434 423 447 440 447 c 0
 457 447 470 434 470 417 c 0xfe04
257 417 m 0xfe40
 257 400 244 387 227 387 c 0
 210 387 197 400 197 417 c 0
 197 434 210 447 227 447 c 0
 244 447 257 434 257 417 c 0xfe40
150 417 m 0xff
 150 400 137 387 120 387 c 0
 103 387 90 400 90 417 c 0
 90 434 103 447 120 447 c 0
 137 447 150 434 150 417 c 0xff
470 500 m 0xfe04
 470 483 457 470 440 470 c 0
 423 470 410 483 410 500 c 0
 410 517 423 530 440 530 c 0
 457 530 470 517 470 500 c 0xfe04
310 500 m 0xfe20
 310 483 297 470 280 470 c 0
 263 470 250 483 250 500 c 0
 250 517 263 530 280 530 c 0
 297 530 310 517 310 500 c 0xfe20
150 500 m 0xff
 150 483 137 470 120 470 c 0
 103 470 90 483 90 500 c 0
 90 517 103 530 120 530 c 0
 137 530 150 517 150 500 c 0xff
470 583 m 0xfe04
 470 566 457 553 440 553 c 0
 423 553 410 566 410 583 c 0
 410 600 423 613 440 613 c 0
 457 613 470 600 470 583 c 0xfe04
363 583 m 0xfe10
 363 566 350 553 333 553 c 0
 316 553 303 566 303 583 c 0
 303 600 316 613 333 613 c 0
 350 613 363 600 363 583 c 0xfe10
150 583 m 0xff
 150 566 137 553 120 553 c 0
 103 553 90 566 90 583 c 0
 90 600 103 613 120 613 c 0
 137 613 150 600 150 583 c 0xff
417 667 m 0xfe08
 417 650 404 637 387 637 c 0
 370 637 357 650 357 667 c 0
 357 684 370 697 387 697 c 0
 404 697 417 684 417 667 c 0xfe08
203 667 m 0xfe80
 203 650 190 637 173 637 c 0
 156 637 143 650 143 667 c 0
 143 684 156 697 173 697 c 0
 190 697 203 684 203 667 c 0xfe80
363 750 m 0xfe10
 363 733 350 720 333 720 c 0
 316 720 303 733 303 750 c 0
 303 767 316 780 333 780 c 0
 350 780 363 767 363 750 c 0xfe10
257 750 m 0xfe40
 257 733 244 720 227 720 c 0
 210 720 197 733 197 750 c 0
 197 767 210 780 227 780 c 0
 244 780 257 767 257 750 c 0xfe40
EndSplineSet
EndChar

StartChar: bracketleft
Encoding: 91 91 61
Width: 600
VWidth: 0
UnlinkRmOvrlpSave: 1
Flags: W
HStem: 220 60<91.1064 148.894 198.106 255.894 305.106 362.894> 303 60<91.1064 148.894> 387 60<91.1064 148.894> 470 60<91.1064 148.894> 553 60<91.1064 148.894> 637 60<91.1064 148.894> 720 60<91.1064 148.894 198.106 255.894 305.106 362.894>
VStem: 90 60<221.106 278.894 304.106 361.894 388.106 445.894 471.106 528.894 554.106 611.894 638.106 695.894 721.106 778.894> 197 60<221.106 278.894 721.106 778.894> 304 60<221.106 278.894 721.106 778.894>
CounterMasks: 1 01c0
LayerCount: 2
Back
Fore
SplineSet
364 250 m 0
 364 233 351 220 334 220 c 0
 317 220 304 233 304 250 c 0
 304 267 317 280 334 280 c 0
 351 280 364 267 364 250 c 0
257 250 m 0
 257 233 244 220 227 220 c 0
 210 220 197 233 197 250 c 0
 197 267 210 280 227 280 c 0
 244 280 257 267 257 250 c 0
150 250 m 0
 150 233 137 220 120 220 c 0
 103 220 90 233 90 250 c 0
 90 267 103 280 120 280 c 0
 137 280 150 267 150 250 c 0
150 333 m 0
 150 316 137 303 120 303 c 0
 103 303 90 316 90 333 c 0
 90 350 103 363 120 363 c 0
 137 363 150 350 150 333 c 0
150 417 m 0
 150 400 137 387 120 387 c 0
 103 387 90 400 90 417 c 0
 90 434 103 447 120 447 c 0
 137 447 150 434 150 417 c 0
150 500 m 0
 150 483 137 470 120 470 c 0
 103 470 90 483 90 500 c 0
 90 517 103 530 120 530 c 0
 137 530 150 517 150 500 c 0
150 583 m 0
 150 566 137 553 120 553 c 0
 103 553 90 566 90 583 c 0
 90 600 103 613 120 613 c 0
 137 613 150 600 150 583 c 0
150 667 m 0
 150 650 137 637 120 637 c 0
 103 637 90 650 90 667 c 0
 90 684 103 697 120 697 c 0
 137 697 150 684 150 667 c 0
364 750 m 0
 364 733 351 720 334 720 c 0
 317 720 304 733 304 750 c 0
 304 767 317 780 334 780 c 0
 351 780 364 767 364 750 c 0
257 750 m 0
 257 733 244 720 227 720 c 0
 210 720 197 733 197 750 c 0
 197 767 210 780 227 780 c 0
 244 780 257 767 257 750 c 0
150 750 m 0
 150 733 137 720 120 720 c 0
 103 720 90 733 90 750 c 0
 90 767 103 780 120 780 c 0
 137 780 150 767 150 750 c 0
EndSplineSet
EndChar

StartChar: Udieresis
Encoding: 220 220 62
Width: 600
VWidth: 0
UnlinkRmOvrlpSave: 1
Flags: W
HStem: 220 60<144.106 201.894 251.106 308.894 358.106 415.894> 303 60<91.1064 148.894 411.106 468.894> 387 60<91.1064 148.894 411.106 468.894> 470 60<91.1064 148.894 411.106 468.894> 553 60<91.1064 148.894 411.106 468.894> 720 60<91.1064 148.894 411.106 468.894>
VStem: 90 60<304.106 361.894 388.106 445.894 471.106 528.894 554.106 611.894 721.106 778.894> 143 60<221.106 278.894> 250 60<221.106 278.894> 357 60<221.106 278.894> 410 60<304.106 361.894 388.106 445.894 471.106 528.894 554.106 611.894 721.106 778.894>
LayerCount: 2
Back
Fore
SplineSet
417 250 m 0xfcc0
 417 233 404 220 387 220 c 0
 370 220 357 233 357 250 c 0
 357 267 370 280 387 280 c 0
 404 280 417 267 417 250 c 0xfcc0
310 250 m 0
 310 233 297 220 280 220 c 0
 263 220 250 233 250 250 c 0
 250 267 263 280 280 280 c 0
 297 280 310 267 310 250 c 0
203 250 m 0xfd80
 203 233 190 220 173 220 c 0
 156 220 143 233 143 250 c 0
 143 267 156 280 173 280 c 0
 190 280 203 267 203 250 c 0xfd80
470 333 m 0xfca0
 470 316 457 303 440 303 c 0
 423 303 410 316 410 333 c 0
 410 350 423 363 440 363 c 0
 457 363 470 350 470 333 c 0xfca0
150 333 m 0xfe80
 150 316 137 303 120 303 c 0
 103 303 90 316 90 333 c 0
 90 350 103 363 120 363 c 0
 137 363 150 350 150 333 c 0xfe80
470 417 m 0xfca0
 470 400 457 387 440 387 c 0
 423 387 410 400 410 417 c 0
 410 434 423 447 440 447 c 0
 457 447 470 434 470 417 c 0xfca0
150 417 m 0xfe80
 150 400 137 387 120 387 c 0
 103 387 90 400 90 417 c 0
 90 434 103 447 120 447 c 0
 137 447 150 434 150 417 c 0xfe80
470 500 m 0xfca0
 470 483 457 470 440 470 c 0
 423 470 410 483 410 500 c 0
 410 517 423 530 440 530 c 0
 457 530 470 517 470 500 c 0xfca0
150 500 m 0xfe80
 150 483 137 470 120 470 c 0
 103 470 90 483 90 500 c 0
 90 517 103 530 120 530 c 0
 137 530 150 517 150 500 c 0xfe80
470 583 m 0xfca0
 470 566 457 553 440 553 c 0
 423 553 410 566 410 583 c 0
 410 600 423 613 440 613 c 0
 457 613 470 600 470 583 c 0xfca0
150 583 m 0xfe80
 150 566 137 553 120 553 c 0
 103 553 90 566 90 583 c 0
 90 600 103 613 120 613 c 0
 137 613 150 600 150 583 c 0xfe80
470 750 m 0xfca0
 470 733 457 720 440 720 c 0
 423 720 410 733 410 750 c 0
 410 767 423 780 440 780 c 0
 457 780 470 767 470 750 c 0xfca0
150 750 m 0xfe80
 150 733 137 720 120 720 c 0
 103 720 90 733 90 750 c 0
 90 767 103 780 120 780 c 0
 137 780 150 767 150 750 c 0xfe80
EndSplineSet
EndChar

StartChar: underscore
Encoding: 95 95 63
Width: 600
VWidth: 0
UnlinkRmOvrlpSave: 1
Flags: W
HStem: 220 60<91.1064 148.894 198.106 255.894 304.106 361.894 411.106 468.894>
VStem: 90 60<221.106 278.894> 197 60<221.106 278.894> 303 60<221.106 278.894> 410 60<221.106 278.894>
LayerCount: 2
Back
Fore
SplineSet
470 250 m 0
 470 233 457 220 440 220 c 0
 423 220 410 233 410 250 c 0
 410 267 423 280 440 280 c 0
 457 280 470 267 470 250 c 0
363 250 m 0
 363 233 350 220 333 220 c 0
 316 220 303 233 303 250 c 0
 303 267 316 280 333 280 c 0
 350 280 363 267 363 250 c 0
257 250 m 0
 257 233 244 220 227 220 c 0
 210 220 197 233 197 250 c 0
 197 267 210 280 227 280 c 0
 244 280 257 267 257 250 c 0
150 250 m 0
 150 233 137 220 120 220 c 0
 103 220 90 233 90 250 c 0
 90 267 103 280 120 280 c 0
 137 280 150 267 150 250 c 0
EndSplineSet
EndChar

StartChar: glyph64
Encoding: 567 567 64
Width: 600
VWidth: 0
UnlinkRmOvrlpSave: 1
Flags: W
HStem: 220 60<144.106 201.894 251.106 308.894 358.106 415.894> 303 60<91.1064 148.894 411.106 468.894> 387 60<411.106 468.894> 470 60<411.106 468.894> 553 60<411.106 468.894>
VStem: 90 60<304.106 361.894> 143 60<221.106 278.894> 250 60<221.106 278.894> 357 60<221.106 278.894> 410 60<304.106 361.894 388.106 445.894 471.106 528.894 554.106 611.894>
LayerCount: 2
Back
Fore
SplineSet
417 250 m 0xf980
 417 233 404 220 387 220 c 0
 370 220 357 233 357 250 c 0
 357 267 370 280 387 280 c 0
 404 280 417 267 417 250 c 0xf980
310 250 m 0
 310 233 297 220 280 220 c 0
 263 220 250 233 250 250 c 0
 250 267 263 280 280 280 c 0
 297 280 310 267 310 250 c 0
203 250 m 0xfb
 203 233 190 220 173 220 c 0
 156 220 143 233 143 250 c 0
 143 267 156 280 173 280 c 0
 190 280 203 267 203 250 c 0xfb
470 333 m 0xf940
 470 316 457 303 440 303 c 0
 423 303 410 316 410 333 c 0
 410 350 423 363 440 363 c 0
 457 363 470 350 470 333 c 0xf940
150 333 m 0xfd
 150 316 137 303 120 303 c 0
 103 303 90 316 90 333 c 0
 90 350 103 363 120 363 c 0
 137 363 150 350 150 333 c 0xfd
470 417 m 0xf940
 470 400 457 387 440 387 c 0
 423 387 410 400 410 417 c 0
 410 434 423 447 440 447 c 0
 457 447 470 434 470 417 c 0xf940
470 500 m 0
 470 483 457 470 440 470 c 0
 423 470 410 483 410 500 c 0
 410 517 423 530 440 530 c 0
 457 530 470 517 470 500 c 0
470 583 m 0
 470 566 457 553 440 553 c 0
 423 553 410 566 410 583 c 0
 410 600 423 613 440 613 c 0
 457 613 470 600 470 583 c 0
EndSplineSet
EndChar

StartChar: agrave
Encoding: 224 224 65
Width: 600
VWidth: 0
UnlinkRmOvrlpSave: 1
Flags: W
HStem: 220 60<144.106 201.894 251.106 308.894 358.106 415.894> 303 60<91.1064 148.894 411.106 468.894> 387 60<144.106 201.894 251.106 308.894 358.106 415.894> 470 60<411.106 468.894> 553 60<144.106 201.894 251.106 308.894 358.106 415.894> 637 60<304.106 361.894> 720 60<251.106 308.894>
VStem: 90 60<304.106 361.894> 143 60<221.106 278.894 388.106 445.894 554.106 611.894> 250 60<221.106 278.894 388.106 445.894 554.106 611.894 721.106 778.894> 303 60<638.106 695.894> 357 60<221.106 278.894 388.106 445.894 554.106 611.894> 410 60<304.106 361.894 471.106 528.894>
LayerCount: 2
Back
Fore
SplineSet
417 250 m 0xfe10
 417 233 404 220 387 220 c 0
 370 220 357 233 357 250 c 0
 357 267 370 280 387 280 c 0
 404 280 417 267 417 250 c 0xfe10
310 250 m 0xfe40
 310 233 297 220 280 220 c 0
 263 220 250 233 250 250 c 0
 250 267 263 280 280 280 c 0
 297 280 310 267 310 250 c 0xfe40
203 250 m 0xfe80
 203 233 190 220 173 220 c 0
 156 220 143 233 143 250 c 0
 143 267 156 280 173 280 c 0
 190 280 203 267 203 250 c 0xfe80
470 333 m 0xfe08
 470 316 457 303 440 303 c 0
 423 303 410 316 410 333 c 0
 410 350 423 363 440 363 c 0
 457 363 470 350 470 333 c 0xfe08
150 333 m 0xff
 150 316 137 303 120 303 c 0
 103 303 90 316 90 333 c 0
 90 350 103 363 120 363 c 0
 137 363 150 350 150 333 c 0xff
417 417 m 0xfe10
 417 400 404 387 387 387 c 0
 370 387 357 400 357 417 c 0
 357 434 370 447 387 447 c 0
 404 447 417 434 417 417 c 0xfe10
310 417 m 0xfe40
 310 400 297 387 280 387 c 0
 263 387 250 400 250 417 c 0
 250 434 263 447 280 447 c 0
 297 447 310 434 310 417 c 0xfe40
203 417 m 0xfe80
 203 400 190 387 173 387 c 0
 156 387 143 400 143 417 c 0
 143 434 156 447 173 447 c 0
 190 447 203 434 203 417 c 0xfe80
470 500 m 0xfe08
 470 483 457 470 440 470 c 0
 423 470 410 483 410 500 c 0
 410 517 423 530 440 530 c 0
 457 530 470 517 470 500 c 0xfe08
417 583 m 0xfe10
 417 566 404 553 387 553 c 0
 370 553 357 566 357 583 c 0
 357 600 370 613 387 613 c 0
 404 613 417 600 417 583 c 0xfe10
310 583 m 0xfe40
 310 566 297 553 280 553 c 0
 263 553 250 566 250 583 c 0
 250 600 263 613 280 613 c 0
 297 613 310 600 310 583 c 0xfe40
203 583 m 0xfe80
 203 566 190 553 173 553 c 0
 156 553 143 566 143 583 c 0
 143 600 156 613 173 613 c 0
 190 613 203 600 203 583 c 0xfe80
363 667 m 0xfe20
 363 650 350 637 333 637 c 0
 316 637 303 650 303 667 c 0
 303 684 316 697 333 697 c 0
 350 697 363 684 363 667 c 0xfe20
310 750 m 0xfe40
 310 733 297 720 280 720 c 0
 263 720 250 733 250 750 c 0
 250 767 263 780 280 780 c 0
 297 780 310 767 310 750 c 0xfe40
EndSplineSet
EndChar

StartChar: c
Encoding: 99 99 66
Width: 600
VWidth: 0
UnlinkRmOvrlpSave: 1
Flags: W
HStem: 220 60<144.106 201.894 251.106 308.894 358.106 415.894> 303 60<91.1064 148.894> 387 60<91.1064 148.894> 470 60<91.1064 148.894 411.106 468.894> 553 60<144.106 201.894 251.106 308.894 358.106 415.894>
VStem: 90 60<304.106 361.894 388.106 445.894 471.106 528.894> 143 60<221.106 278.894 554.106 611.894> 250 60<221.106 278.894 554.106 611.894> 357 60<221.106 278.894 554.106 611.894> 410 60<471.106 528.894>
LayerCount: 2
Back
Fore
SplineSet
417 250 m 0xf980
 417 233 404 220 387 220 c 0
 370 220 357 233 357 250 c 0
 357 267 370 280 387 280 c 0
 404 280 417 267 417 250 c 0xf980
310 250 m 0
 310 233 297 220 280 220 c 0
 263 220 250 233 250 250 c 0
 250 267 263 280 280 280 c 0
 297 280 310 267 310 250 c 0
203 250 m 0xfb
 203 233 190 220 173 220 c 0
 156 220 143 233 143 250 c 0
 143 267 156 280 173 280 c 0
 190 280 203 267 203 250 c 0xfb
150 333 m 0xfd
 150 316 137 303 120 303 c 0
 103 303 90 316 90 333 c 0
 90 350 103 363 120 363 c 0
 137 363 150 350 150 333 c 0xfd
150 417 m 0
 150 400 137 387 120 387 c 0
 103 387 90 400 90 417 c 0
 90 434 103 447 120 447 c 0
 137 447 150 434 150 417 c 0
470 500 m 0xf940
 470 483 457 470 440 470 c 0
 423 470 410 483 410 500 c 0
 410 517 423 530 440 530 c 0
 457 530 470 517 470 500 c 0xf940
150 500 m 0xfd
 150 483 137 470 120 470 c 0
 103 470 90 483 90 500 c 0
 90 517 103 530 120 530 c 0
 137 530 150 517 150 500 c 0xfd
417 583 m 0xf980
 417 566 404 553 387 553 c 0
 370 553 357 566 357 583 c 0
 357 600 370 613 387 613 c 0
 404 613 417 600 417 583 c 0xf980
310 583 m 0
 310 566 297 553 280 553 c 0
 263 553 250 566 250 583 c 0
 250 600 263 613 280 613 c 0
 297 613 310 600 310 583 c 0
203 583 m 0xfb
 203 566 190 553 173 553 c 0
 156 553 143 566 143 583 c 0
 143 600 156 613 173 613 c 0
 190 613 203 600 203 583 c 0xfb
EndSplineSet
EndChar

StartChar: adieresis
Encoding: 228 228 67
Width: 600
VWidth: 0
UnlinkRmOvrlpSave: 1
Flags: W
HStem: 220 60<144.106 201.894 251.106 308.894 358.106 415.894> 303 60<91.1064 148.894 411.106 468.894> 387 60<144.106 201.894 251.106 308.894 358.106 415.894> 470 60<411.106 468.894> 553 60<144.106 201.894 251.106 308.894 358.106 415.894> 720 60<144.106 201.894 358.106 415.894>
VStem: 90 60<304.106 361.894> 143 60<221.106 278.894 388.106 445.894 554.106 611.894 721.106 778.894> 250 60<221.106 278.894 388.106 445.894 554.106 611.894> 357 60<221.106 278.894 388.106 445.894 554.106 611.894 721.106 778.894> 410 60<304.106 361.894 471.106 528.894>
LayerCount: 2
Back
Fore
SplineSet
417 250 m 0xfcc0
 417 233 404 220 387 220 c 0
 370 220 357 233 357 250 c 0
 357 267 370 280 387 280 c 0
 404 280 417 267 417 250 c 0xfcc0
310 250 m 0
 310 233 297 220 280 220 c 0
 263 220 250 233 250 250 c 0
 250 267 263 280 280 280 c 0
 297 280 310 267 310 250 c 0
203 250 m 0xfd80
 203 233 190 220 173 220 c 0
 156 220 143 233 143 250 c 0
 143 267 156 280 173 280 c 0
 190 280 203 267 203 250 c 0xfd80
470 333 m 0xfca0
 470 316 457 303 440 303 c 0
 423 303 410 316 410 333 c 0
 410 350 423 363 440 363 c 0
 457 363 470 350 470 333 c 0xfca0
150 333 m 0xfe80
 150 316 137 303 120 303 c 0
 103 303 90 316 90 333 c 0
 90 350 103 363 120 363 c 0
 137 363 150 350 150 333 c 0xfe80
417 417 m 0xfcc0
 417 400 404 387 387 387 c 0
 370 387 357 400 357 417 c 0
 357 434 370 447 387 447 c 0
 404 447 417 434 417 417 c 0xfcc0
310 417 m 0
 310 400 297 387 280 387 c 0
 263 387 250 400 250 417 c 0
 250 434 263 447 280 447 c 0
 297 447 310 434 310 417 c 0
203 417 m 0xfd80
 203 400 190 387 173 387 c 0
 156 387 143 400 143 417 c 0
 143 434 156 447 173 447 c 0
 190 447 203 434 203 417 c 0xfd80
470 500 m 0xfca0
 470 483 457 470 440 470 c 0
 423 470 410 483 410 500 c 0
 410 517 423 530 440 530 c 0
 457 530 470 517 470 500 c 0xfca0
417 583 m 0xfcc0
 417 566 404 553 387 553 c 0
 370 553 357 566 357 583 c 0
 357 600 370 613 387 613 c 0
 404 613 417 600 417 583 c 0xfcc0
310 583 m 0
 310 566 297 553 280 553 c 0
 263 553 250 566 250 583 c 0
 250 600 263 613 280 613 c 0
 297 613 310 600 310 583 c 0
203 583 m 0xfd80
 203 566 190 553 173 553 c 0
 156 553 143 566 143 583 c 0
 143 600 156 613 173 613 c 0
 190 613 203 600 203 583 c 0xfd80
417 750 m 0xfcc0
 417 733 404 720 387 720 c 0
 370 720 357 733 357 750 c 0
 357 767 370 780 387 780 c 0
 404 780 417 767 417 750 c 0xfcc0
203 750 m 0xfd80
 203 733 190 720 173 720 c 0
 156 720 143 733 143 750 c 0
 143 767 156 780 173 780 c 0
 190 780 203 767 203 750 c 0xfd80
EndSplineSet
EndChar

StartChar: g
Encoding: 103 103 68
Width: 600
VWidth: 0
UnlinkRmOvrlpSave: 1
Flags: W
HStem: 220 60<91.1064 148.894 198.106 255.894 304.106 361.894 411.106 468.894> 303 60<411.106 468.894> 387 60<144.106 201.894 251.106 308.894 358.106 415.894> 470 60<91.1064 148.894 411.106 468.894> 553 60<144.106 201.894 251.106 308.894 358.106 415.894> 637 60<411.106 468.894>
VStem: 90 60<221.106 278.894 471.106 528.894> 143 60<388.106 445.894 554.106 611.894> 197 60<221.106 278.894> 250 60<388.106 445.894 554.106 611.894> 303 60<221.106 278.894> 357 60<388.106 445.894 554.106 611.894> 410 60<221.106 278.894 304.106 361.894 471.106 528.894 638.106 695.894>
LayerCount: 2
Back
Fore
SplineSet
470 250 m 0xfc08
 470 233 457 220 440 220 c 0
 423 220 410 233 410 250 c 0
 410 267 423 280 440 280 c 0
 457 280 470 267 470 250 c 0xfc08
363 250 m 0xfc20
 363 233 350 220 333 220 c 0
 316 220 303 233 303 250 c 0
 303 267 316 280 333 280 c 0
 350 280 363 267 363 250 c 0xfc20
257 250 m 0xfc80
 257 233 244 220 227 220 c 0
 210 220 197 233 197 250 c 0
 197 267 210 280 227 280 c 0
 244 280 257 267 257 250 c 0xfc80
150 250 m 0xfe
 150 233 137 220 120 220 c 0
 103 220 90 233 90 250 c 0
 90 267 103 280 120 280 c 0
 137 280 150 267 150 250 c 0xfe
470 333 m 0xfc08
 470 316 457 303 440 303 c 0
 423 303 410 316 410 333 c 0
 410 350 423 363 440 363 c 0
 457 363 470 350 470 333 c 0xfc08
417 417 m 0xfc10
 417 400 404 387 387 387 c 0
 370 387 357 400 357 417 c 0
 357 434 370 447 387 447 c 0
 404 447 417 434 417 417 c 0xfc10
310 417 m 0xfc40
 310 400 297 387 280 387 c 0
 263 387 250 400 250 417 c 0
 250 434 263 447 280 447 c 0
 297 447 310 434 310 417 c 0xfc40
203 417 m 0xfd
 203 400 190 387 173 387 c 0
 156 387 143 400 143 417 c 0
 143 434 156 447 173 447 c 0
 190 447 203 434 203 417 c 0xfd
470 500 m 0xfc08
 470 483 457 470 440 470 c 0
 423 470 410 483 410 500 c 0
 410 517 423 530 440 530 c 0
 457 530 470 517 470 500 c 0xfc08
150 500 m 0xfe
 150 483 137 470 120 470 c 0
 103 470 90 483 90 500 c 0
 90 517 103 530 120 530 c 0
 137 530 150 517 150 500 c 0xfe
417 583 m 0xfc10
 417 566 404 553 387 553 c 0
 370 553 357 566 357 583 c 0
 357 600 370 613 387 613 c 0
 404 613 417 600 417 583 c 0xfc10
310 583 m 0xfc40
 310 566 297 553 280 553 c 0
 263 553 250 566 250 583 c 0
 250 600 263 613 280 613 c 0
 297 613 310 600 310 583 c 0xfc40
203 583 m 0xfd
 203 566 190 553 173 553 c 0
 156 553 143 566 143 583 c 0
 143 600 156 613 173 613 c 0
 190 613 203 600 203 583 c 0xfd
470 667 m 0xfc08
 470 650 457 637 440 637 c 0
 423 637 410 650 410 667 c 0
 410 684 423 697 440 697 c 0
 457 697 470 684 470 667 c 0xfc08
EndSplineSet
EndChar

StartChar: egrave
Encoding: 232 232 69
Width: 600
VWidth: 0
UnlinkRmOvrlpSave: 1
Flags: W
HStem: 220 60<144.106 201.894 251.106 308.894 358.106 415.894> 303 60<91.1064 148.894> 387 60<91.1064 148.894 198.106 255.894 304.106 361.894 411.106 468.894> 470 60<91.1064 148.894 411.106 468.894> 553 60<144.106 201.894 251.106 308.894 358.106 415.894> 637 60<304.106 361.894> 720 60<251.106 308.894>
VStem: 90 60<304.106 361.894 388.106 445.894 471.106 528.894> 143 60<221.106 278.894 554.106 611.894> 197 60<388.106 445.894> 250 60<221.106 278.894 554.106 611.894 721.106 778.894> 303 60<388.106 445.894 638.106 695.894> 357 60<221.106 278.894 554.106 611.894> 410 60<388.106 445.894 471.106 528.894>
LayerCount: 2
Back
Fore
SplineSet
417 250 m 0xfe08
 417 233 404 220 387 220 c 0
 370 220 357 233 357 250 c 0
 357 267 370 280 387 280 c 0
 404 280 417 267 417 250 c 0xfe08
310 250 m 0xfe20
 310 233 297 220 280 220 c 0
 263 220 250 233 250 250 c 0
 250 267 263 280 280 280 c 0
 297 280 310 267 310 250 c 0xfe20
203 250 m 0xfe80
 203 233 190 220 173 220 c 0
 156 220 143 233 143 250 c 0
 143 267 156 280 173 280 c 0
 190 280 203 267 203 250 c 0xfe80
150 333 m 0xff
 150 316 137 303 120 303 c 0
 103 303 90 316 90 333 c 0
 90 350 103 363 120 363 c 0
 137 363 150 350 150 333 c 0xff
470 417 m 0xfe04
 470 400 457 387 440 387 c 0
 423 387 410 400 410 417 c 0
 410 434 423 447 440 447 c 0
 457 447 470 434 470 417 c 0xfe04
363 417 m 0xfe10
 363 400 350 387 333 387 c 0
 316 387 303 400 303 417 c 0
 303 434 316 447 333 447 c 0
 350 447 363 434 363 417 c 0xfe10
257 417 m 0xfe40
 257 400 244 387 227 387 c 0
 210 387 197 400 197 417 c 0
 197 434 210 447 227 447 c 0
 244 447 257 434 257 417 c 0xfe40
150 417 m 0xff
 150 400 137 387 120 387 c 0
 103 387 90 400 90 417 c 0
 90 434 103 447 120 447 c 0
 137 447 150 434 150 417 c 0xff
470 500 m 0xfe04
 470 483 457 470 440 470 c 0
 423 470 410 483 410 500 c 0
 410 517 423 530 440 530 c 0
 457 530 470 517 470 500 c 0xfe04
150 500 m 0xff
 150 483 137 470 120 470 c 0
 103 470 90 483 90 500 c 0
 90 517 103 530 120 530 c 0
 137 530 150 517 150 500 c 0xff
417 583 m 0xfe08
 417 566 404 553 387 553 c 0
 370 553 357 566 357 583 c 0
 357 600 370 613 387 613 c 0
 404 613 417 600 417 583 c 0xfe08
310 583 m 0xfe20
 310 566 297 553 280 553 c 0
 263 553 250 566 250 583 c 0
 250 600 263 613 280 613 c 0
 297 613 310 600 310 583 c 0xfe20
203 583 m 0xfe80
 203 566 190 553 173 553 c 0
 156 553 143 566 143 583 c 0
 143 600 156 613 173 613 c 0
 190 613 203 600 203 583 c 0xfe80
363 667 m 0xfe10
 363 650 350 637 333 637 c 0
 316 637 303 650 303 667 c 0
 303 684 316 697 333 697 c 0
 350 697 363 684 363 667 c 0xfe10
310 750 m 0xfe20
 310 733 297 720 280 720 c 0
 263 720 250 733 250 750 c 0
 250 767 263 780 280 780 c 0
 297 780 310 767 310 750 c 0xfe20
EndSplineSet
EndChar

StartChar: k
Encoding: 107 107 70
Width: 600
VWidth: 0
UnlinkRmOvrlpSave: 1
Flags: W
HStem: 220 60<91.1064 148.894 411.106 468.894> 303 60<91.1064 148.894 304.106 361.894> 387 60<91.1064 148.894 198.106 255.894> 470 60<91.1064 148.894 251.106 308.894> 553 60<91.1064 148.894 304.106 361.894> 637 60<91.1064 148.894> 720 60<91.1064 148.894>
VStem: 90 60<221.106 278.894 304.106 361.894 388.106 445.894 471.106 528.894 554.106 611.894 638.106 695.894 721.106 778.894> 197 60<388.106 445.894> 250 60<471.106 528.894> 303 60<304.106 361.894 554.106 611.894> 410 60<221.106 278.894>
LayerCount: 2
Back
Fore
SplineSet
470 250 m 0xff10
 470 233 457 220 440 220 c 0
 423 220 410 233 410 250 c 0
 410 267 423 280 440 280 c 0
 457 280 470 267 470 250 c 0xff10
150 250 m 0
 150 233 137 220 120 220 c 0
 103 220 90 233 90 250 c 0
 90 267 103 280 120 280 c 0
 137 280 150 267 150 250 c 0
363 333 m 0xff30
 363 316 350 303 333 303 c 0
 316 303 303 316 303 333 c 0
 303 350 316 363 333 363 c 0
 350 363 363 350 363 333 c 0xff30
150 333 m 0
 150 316 137 303 120 303 c 0
 103 303 90 316 90 333 c 0
 90 350 103 363 120 363 c 0
 137 363 150 350 150 333 c 0
257 417 m 0xff90
 257 400 244 387 227 387 c 0
 210 387 197 400 197 417 c 0
 197 434 210 447 227 447 c 0
 244 447 257 434 257 417 c 0xff90
150 417 m 0
 150 400 137 387 120 387 c 0
 103 387 90 400 90 417 c 0
 90 434 103 447 120 447 c 0
 137 447 150 434 150 417 c 0
310 500 m 0xff50
 310 483 297 470 280 470 c 0
 263 470 250 483 250 500 c 0
 250 517 263 530 280 530 c 0
 297 530 310 517 310 500 c 0xff50
150 500 m 0
 150 483 137 470 120 470 c 0
 103 470 90 483 90 500 c 0
 90 517 103 530 120 530 c 0
 137 530 150 517 150 500 c 0
363 583 m 0xff30
 363 566 350 553 333 553 c 0
 316 553 303 566 303 583 c 0
 303 600 316 613 333 613 c 0
 350 613 363 600 363 583 c 0xff30
150 583 m 0
 150 566 137 553 120 553 c 0
 103 553 90 566 90 583 c 0
 90 600 103 613 120 613 c 0
 137 613 150 600 150 583 c 0
150 667 m 0
 150 650 137 637 120 637 c 0
 103 637 90 650 90 667 c 0
 90 684 103 697 120 697 c 0
 137 697 150 684 150 667 c 0
150 750 m 0
 150 733 137 720 120 720 c 0
 103 720 90 733 90 750 c 0
 90 767 103 780 120 780 c 0
 137 780 150 767 150 750 c 0
EndSplineSet
EndChar

StartChar: o
Encoding: 111 111 71
Width: 600
VWidth: 0
UnlinkRmOvrlpSave: 1
Flags: W
HStem: 220 60<144.106 201.894 251.106 308.894 358.106 415.894> 303 60<91.1064 148.894 411.106 468.894> 387 60<91.1064 148.894 411.106 468.894> 470 60<91.1064 148.894 411.106 468.894> 553 60<144.106 201.894 251.106 308.894 358.106 415.894>
VStem: 90 60<304.106 361.894 388.106 445.894 471.106 528.894> 143 60<221.106 278.894 554.106 611.894> 250 60<221.106 278.894 554.106 611.894> 357 60<221.106 278.894 554.106 611.894> 410 60<304.106 361.894 388.106 445.894 471.106 528.894>
LayerCount: 2
Back
Fore
SplineSet
417 250 m 0xf980
 417 233 404 220 387 220 c 0
 370 220 357 233 357 250 c 0
 357 267 370 280 387 280 c 0
 404 280 417 267 417 250 c 0xf980
310 250 m 0
 310 233 297 220 280 220 c 0
 263 220 250 233 250 250 c 0
 250 267 263 280 280 280 c 0
 297 280 310 267 310 250 c 0
203 250 m 0xfb
 203 233 190 220 173 220 c 0
 156 220 143 233 143 250 c 0
 143 267 156 280 173 280 c 0
 190 280 203 267 203 250 c 0xfb
470 333 m 0xf940
 470 316 457 303 440 303 c 0
 423 303 410 316 410 333 c 0
 410 350 423 363 440 363 c 0
 457 363 470 350 470 333 c 0xf940
150 333 m 0xfd
 150 316 137 303 120 303 c 0
 103 303 90 316 90 333 c 0
 90 350 103 363 120 363 c 0
 137 363 150 350 150 333 c 0xfd
470 417 m 0xf940
 470 400 457 387 440 387 c 0
 423 387 410 400 410 417 c 0
 410 434 423 447 440 447 c 0
 457 447 470 434 470 417 c 0xf940
150 417 m 0xfd
 150 400 137 387 120 387 c 0
 103 387 90 400 90 417 c 0
 90 434 103 447 120 447 c 0
 137 447 150 434 150 417 c 0xfd
470 500 m 0xf940
 470 483 457 470 440 470 c 0
 423 470 410 483 410 500 c 0
 410 517 423 530 440 530 c 0
 457 530 470 517 470 500 c 0xf940
150 500 m 0xfd
 150 483 137 470 120 470 c 0
 103 470 90 483 90 500 c 0
 90 517 103 530 120 530 c 0
 137 530 150 517 150 500 c 0xfd
417 583 m 0xf980
 417 566 404 553 387 553 c 0
 370 553 357 566 357 583 c 0
 357 600 370 613 387 613 c 0
 404 613 417 600 417 583 c 0xf980
310 583 m 0
 310 566 297 553 280 553 c 0
 263 553 250 566 250 583 c 0
 250 600 263 613 280 613 c 0
 297 613 310 600 310 583 c 0
203 583 m 0xfb
 203 566 190 553 173 553 c 0
 156 553 143 566 143 583 c 0
 143 600 156 613 173 613 c 0
 190 613 203 600 203 583 c 0xfb
EndSplineSet
EndChar

StartChar: s
Encoding: 115 115 72
Width: 600
VWidth: 0
UnlinkRmOvrlpSave: 1
Flags: W
HStem: 220 60<144.106 201.894 251.106 308.894 358.106 415.894> 303 60<411.106 468.894> 387 60<144.106 201.894 251.106 308.894 358.106 415.894> 470 60<91.1064 148.894> 553 60<144.106 201.894 251.106 308.894 358.106 415.894>
VStem: 90 60<471.106 528.894> 143 60<221.106 278.894 388.106 445.894 554.106 611.894> 250 60<221.106 278.894 388.106 445.894 554.106 611.894> 357 60<221.106 278.894 388.106 445.894 554.106 611.894> 410 60<304.106 361.894>
LayerCount: 2
Back
Fore
SplineSet
417 250 m 0xf980
 417 233 404 220 387 220 c 0
 370 220 357 233 357 250 c 0
 357 267 370 280 387 280 c 0
 404 280 417 267 417 250 c 0xf980
310 250 m 0
 310 233 297 220 280 220 c 0
 263 220 250 233 250 250 c 0
 250 267 263 280 280 280 c 0
 297 280 310 267 310 250 c 0
203 250 m 0xfb
 203 233 190 220 173 220 c 0
 156 220 143 233 143 250 c 0
 143 267 156 280 173 280 c 0
 190 280 203 267 203 250 c 0xfb
470 333 m 0xf940
 470 316 457 303 440 303 c 0
 423 303 410 316 410 333 c 0
 410 350 423 363 440 363 c 0
 457 363 470 350 470 333 c 0xf940
417 417 m 0xf980
 417 400 404 387 387 387 c 0
 370 387 357 400 357 417 c 0
 357 434 370 447 387 447 c 0
 404 447 417 434 417 417 c 0xf980
310 417 m 0
 310 400 297 387 280 387 c 0
 263 387 250 400 250 417 c 0
 250 434 263 447 280 447 c 0
 297 447 310 434 310 417 c 0
203 417 m 0xfb
 203 400 190 387 173 387 c 0
 156 387 143 400 143 417 c 0
 143 434 156 447 173 447 c 0
 190 447 203 434 203 417 c 0xfb
150 500 m 0xfd
 150 483 137 470 120 470 c 0
 103 470 90 483 90 500 c 0
 90 517 103 530 120 530 c 0
 137 530 150 517 150 500 c 0xfd
417 583 m 0xf980
 417 566 404 553 387 553 c 0
 370 553 357 566 357 583 c 0
 357 600 370 613 387 613 c 0
 404 613 417 600 417 583 c 0xf980
310 583 m 0
 310 566 297 553 280 553 c 0
 263 553 250 566 250 583 c 0
 250 600 263 613 280 613 c 0
 297 613 310 600 310 583 c 0
203 583 m 0xfb
 203 566 190 553 173 553 c 0
 156 553 143 566 143 583 c 0
 143 600 156 613 173 613 c 0
 190 613 203 600 203 583 c 0xfb
EndSplineSet
EndChar

StartChar: glyph73
Encoding: 373 373 73
Width: 600
VWidth: 0
UnlinkRmOvrlpSave: 1
Flags: W
HStem: 220 60<144.106 201.894 358.106 415.894> 303 60<91.1064 148.894 198.106 255.894 304.106 361.894 411.106 468.894> 387 60<91.1064 148.894 251.106 308.894 411.106 468.894> 470 60<91.1064 148.894 411.106 468.894> 637 60<144.106 201.894 358.106 415.894> 720 60<198.106 255.894 304.106 361.894>
VStem: 90 60<304.106 361.894 388.106 445.894 471.106 528.894> 143 60<221.106 278.894 638.106 695.894> 197 60<304.106 361.894 721.106 778.894> 250 60<388.106 445.894> 303 60<304.106 361.894 721.106 778.894> 357 60<221.106 278.894 638.106 695.894> 410 60<304.106 361.894 388.106 445.894 471.106 528.894>
LayerCount: 2
Back
Fore
SplineSet
417 250 m 0xfc10
 417 233 404 220 387 220 c 0
 370 220 357 233 357 250 c 0
 357 267 370 280 387 280 c 0
 404 280 417 267 417 250 c 0xfc10
203 250 m 0xfd
 203 233 190 220 173 220 c 0
 156 220 143 233 143 250 c 0
 143 267 156 280 173 280 c 0
 190 280 203 267 203 250 c 0xfd
470 333 m 0xfc08
 470 316 457 303 440 303 c 0
 423 303 410 316 410 333 c 0
 410 350 423 363 440 363 c 0
 457 363 470 350 470 333 c 0xfc08
363 333 m 0xfc20
 363 316 350 303 333 303 c 0
 316 303 303 316 303 333 c 0
 303 350 316 363 333 363 c 0
 350 363 363 350 363 333 c 0xfc20
257 333 m 0xfc80
 257 316 244 303 227 303 c 0
 210 303 197 316 197 333 c 0
 197 350 210 363 227 363 c 0
 244 363 257 350 257 333 c 0xfc80
150 333 m 0xfe
 150 316 137 303 120 303 c 0
 103 303 90 316 90 333 c 0
 90 350 103 363 120 363 c 0
 137 363 150 350 150 333 c 0xfe
470 417 m 0xfc08
 470 400 457 387 440 387 c 0
 423 387 410 400 410 417 c 0
 410 434 423 447 440 447 c 0
 457 447 470 434 470 417 c 0xfc08
310 417 m 0xfc40
 310 400 297 387 280 387 c 0
 263 387 250 400 250 417 c 0
 250 434 263 447 280 447 c 0
 297 447 310 434 310 417 c 0xfc40
150 417 m 0xfe
 150 400 137 387 120 387 c 0
 103 387 90 400 90 417 c 0
 90 434 103 447 120 447 c 0
 137 447 150 434 150 417 c 0xfe
470 500 m 0xfc08
 470 483 457 470 440 470 c 0
 423 470 410 483 410 500 c 0
 410 517 423 530 440 530 c 0
 457 530 470 517 470 500 c 0xfc08
150 500 m 0xfe
 150 483 137 470 120 470 c 0
 103 470 90 483 90 500 c 0
 90 517 103 530 120 530 c 0
 137 530 150 517 150 500 c 0xfe
417 667 m 0xfc10
 417 650 404 637 387 637 c 0
 370 637 357 650 357 667 c 0
 357 684 370 697 387 697 c 0
 404 697 417 684 417 667 c 0xfc10
203 667 m 0xfd
 203 650 190 637 173 637 c 0
 156 637 143 650 143 667 c 0
 143 684 156 697 173 697 c 0
 190 697 203 684 203 667 c 0xfd
363 750 m 0xfc20
 363 733 350 720 333 720 c 0
 316 720 303 733 303 750 c 0
 303 767 316 780 333 780 c 0
 350 780 363 767 363 750 c 0xfc20
257 750 m 0xfc80
 257 733 244 720 227 720 c 0
 210 720 197 733 197 750 c 0
 197 767 210 780 227 780 c 0
 244 780 257 767 257 750 c 0xfc80
EndSplineSet
EndChar

StartChar: w
Encoding: 119 119 74
Width: 600
VWidth: 0
UnlinkRmOvrlpSave: 1
Flags: W
HStem: 220 60<144.106 201.894 358.106 415.894> 303 60<91.1064 148.894 198.106 255.894 304.106 361.894 411.106 468.894> 387 60<91.1064 148.894 251.106 308.894 411.106 468.894> 470 60<91.1064 148.894 411.106 468.894> 553 60<91.1064 148.894 411.106 468.894>
VStem: 90 60<304.106 361.894 388.106 445.894 471.106 528.894 554.106 611.894> 143 60<221.106 278.894> 197 60<304.106 361.894> 250 60<388.106 445.894> 303 60<304.106 361.894> 357 60<221.106 278.894> 410 60<304.106 361.894 388.106 445.894 471.106 528.894 554.106 611.894>
LayerCount: 2
Back
Fore
SplineSet
417 250 m 0xf820
 417 233 404 220 387 220 c 0
 370 220 357 233 357 250 c 0
 357 267 370 280 387 280 c 0
 404 280 417 267 417 250 c 0xf820
203 250 m 0xfa
 203 233 190 220 173 220 c 0
 156 220 143 233 143 250 c 0
 143 267 156 280 173 280 c 0
 190 280 203 267 203 250 c 0xfa
470 333 m 0xf810
 470 316 457 303 440 303 c 0
 423 303 410 316 410 333 c 0
 410 350 423 363 440 363 c 0
 457 363 470 350 470 333 c 0xf810
363 333 m 0xf840
 363 316 350 303 333 303 c 0
 316 303 303 316 303 333 c 0
 303 350 316 363 333 363 c 0
 350 363 363 350 363 333 c 0xf840
257 333 m 0xf9
 257 316 244 303 227 303 c 0
 210 303 197 316 197 333 c 0
 197 350 210 363 227 363 c 0
 244 363 257 350 257 333 c 0xf9
150 333 m 0xfc
 150 316 137 303 120 303 c 0
 103 303 90 316 90 333 c 0
 90 350 103 363 120 363 c 0
 137 363 150 350 150 333 c 0xfc
470 417 m 0xf810
 470 400 457 387 440 387 c 0
 423 387 410 400 410 417 c 0
 410 434 423 447 440 447 c 0
 457 447 470 434 470 417 c 0xf810
310 417 m 0xf880
 310 400 297 387 280 387 c 0
 263 387 250 400 250 417 c 0
 250 434 263 447 280 447 c 0
 297 447 310 434 310 417 c 0xf880
150 417 m 0xfc
 150 400 137 387 120 387 c 0
 103 387 90 400 90 417 c 0
 90 434 103 447 120 447 c 0
 137 447 150 434 150 417 c 0xfc
470 500 m 0xf810
 470 483 457 470 440 470 c 0
 423 470 410 483 410 500 c 0
 410 517 423 530 440 530 c 0
 457 530 470 517 470 500 c 0xf810
150 500 m 0xfc
 150 483 137 470 120 470 c 0
 103 470 90 483 90 500 c 0
 90 517 103 530 120 530 c 0
 137 530 150 517 150 500 c 0xfc
470 583 m 0xf810
 470 566 457 553 440 553 c 0
 423 553 410 566 410 583 c 0
 410 600 423 613 440 613 c 0
 457 613 470 600 470 583 c 0xf810
150 583 m 0xfc
 150 566 137 553 120 553 c 0
 103 553 90 566 90 583 c 0
 90 600 103 613 120 613 c 0
 137 613 150 600 150 583 c 0xfc
EndSplineSet
EndChar

StartChar: oslash
Encoding: 248 248 75
Width: 600
VWidth: 0
UnlinkRmOvrlpSave: 1
Flags: W
HStem: 220 60<144.106 201.894 251.106 308.894 358.106 415.894> 303 60<91.1064 148.894 198.106 255.894 411.106 468.894> 387 60<91.1064 148.894 251.106 308.894 411.106 468.894> 470 60<91.1064 148.894 304.106 361.894 411.106 468.894> 553 60<144.106 201.894 251.106 308.894 358.106 415.894>
VStem: 90 60<304.106 361.894 388.106 445.894 471.106 528.894> 143 60<221.106 278.894 554.106 611.894> 197 60<304.106 361.894> 250 60<221.106 278.894 388.106 445.894 554.106 611.894> 303 60<471.106 528.894> 357 60<221.106 278.894 554.106 611.894> 410 60<304.106 361.894 388.106 445.894 471.106 528.894>
LayerCount: 2
Back
Fore
SplineSet
417 250 m 0xf820
 417 233 404 220 387 220 c 0
 370 220 357 233 357 250 c 0
 357 267 370 280 387 280 c 0
 404 280 417 267 417 250 c 0xf820
310 250 m 0xf880
 310 233 297 220 280 220 c 0
 263 220 250 233 250 250 c 0
 250 267 263 280 280 280 c 0
 297 280 310 267 310 250 c 0xf880
203 250 m 0xfa
 203 233 190 220 173 220 c 0
 156 220 143 233 143 250 c 0
 143 267 156 280 173 280 c 0
 190 280 203 267 203 250 c 0xfa
470 333 m 0xf810
 470 316 457 303 440 303 c 0
 423 303 410 316 410 333 c 0
 410 350 423 363 440 363 c 0
 457 363 470 350 470 333 c 0xf810
257 333 m 0xf9
 257 316 244 303 227 303 c 0
 210 303 197 316 197 333 c 0
 197 350 210 363 227 363 c 0
 244 363 257 350 257 333 c 0xf9
150 333 m 0xfc
 150 316 137 303 120 303 c 0
 103 303 90 316 90 333 c 0
 90 350 103 363 120 363 c 0
 137 363 150 350 150 333 c 0xfc
470 417 m 0xf810
 470 400 457 387 440 387 c 0
 423 387 410 400 410 417 c 0
 410 434 423 447 440 447 c 0
 457 447 470 434 470 417 c 0xf810
310 417 m 0xf880
 310 400 297 387 280 387 c 0
 263 387 250 400 250 417 c 0
 250 434 263 447 280 447 c 0
 297 447 310 434 310 417 c 0xf880
150 417 m 0xfc
 150 400 137 387 120 387 c 0
 103 387 90 400 90 417 c 0
 90 434 103 447 120 447 c 0
 137 447 150 434 150 417 c 0xfc
470 500 m 0xf810
 470 483 457 470 440 470 c 0
 423 470 410 483 410 500 c 0
 410 517 423 530 440 530 c 0
 457 530 470 517 470 500 c 0xf810
363 500 m 0xf840
 363 483 350 470 333 470 c 0
 316 470 303 483 303 500 c 0
 303 517 316 530 333 530 c 0
 350 530 363 517 363 500 c 0xf840
150 500 m 0xfc
 150 483 137 470 120 470 c 0
 103 470 90 483 90 500 c 0
 90 517 103 530 120 530 c 0
 137 530 150 517 150 500 c 0xfc
417 583 m 0xf820
 417 566 404 553 387 553 c 0
 370 553 357 566 357 583 c 0
 357 600 370 613 387 613 c 0
 404 613 417 600 417 583 c 0xf820
310 583 m 0xf880
 310 566 297 553 280 553 c 0
 263 553 250 566 250 583 c 0
 250 600 263 613 280 613 c 0
 297 613 310 600 310 583 c 0xf880
203 583 m 0xfa
 203 566 190 553 173 553 c 0
 156 553 143 566 143 583 c 0
 143 600 156 613 173 613 c 0
 190 613 203 600 203 583 c 0xfa
EndSplineSet
EndChar

StartChar: braceleft
Encoding: 123 123 76
Width: 600
VWidth: 0
UnlinkRmOvrlpSave: 1
Flags: W
HStem: 220 60<304.106 361.894 411.106 468.894> 303 60<251.106 308.894> 387 60<251.106 308.894> 470 60<91.1064 148.894 198.106 255.894> 553 60<251.106 308.894> 637 60<251.106 308.894> 720 60<304.106 361.894 411.106 468.894>
VStem: 90 60<471.106 528.894> 197 60<471.106 528.894> 250 60<304.106 361.894 388.106 445.894 554.106 611.894 638.106 695.894> 303 60<221.106 278.894 721.106 778.894> 410 60<221.106 278.894 721.106 778.894>
LayerCount: 2
Back
Fore
SplineSet
470 250 m 0xff10
 470 233 457 220 440 220 c 0
 423 220 410 233 410 250 c 0
 410 267 423 280 440 280 c 0
 457 280 470 267 470 250 c 0xff10
363 250 m 0xff30
 363 233 350 220 333 220 c 0
 316 220 303 233 303 250 c 0
 303 267 316 280 333 280 c 0
 350 280 363 267 363 250 c 0xff30
310 333 m 0xff50
 310 316 297 303 280 303 c 0
 263 303 250 316 250 333 c 0
 250 350 263 363 280 363 c 0
 297 363 310 350 310 333 c 0xff50
310 417 m 0
 310 400 297 387 280 387 c 0
 263 387 250 400 250 417 c 0
 250 434 263 447 280 447 c 0
 297 447 310 434 310 417 c 0
257 500 m 0xff90
 257 483 244 470 227 470 c 0
 210 470 197 483 197 500 c 0
 197 517 210 530 227 530 c 0
 244 530 257 517 257 500 c 0xff90
150 500 m 0
 150 483 137 470 120 470 c 0
 103 470 90 483 90 500 c 0
 90 517 103 530 120 530 c 0
 137 530 150 517 150 500 c 0
310 583 m 0xff50
 310 566 297 553 280 553 c 0
 263 553 250 566 250 583 c 0
 250 600 263 613 280 613 c 0
 297 613 310 600 310 583 c 0xff50
310 667 m 0
 310 650 297 637 280 637 c 0
 263 637 250 650 250 667 c 0
 250 684 263 697 280 697 c 0
 297 697 310 684 310 667 c 0
470 750 m 0
 470 733 457 720 440 720 c 0
 423 720 410 733 410 750 c 0
 410 767 423 780 440 780 c 0
 457 780 470 767 470 750 c 0
363 750 m 0xff30
 363 733 350 720 333 720 c 0
 316 720 303 733 303 750 c 0
 303 767 316 780 333 780 c 0
 350 780 363 767 363 750 c 0xff30
EndSplineSet
EndChar

StartChar: udieresis
Encoding: 252 252 77
Width: 600
VWidth: 0
UnlinkRmOvrlpSave: 1
Flags: W
HStem: 220 60<198.106 255.894 304.106 361.894 411.106 468.894> 303 60<91.1064 148.894 411.106 468.894> 387 60<91.1064 148.894 411.106 468.894> 470 60<91.1064 148.894 411.106 468.894> 553 60<91.1064 148.894 411.106 468.894> 720 60<144.106 201.894 358.106 415.894>
VStem: 90 60<304.106 361.894 388.106 445.894 471.106 528.894 554.106 611.894> 143 60<721.106 778.894> 197 60<221.106 278.894> 303 60<221.106 278.894> 357 60<721.106 778.894> 410 60<221.106 278.894 304.106 361.894 388.106 445.894 471.106 528.894 554.106 611.894>
LayerCount: 2
Back
Fore
SplineSet
470 250 m 0xfc10
 470 233 457 220 440 220 c 0
 423 220 410 233 410 250 c 0
 410 267 423 280 440 280 c 0
 457 280 470 267 470 250 c 0xfc10
363 250 m 0xfc40
 363 233 350 220 333 220 c 0
 316 220 303 233 303 250 c 0
 303 267 316 280 333 280 c 0
 350 280 363 267 363 250 c 0xfc40
257 250 m 0xfc80
 257 233 244 220 227 220 c 0
 210 220 197 233 197 250 c 0
 197 267 210 280 227 280 c 0
 244 280 257 267 257 250 c 0xfc80
470 333 m 0xfc10
 470 316 457 303 440 303 c 0
 423 303 410 316 410 333 c 0
 410 350 423 363 440 363 c 0
 457 363 470 350 470 333 c 0xfc10
150 333 m 0xfe
 150 316 137 303 120 303 c 0
 103 303 90 316 90 333 c 0
 90 350 103 363 120 363 c 0
 137 363 150 350 150 333 c 0xfe
470 417 m 0xfc10
 470 400 457 387 440 387 c 0
 423 387 410 400 410 417 c 0
 410 434 423 447 440 447 c 0
 457 447 470 434 470 417 c 0xfc10
150 417 m 0xfe
 150 400 137 387 120 387 c 0
 103 387 90 400 90 417 c 0
 90 434 103 447 120 447 c 0
 137 447 150 434 150 417 c 0xfe
470 500 m 0xfc10
 470 483 457 470 440 470 c 0
 423 470 410 483 410 500 c 0
 410 517 423 530 440 530 c 0
 457 530 470 517 470 500 c 0xfc10
150 500 m 0xfe
 150 483 137 470 120 470 c 0
 103 470 90 483 90 500 c 0
 90 517 103 530 120 530 c 0
 137 530 150 517 150 500 c 0xfe
470 583 m 0xfc10
 470 566 457 553 440 553 c 0
 423 553 410 566 410 583 c 0
 410 600 423 613 440 613 c 0
 457 613 470 600 470 583 c 0xfc10
150 583 m 0xfe
 150 566 137 553 120 553 c 0
 103 553 90 566 90 583 c 0
 90 600 103 613 120 613 c 0
 137 613 150 600 150 583 c 0xfe
417 750 m 0xfc20
 417 733 404 720 387 720 c 0
 370 720 357 733 357 750 c 0
 357 767 370 780 387 780 c 0
 404 780 417 767 417 750 c 0xfc20
203 750 m 0xfd
 203 733 190 720 173 720 c 0
 156 720 143 733 143 750 c 0
 143 767 156 780 173 780 c 0
 190 780 203 767 203 750 c 0xfd
EndSplineSet
EndChar

StartChar: glyph78
Encoding: 776 776 78
Width: 600
VWidth: 0
UnlinkRmOvrlpSave: 1
Flags: W
HStem: 720 60<91.1064 148.894 305.106 362.894>
VStem: 90 60<721.106 778.894> 304 60<721.106 778.894>
LayerCount: 2
Back
Fore
SplineSet
364 750 m 0
 364 733 351 720 334 720 c 0
 317 720 304 733 304 750 c 0
 304 767 317 780 334 780 c 0
 351 780 364 767 364 750 c 0
150 750 m 0
 150 733 137 720 120 720 c 0
 103 720 90 733 90 750 c 0
 90 767 103 780 120 780 c 0
 137 780 150 767 150 750 c 0
EndSplineSet
EndChar

StartChar: glyph79
Encoding: 9786 9786 79
Width: 600
VWidth: 0
UnlinkRmOvrlpSave: 1
Flags: W
HStem: 303 60<144.106 201.894 251.106 308.894 358.106 415.894> 387 60<91.1064 148.894 411.106 468.894> 637 60<144.106 201.894 358.106 415.894>
VStem: 90 60<388.106 445.894> 143 60<304.106 361.894 638.106 695.894> 250 60<304.106 361.894> 357 60<304.106 361.894 638.106 695.894> 410 60<388.106 445.894>
LayerCount: 2
Back
Fore
SplineSet
417 333 m 0xe6
 417 316 404 303 387 303 c 0
 370 303 357 316 357 333 c 0
 357 350 370 363 387 363 c 0
 404 363 417 350 417 333 c 0xe6
310 333 m 0
 310 316 297 303 280 303 c 0
 263 303 250 316 250 333 c 0
 250 350 263 363 280 363 c 0
 297 363 310 350 310 333 c 0
203 333 m 0xec
 203 316 190 303 173 303 c 0
 156 303 143 316 143 333 c 0
 143 350 156 363 173 363 c 0
 190 363 203 350 203 333 c 0xec
470 417 m 0xe5
 470 400 457 387 440 387 c 0
 423 387 410 400 410 417 c 0
 410 434 423 447 440 447 c 0
 457 447 470 434 470 417 c 0xe5
150 417 m 0xf4
 150 400 137 387 120 387 c 0
 103 387 90 400 90 417 c 0
 90 434 103 447 120 447 c 0
 137 447 150 434 150 417 c 0xf4
417 667 m 0xe6
 417 650 404 637 387 637 c 0
 370 637 357 650 357 667 c 0
 357 684 370 697 387 697 c 0
 404 697 417 684 417 667 c 0xe6
203 667 m 0xec
 203 650 190 637 173 637 c 0
 156 637 143 650 143 667 c 0
 143 684 156 697 173 697 c 0
 190 697 203 684 203 667 c 0xec
EndSplineSet
EndChar

StartChar: glyph80
Encoding: 8595 8595 80
Width: 600
VWidth: 0
UnlinkRmOvrlpSave: 1
Flags: W
HStem: 220 60<251.106 308.894> 303 60<144.106 201.894 251.106 308.894 358.106 415.894> 387 60<91.1064 148.894 251.106 308.894 411.106 468.894> 470 60<251.106 308.894> 553 60<251.106 308.894> 637 60<251.106 308.894> 720 60<251.106 308.894>
VStem: 90 60<388.106 445.894> 143 60<304.106 361.894> 250 60<221.106 278.894 304.106 361.894 388.106 445.894 471.106 528.894 554.106 611.894 638.106 695.894 721.106 778.894> 357 60<304.106 361.894> 410 60<388.106 445.894>
LayerCount: 2
Back
Fore
SplineSet
310 250 m 0xfe40
 310 233 297 220 280 220 c 0
 263 220 250 233 250 250 c 0
 250 267 263 280 280 280 c 0
 297 280 310 267 310 250 c 0xfe40
417 333 m 0xfe60
 417 316 404 303 387 303 c 0
 370 303 357 316 357 333 c 0
 357 350 370 363 387 363 c 0
 404 363 417 350 417 333 c 0xfe60
310 333 m 0
 310 316 297 303 280 303 c 0
 263 303 250 316 250 333 c 0
 250 350 263 363 280 363 c 0
 297 363 310 350 310 333 c 0
203 333 m 0xfec0
 203 316 190 303 173 303 c 0
 156 303 143 316 143 333 c 0
 143 350 156 363 173 363 c 0
 190 363 203 350 203 333 c 0xfec0
470 417 m 0xfe50
 470 400 457 387 440 387 c 0
 423 387 410 400 410 417 c 0
 410 434 423 447 440 447 c 0
 457 447 470 434 470 417 c 0xfe50
310 417 m 0
 310 400 297 387 280 387 c 0
 263 387 250 400 250 417 c 0
 250 434 263 447 280 447 c 0
 297 447 310 434 310 417 c 0
150 417 m 0xff40
 150 400 137 387 120 387 c 0
 103 387 90 400 90 417 c 0
 90 434 103 447 120 447 c 0
 137 447 150 434 150 417 c 0xff40
310 500 m 0
 310 483 297 470 280 470 c 0
 263 470 250 483 250 500 c 0
 250 517 263 530 280 530 c 0
 297 530 310 517 310 500 c 0
310 583 m 0
 310 566 297 553 280 553 c 0
 263 553 250 566 250 583 c 0
 250 600 263 613 280 613 c 0
 297 613 310 600 310 583 c 0
310 667 m 0
 310 650 297 637 280 637 c 0
 263 637 250 650 250 667 c 0
 250 684 263 697 280 697 c 0
 297 697 310 684 310 667 c 0
310 750 m 0
 310 733 297 720 280 720 c 0
 263 720 250 733 250 750 c 0
 250 767 263 780 280 780 c 0
 297 780 310 767 310 750 c 0
EndSplineSet
EndChar

StartChar: quotedbl
Encoding: 34 34 81
Width: 600
VWidth: 0
UnlinkRmOvrlpSave: 1
Flags: W
HStem: 553 60<91.1064 148.894 197.106 254.894> 637 60<91.1064 148.894 197.106 254.894> 720 60<91.1064 148.894 197.106 254.894>
VStem: 90 60<554.106 611.894 638.106 695.894 721.106 778.894> 196 60<554.106 611.894 638.106 695.894 721.106 778.894>
LayerCount: 2
Back
Fore
SplineSet
256 583 m 0
 256 566 243 553 226 553 c 0
 209 553 196 566 196 583 c 0
 196 600 209 613 226 613 c 0
 243 613 256 600 256 583 c 0
150 583 m 0
 150 566 137 553 120 553 c 0
 103 553 90 566 90 583 c 0
 90 600 103 613 120 613 c 0
 137 613 150 600 150 583 c 0
256 667 m 0
 256 650 243 637 226 637 c 0
 209 637 196 650 196 667 c 0
 196 684 209 697 226 697 c 0
 243 697 256 684 256 667 c 0
150 667 m 0
 150 650 137 637 120 637 c 0
 103 637 90 650 90 667 c 0
 90 684 103 697 120 697 c 0
 137 697 150 684 150 667 c 0
256 750 m 0
 256 733 243 720 226 720 c 0
 209 720 196 733 196 750 c 0
 196 767 209 780 226 780 c 0
 243 780 256 767 256 750 c 0
150 750 m 0
 150 733 137 720 120 720 c 0
 103 720 90 733 90 750 c 0
 90 767 103 780 120 780 c 0
 137 780 150 767 150 750 c 0
EndSplineSet
EndChar

StartChar: ampersand
Encoding: 38 38 82
Width: 600
VWidth: 0
UnlinkRmOvrlpSave: 1
Flags: W
HStem: 220 60<144.106 201.894 251.106 308.894 358.106 415.894> 303 60<91.1064 148.894 304.106 361.894> 387 60<144.106 201.894 251.106 308.894 358.106 415.894> 470 60<198.106 255.894> 553 60<144.106 201.894 251.106 308.894> 637 60<91.1064 148.894 304.106 361.894> 720 60<144.106 201.894 251.106 308.894>
VStem: 90 60<304.106 361.894 638.106 695.894> 143 60<221.106 278.894 388.106 445.894 554.106 611.894 721.106 778.894> 197 60<471.106 528.894> 250 60<221.106 278.894 388.106 445.894 554.106 611.894 721.106 778.894> 303 60<304.106 361.894 638.106 695.894> 357 60<221.106 278.894 388.106 445.894>
LayerCount: 2
Back
Fore
SplineSet
417 250 m 0xfe08
 417 233 404 220 387 220 c 0
 370 220 357 233 357 250 c 0
 357 267 370 280 387 280 c 0
 404 280 417 267 417 250 c 0xfe08
310 250 m 0xfe20
 310 233 297 220 280 220 c 0
 263 220 250 233 250 250 c 0
 250 267 263 280 280 280 c 0
 297 280 310 267 310 250 c 0xfe20
203 250 m 0xfe80
 203 233 190 220 173 220 c 0
 156 220 143 233 143 250 c 0
 143 267 156 280 173 280 c 0
 190 280 203 267 203 250 c 0xfe80
363 333 m 0xfe10
 363 316 350 303 333 303 c 0
 316 303 303 316 303 333 c 0
 303 350 316 363 333 363 c 0
 350 363 363 350 363 333 c 0xfe10
150 333 m 0xff
 150 316 137 303 120 303 c 0
 103 303 90 316 90 333 c 0
 90 350 103 363 120 363 c 0
 137 363 150 350 150 333 c 0xff
417 417 m 0xfe08
 417 400 404 387 387 387 c 0
 370 387 357 400 357 417 c 0
 357 434 370 447 387 447 c 0
 404 447 417 434 417 417 c 0xfe08
310 417 m 0xfe20
 310 400 297 387 280 387 c 0
 263 387 250 400 250 417 c 0
 250 434 263 447 280 447 c 0
 297 447 310 434 310 417 c 0xfe20
203 417 m 0xfe80
 203 400 190 387 173 387 c 0
 156 387 143 400 143 417 c 0
 143 434 156 447 173 447 c 0
 190 447 203 434 203 417 c 0xfe80
257 500 m 0xfe40
 257 483 244 470 227 470 c 0
 210 470 197 483 197 500 c 0
 197 517 210 530 227 530 c 0
 244 530 257 517 257 500 c 0xfe40
310 583 m 0xfe20
 310 566 297 553 280 553 c 0
 263 553 250 566 250 583 c 0
 250 600 263 613 280 613 c 0
 297 613 310 600 310 583 c 0xfe20
203 583 m 0xfe80
 203 566 190 553 173 553 c 0
 156 553 143 566 143 583 c 0
 143 600 156 613 173 613 c 0
 190 613 203 600 203 583 c 0xfe80
363 667 m 0xfe10
 363 650 350 637 333 637 c 0
 316 637 303 650 303 667 c 0
 303 684 316 697 333 697 c 0
 350 697 363 684 363 667 c 0xfe10
150 667 m 0xff
 150 650 137 637 120 637 c 0
 103 637 90 650 90 667 c 0
 90 684 103 697 120 697 c 0
 137 697 150 684 150 667 c 0xff
310 750 m 0xfe20
 310 733 297 720 280 720 c 0
 263 720 250 733 250 750 c 0
 250 767 263 780 280 780 c 0
 297 780 310 767 310 750 c 0xfe20
203 750 m 0xfe80
 203 733 190 720 173 720 c 0
 156 720 143 733 143 750 c 0
 143 767 156 780 173 780 c 0
 190 780 203 767 203 750 c 0xfe80
EndSplineSet
EndChar

StartChar: asterisk
Encoding: 42 42 83
Width: 600
VWidth: 0
UnlinkRmOvrlpSave: 1
Flags: W
HStem: 220 60<251.106 308.894> 303 60<91.1064 148.894 251.106 308.894 411.106 468.894> 387 60<144.106 201.894 251.106 308.894 358.106 415.894> 470 60<198.106 255.894 304.106 361.894> 553 60<144.106 201.894 251.106 308.894 358.106 415.894> 637 60<91.1064 148.894 251.106 308.894 411.106 468.894> 720 60<251.106 308.894>
VStem: 90 60<304.106 361.894 638.106 695.894> 143 60<388.106 445.894 554.106 611.894> 197 60<471.106 528.894> 250 60<221.106 278.894 304.106 361.894 388.106 445.894 554.106 611.894 638.106 695.894 721.106 778.894> 303 60<471.106 528.894> 357 60<388.106 445.894 554.106 611.894> 410 60<304.106 361.894 638.106 695.894>
LayerCount: 2
Back
Fore
SplineSet
310 250 m 0xfe20
 310 233 297 220 280 220 c 0
 263 220 250 233 250 250 c 0
 250 267 263 280 280 280 c 0
 297 280 310 267 310 250 c 0xfe20
470 333 m 0xfe04
 470 316 457 303 440 303 c 0
 423 303 410 316 410 333 c 0
 410 350 423 363 440 363 c 0
 457 363 470 350 470 333 c 0xfe04
310 333 m 0xfe20
 310 316 297 303 280 303 c 0
 263 303 250 316 250 333 c 0
 250 350 263 363 280 363 c 0
 297 363 310 350 310 333 c 0xfe20
150 333 m 0xff
 150 316 137 303 120 303 c 0
 103 303 90 316 90 333 c 0
 90 350 103 363 120 363 c 0
 137 363 150 350 150 333 c 0xff
417 417 m 0xfe08
 417 400 404 387 387 387 c 0
 370 387 357 400 357 417 c 0
 357 434 370 447 387 447 c 0
 404 447 417 434 417 417 c 0xfe08
310 417 m 0xfe20
 310 400 297 387 280 387 c 0
 263 387 250 400 250 417 c 0
 250 434 263 447 280 447 c 0
 297 447 310 434 310 417 c 0xfe20
203 417 m 0xfe80
 203 400 190 387 173 387 c 0
 156 387 143 400 143 417 c 0
 143 434 156 447 173 447 c 0
 190 447 203 434 203 417 c 0xfe80
363 500 m 0xfe10
 363 483 350 470 333 470 c 0
 316 470 303 483 303 500 c 0
 303 517 316 530 333 530 c 0
 350 530 363 517 363 500 c 0xfe10
257 500 m 0xfe40
 257 483 244 470 227 470 c 0
 210 470 197 483 197 500 c 0
 197 517 210 530 227 530 c 0
 244 530 257 517 257 500 c 0xfe40
417 583 m 0xfe08
 417 566 404 553 387 553 c 0
 370 553 357 566 357 583 c 0
 357 600 370 613 387 613 c 0
 404 613 417 600 417 583 c 0xfe08
310 583 m 0xfe20
 310 566 297 553 280 553 c 0
 263 553 250 566 250 583 c 0
 250 600 263 613 280 613 c 0
 297 613 310 600 310 583 c 0xfe20
203 583 m 0xfe80
 203 566 190 553 173 553 c 0
 156 553 143 566 143 583 c 0
 143 600 156 613 173 613 c 0
 190 613 203 600 203 583 c 0xfe80
470 667 m 0xfe04
 470 650 457 637 440 637 c 0
 423 637 410 650 410 667 c 0
 410 684 423 697 440 697 c 0
 457 697 470 684 470 667 c 0xfe04
310 667 m 0xfe20
 310 650 297 637 280 637 c 0
 263 637 250 650 250 667 c 0
 250 684 263 697 280 697 c 0
 297 697 310 684 310 667 c 0xfe20
150 667 m 0xff
 150 650 137 637 120 637 c 0
 103 637 90 650 90 667 c 0
 90 684 103 697 120 697 c 0
 137 697 150 684 150 667 c 0xff
310 750 m 0xfe20
 310 733 297 720 280 720 c 0
 263 720 250 733 250 750 c 0
 250 767 263 780 280 780 c 0
 297 780 310 767 310 750 c 0xfe20
EndSplineSet
EndChar

StartChar: period
Encoding: 46 46 84
Width: 600
VWidth: 0
UnlinkRmOvrlpSave: 1
Flags: W
HStem: 220 60<144.106 201.894> 303 60<91.1064 148.894 197.106 254.894> 387 60<144.106 201.894>
VStem: 90 60<304.106 361.894> 143 60<221.106 278.894 388.106 445.894> 196 60<304.106 361.894>
LayerCount: 2
Back
Fore
SplineSet
203 250 m 0xe8
 203 233 190 220 173 220 c 0
 156 220 143 233 143 250 c 0
 143 267 156 280 173 280 c 0
 190 280 203 267 203 250 c 0xe8
256 333 m 0xe4
 256 316 243 303 226 303 c 0
 209 303 196 316 196 333 c 0
 196 350 209 363 226 363 c 0
 243 363 256 350 256 333 c 0xe4
150 333 m 0xf0
 150 316 137 303 120 303 c 0
 103 303 90 316 90 333 c 0
 90 350 103 363 120 363 c 0
 137 363 150 350 150 333 c 0xf0
203 417 m 0xe8
 203 400 190 387 173 387 c 0
 156 387 143 400 143 417 c 0
 143 434 156 447 173 447 c 0
 190 447 203 434 203 417 c 0xe8
EndSplineSet
EndChar

StartChar: plusminus
Encoding: 177 177 85
Width: 600
VWidth: 0
UnlinkRmOvrlpSave: 1
Flags: W
HStem: 303 60<91.1064 148.894 198.106 255.894 304.106 361.894 411.106 468.894> 470 60<251.106 308.894> 553 60<91.1064 148.894 198.106 255.894 304.106 361.894 411.106 468.894> 637 60<251.106 308.894> 720 60<251.106 308.894>
VStem: 90 60<304.106 361.894 554.106 611.894> 197 60<304.106 361.894 554.106 611.894> 250 60<471.106 528.894 638.106 695.894 721.106 778.894> 303 60<304.106 361.894 554.106 611.894> 410 60<304.106 361.894 554.106 611.894>
LayerCount: 2
Back
Fore
SplineSet
470 333 m 0xfc40
 470 316 457 303 440 303 c 0
 423 303 410 316 410 333 c 0
 410 350 423 363 440 363 c 0
 457 363 470 350 470 333 c 0xfc40
363 333 m 0xfcc0
 363 316 350 303 333 303 c 0
 316 303 303 316 303 333 c 0
 303 350 316 363 333 363 c 0
 350 363 363 350 363 333 c 0xfcc0
257 333 m 0xfe40
 257 316 244 303 227 303 c 0
 210 303 197 316 197 333 c 0
 197 350 210 363 227 363 c 0
 244 363 257 350 257 333 c 0xfe40
150 333 m 0
 150 316 137 303 120 303 c 0
 103 303 90 316 90 333 c 0
 90 350 103 363 120 363 c 0
 137 363 150 350 150 333 c 0
310 500 m 0xfd40
 310 483 297 470 280 470 c 0
 263 470 250 483 250 500 c 0
 250 517 263 530 280 530 c 0
 297 530 310 517 310 500 c 0xfd40
470 583 m 0
 470 566 457 553 440 553 c 0
 423 553 410 566 410 583 c 0
 410 600 423 613 440 613 c 0
 457 613 470 600 470 583 c 0
363 583 m 0xfcc0
 363 566 350 553 333 553 c 0
 316 553 303 566 303 583 c 0
 303 600 316 613 333 613 c 0
 350 613 363 600 363 583 c 0xfcc0
257 583 m 0xfe40
 257 566 244 553 227 553 c 0
 210 553 197 566 197 583 c 0
 197 600 210 613 227 613 c 0
 244 613 257 600 257 583 c 0xfe40
150 583 m 0
 150 566 137 553 120 553 c 0
 103 553 90 566 90 583 c 0
 90 600 103 613 120 613 c 0
 137 613 150 600 150 583 c 0
310 667 m 0xfd40
 310 650 297 637 280 637 c 0
 263 637 250 650 250 667 c 0
 250 684 263 697 280 697 c 0
 297 697 310 684 310 667 c 0xfd40
310 750 m 0
 310 733 297 720 280 720 c 0
 263 720 250 733 250 750 c 0
 250 767 263 780 280 780 c 0
 297 780 310 767 310 750 c 0
EndSplineSet
EndChar

StartChar: two
Encoding: 50 50 86
Width: 600
VWidth: 0
UnlinkRmOvrlpSave: 1
Flags: W
HStem: 220 60<91.1064 148.894 198.106 255.894 304.106 361.894 411.106 468.894> 303 60<144.106 201.894> 387 60<251.106 308.894> 470 60<358.106 415.894> 553 60<411.106 468.894> 637 60<91.1064 148.894 411.106 468.894> 720 60<144.106 201.894 251.106 308.894 358.106 415.894>
VStem: 90 60<221.106 278.894 638.106 695.894> 143 60<304.106 361.894 721.106 778.894> 197 60<221.106 278.894> 250 60<388.106 445.894 721.106 778.894> 303 60<221.106 278.894> 357 60<471.106 528.894 721.106 778.894> 410 60<221.106 278.894 554.106 611.894 638.106 695.894>
LayerCount: 2
Back
Fore
SplineSet
470 250 m 0xfe04
 470 233 457 220 440 220 c 0
 423 220 410 233 410 250 c 0
 410 267 423 280 440 280 c 0
 457 280 470 267 470 250 c 0xfe04
363 250 m 0xfe10
 363 233 350 220 333 220 c 0
 316 220 303 233 303 250 c 0
 303 267 316 280 333 280 c 0
 350 280 363 267 363 250 c 0xfe10
257 250 m 0xfe40
 257 233 244 220 227 220 c 0
 210 220 197 233 197 250 c 0
 197 267 210 280 227 280 c 0
 244 280 257 267 257 250 c 0xfe40
150 250 m 0xff
 150 233 137 220 120 220 c 0
 103 220 90 233 90 250 c 0
 90 267 103 280 120 280 c 0
 137 280 150 267 150 250 c 0xff
203 333 m 0xfe80
 203 316 190 303 173 303 c 0
 156 303 143 316 143 333 c 0
 143 350 156 363 173 363 c 0
 190 363 203 350 203 333 c 0xfe80
310 417 m 0xfe20
 310 400 297 387 280 387 c 0
 263 387 250 400 250 417 c 0
 250 434 263 447 280 447 c 0
 297 447 310 434 310 417 c 0xfe20
417 500 m 0xfe08
 417 483 404 470 387 470 c 0
 370 470 357 483 357 500 c 0
 357 517 370 530 387 530 c 0
 404 530 417 517 417 500 c 0xfe08
470 583 m 0xfe04
 470 566 457 553 440 553 c 0
 423 553 410 566 410 583 c 0
 410 600 423 613 440 613 c 0
 457 613 470 600 470 583 c 0xfe04
470 667 m 0
 470 650 457 637 440 637 c 0
 423 637 410 650 410 667 c 0
 410 684 423 697 440 697 c 0
 457 697 470 684 470 667 c 0
150 667 m 0xff
 150 650 137 637 120 637 c 0
 103 637 90 650 90 667 c 0
 90 684 103 697 120 697 c 0
 137 697 150 684 150 667 c 0xff
417 750 m 0xfe08
 417 733 404 720 387 720 c 0
 370 720 357 733 357 750 c 0
 357 767 370 780 387 780 c 0
 404 780 417 767 417 750 c 0xfe08
310 750 m 0xfe20
 310 733 297 720 280 720 c 0
 263 720 250 733 250 750 c 0
 250 767 263 780 280 780 c 0
 297 780 310 767 310 750 c 0xfe20
203 750 m 0xfe80
 203 733 190 720 173 720 c 0
 156 720 143 733 143 750 c 0
 143 767 156 780 173 780 c 0
 190 780 203 767 203 750 c 0xfe80
EndSplineSet
EndChar

StartChar: mu
Encoding: 181 181 87
Width: 600
VWidth: 0
UnlinkRmOvrlpSave: 1
Flags: W
HStem: 220 60<91.1064 148.894> 303 60<91.1064 148.894> 387 60<91.1064 148.894 198.106 255.894 304.106 361.894 411.106 468.894> 470 60<91.1064 148.894 358.106 415.894> 553 60<91.1064 148.894 358.106 415.894>
VStem: 90 60<221.106 278.894 304.106 361.894 388.106 445.894 471.106 528.894 554.106 611.894> 197 60<388.106 445.894> 303 60<388.106 445.894> 357 60<471.106 528.894 554.106 611.894> 410 60<388.106 445.894>
LayerCount: 2
Back
Fore
SplineSet
150 250 m 0xfe
 150 233 137 220 120 220 c 0
 103 220 90 233 90 250 c 0
 90 267 103 280 120 280 c 0
 137 280 150 267 150 250 c 0xfe
150 333 m 0
 150 316 137 303 120 303 c 0
 103 303 90 316 90 333 c 0
 90 350 103 363 120 363 c 0
 137 363 150 350 150 333 c 0
470 417 m 0xfe40
 470 400 457 387 440 387 c 0
 423 387 410 400 410 417 c 0
 410 434 423 447 440 447 c 0
 457 447 470 434 470 417 c 0xfe40
363 417 m 0xff
 363 400 350 387 333 387 c 0
 316 387 303 400 303 417 c 0
 303 434 316 447 333 447 c 0
 350 447 363 434 363 417 c 0xff
257 417 m 0
 257 400 244 387 227 387 c 0
 210 387 197 400 197 417 c 0
 197 434 210 447 227 447 c 0
 244 447 257 434 257 417 c 0
150 417 m 0
 150 400 137 387 120 387 c 0
 103 387 90 400 90 417 c 0
 90 434 103 447 120 447 c 0
 137 447 150 434 150 417 c 0
417 500 m 0xfe80
 417 483 404 470 387 470 c 0
 370 470 357 483 357 500 c 0
 357 517 370 530 387 530 c 0
 404 530 417 517 417 500 c 0xfe80
150 500 m 0
 150 483 137 470 120 470 c 0
 103 470 90 483 90 500 c 0
 90 517 103 530 120 530 c 0
 137 530 150 517 150 500 c 0
417 583 m 0
 417 566 404 553 387 553 c 0
 370 553 357 566 357 583 c 0
 357 600 370 613 387 613 c 0
 404 613 417 600 417 583 c 0
150 583 m 0
 150 566 137 553 120 553 c 0
 103 553 90 566 90 583 c 0
 90 600 103 613 120 613 c 0
 137 613 150 600 150 583 c 0
EndSplineSet
EndChar

StartChar: six
Encoding: 54 54 88
Width: 600
VWidth: 0
UnlinkRmOvrlpSave: 1
Flags: W
HStem: 220 60<144.106 201.894 251.106 308.894 358.106 415.894> 303 60<91.1064 148.894 411.106 468.894> 387 60<91.1064 148.894 411.106 468.894> 470 60<144.106 201.894 251.106 308.894 358.106 415.894> 553 60<198.106 255.894> 637 60<251.106 308.894> 720 60<304.106 361.894>
VStem: 90 60<304.106 361.894 388.106 445.894> 143 60<221.106 278.894 471.106 528.894> 197 60<554.106 611.894> 250 60<221.106 278.894 471.106 528.894 638.106 695.894> 303 60<721.106 778.894> 357 60<221.106 278.894 471.106 528.894> 410 60<304.106 361.894 388.106 445.894>
LayerCount: 2
Back
Fore
SplineSet
417 250 m 0xfe08
 417 233 404 220 387 220 c 0
 370 220 357 233 357 250 c 0
 357 267 370 280 387 280 c 0
 404 280 417 267 417 250 c 0xfe08
310 250 m 0xfe20
 310 233 297 220 280 220 c 0
 263 220 250 233 250 250 c 0
 250 267 263 280 280 280 c 0
 297 280 310 267 310 250 c 0xfe20
203 250 m 0xfe80
 203 233 190 220 173 220 c 0
 156 220 143 233 143 250 c 0
 143 267 156 280 173 280 c 0
 190 280 203 267 203 250 c 0xfe80
470 333 m 0xfe04
 470 316 457 303 440 303 c 0
 423 303 410 316 410 333 c 0
 410 350 423 363 440 363 c 0
 457 363 470 350 470 333 c 0xfe04
150 333 m 0xff
 150 316 137 303 120 303 c 0
 103 303 90 316 90 333 c 0
 90 350 103 363 120 363 c 0
 137 363 150 350 150 333 c 0xff
470 417 m 0xfe04
 470 400 457 387 440 387 c 0
 423 387 410 400 410 417 c 0
 410 434 423 447 440 447 c 0
 457 447 470 434 470 417 c 0xfe04
150 417 m 0xff
 150 400 137 387 120 387 c 0
 103 387 90 400 90 417 c 0
 90 434 103 447 120 447 c 0
 137 447 150 434 150 417 c 0xff
417 500 m 0xfe08
 417 483 404 470 387 470 c 0
 370 470 357 483 357 500 c 0
 357 517 370 530 387 530 c 0
 404 530 417 517 417 500 c 0xfe08
310 500 m 0xfe20
 310 483 297 470 280 470 c 0
 263 470 250 483 250 500 c 0
 250 517 263 530 280 530 c 0
 297 530 310 517 310 500 c 0xfe20
203 500 m 0xfe80
 203 483 190 470 173 470 c 0
 156 470 143 483 143 500 c 0
 143 517 156 530 173 530 c 0
 190 530 203 517 203 500 c 0xfe80
257 583 m 0xfe40
 257 566 244 553 227 553 c 0
 210 553 197 566 197 583 c 0
 197 600 210 613 227 613 c 0
 244 613 257 600 257 583 c 0xfe40
310 667 m 0xfe20
 310 650 297 637 280 637 c 0
 263 637 250 650 250 667 c 0
 250 684 263 697 280 697 c 0
 297 697 310 684 310 667 c 0xfe20
363 750 m 0xfe10
 363 733 350 720 333 720 c 0
 316 720 303 733 303 750 c 0
 303 767 316 780 333 780 c 0
 350 780 363 767 363 750 c 0xfe10
EndSplineSet
EndChar

StartChar: colon
Encoding: 58 58 89
Width: 600
VWidth: 0
UnlinkRmOvrlpSave: 1
Flags: W
HStem: 220 60<144.106 201.894> 303 60<91.1064 148.894 197.106 254.894> 387 60<144.106 201.894> 553 60<144.106 201.894> 637 60<91.1064 148.894 197.106 254.894> 720 60<144.106 201.894>
VStem: 90 60<304.106 361.894 638.106 695.894> 143 60<221.106 278.894 388.106 445.894 554.106 611.894 721.106 778.894> 196 60<304.106 361.894 638.106 695.894>
LayerCount: 2
Back
Fore
SplineSet
203 250 m 0xfd
 203 233 190 220 173 220 c 0
 156 220 143 233 143 250 c 0
 143 267 156 280 173 280 c 0
 190 280 203 267 203 250 c 0xfd
256 333 m 0xfc80
 256 316 243 303 226 303 c 0
 209 303 196 316 196 333 c 0
 196 350 209 363 226 363 c 0
 243 363 256 350 256 333 c 0xfc80
150 333 m 0xfe
 150 316 137 303 120 303 c 0
 103 303 90 316 90 333 c 0
 90 350 103 363 120 363 c 0
 137 363 150 350 150 333 c 0xfe
203 417 m 0xfd
 203 400 190 387 173 387 c 0
 156 387 143 400 143 417 c 0
 143 434 156 447 173 447 c 0
 190 447 203 434 203 417 c 0xfd
203 583 m 0
 203 566 190 553 173 553 c 0
 156 553 143 566 143 583 c 0
 143 600 156 613 173 613 c 0
 190 613 203 600 203 583 c 0
256 667 m 0xfc80
 256 650 243 637 226 637 c 0
 209 637 196 650 196 667 c 0
 196 684 209 697 226 697 c 0
 243 697 256 684 256 667 c 0xfc80
150 667 m 0xfe
 150 650 137 637 120 637 c 0
 103 637 90 650 90 667 c 0
 90 684 103 697 120 697 c 0
 137 697 150 684 150 667 c 0xfe
203 750 m 0xfd
 203 733 190 720 173 720 c 0
 156 720 143 733 143 750 c 0
 143 767 156 780 173 780 c 0
 190 780 203 767 203 750 c 0xfd
EndSplineSet
EndChar

StartChar: greater
Encoding: 62 62 90
Width: 600
VWidth: 0
UnlinkRmOvrlpSave: 1
Flags: W
HStem: 220 60<91.1064 148.894> 303 60<198.106 255.894> 387 60<304.106 361.894> 470 60<411.106 468.894> 553 60<304.106 361.894> 637 60<198.106 255.894> 720 60<91.1064 148.894>
VStem: 90 60<221.106 278.894 721.106 778.894> 197 60<304.106 361.894 638.106 695.894> 303 60<388.106 445.894 554.106 611.894> 410 60<471.106 528.894>
LayerCount: 2
Back
Fore
SplineSet
150 250 m 0
 150 233 137 220 120 220 c 0
 103 220 90 233 90 250 c 0
 90 267 103 280 120 280 c 0
 137 280 150 267 150 250 c 0
257 333 m 0
 257 316 244 303 227 303 c 0
 210 303 197 316 197 333 c 0
 197 350 210 363 227 363 c 0
 244 363 257 350 257 333 c 0
363 417 m 0
 363 400 350 387 333 387 c 0
 316 387 303 400 303 417 c 0
 303 434 316 447 333 447 c 0
 350 447 363 434 363 417 c 0
470 500 m 0
 470 483 457 470 440 470 c 0
 423 470 410 483 410 500 c 0
 410 517 423 530 440 530 c 0
 457 530 470 517 470 500 c 0
363 583 m 0
 363 566 350 553 333 553 c 0
 316 553 303 566 303 583 c 0
 303 600 316 613 333 613 c 0
 350 613 363 600 363 583 c 0
257 667 m 0
 257 650 244 637 227 637 c 0
 210 637 197 650 197 667 c 0
 197 684 210 697 227 697 c 0
 244 697 257 684 257 667 c 0
150 750 m 0
 150 733 137 720 120 720 c 0
 103 720 90 733 90 750 c 0
 90 767 103 780 120 780 c 0
 137 780 150 767 150 750 c 0
EndSplineSet
EndChar

StartChar: Aacute
Encoding: 193 193 91
Width: 600
VWidth: 0
UnlinkRmOvrlpSave: 1
Flags: W
HStem: 220 60<91.1064 148.894 411.106 468.894> 303 60<91.1064 148.894 198.106 255.894 304.106 361.894 411.106 468.894> 387 60<144.106 201.894 358.106 415.894> 470 60<198.106 255.894 304.106 361.894> 553 60<251.106 308.894> 637 60<251.106 308.894> 720 60<304.106 361.894>
VStem: 90 60<221.106 278.894 304.106 361.894> 143 60<388.106 445.894> 197 60<304.106 361.894 471.106 528.894> 250 60<554.106 611.894 638.106 695.894> 303 60<304.106 361.894 471.106 528.894 721.106 778.894> 357 60<388.106 445.894> 410 60<221.106 278.894 304.106 361.894>
LayerCount: 2
Back
Fore
SplineSet
470 250 m 0xfe04
 470 233 457 220 440 220 c 0
 423 220 410 233 410 250 c 0
 410 267 423 280 440 280 c 0
 457 280 470 267 470 250 c 0xfe04
150 250 m 0xff
 150 233 137 220 120 220 c 0
 103 220 90 233 90 250 c 0
 90 267 103 280 120 280 c 0
 137 280 150 267 150 250 c 0xff
470 333 m 0xfe04
 470 316 457 303 440 303 c 0
 423 303 410 316 410 333 c 0
 410 350 423 363 440 363 c 0
 457 363 470 350 470 333 c 0xfe04
363 333 m 0xfe10
 363 316 350 303 333 303 c 0
 316 303 303 316 303 333 c 0
 303 350 316 363 333 363 c 0
 350 363 363 350 363 333 c 0xfe10
257 333 m 0xfe40
 257 316 244 303 227 303 c 0
 210 303 197 316 197 333 c 0
 197 350 210 363 227 363 c 0
 244 363 257 350 257 333 c 0xfe40
150 333 m 0xff
 150 316 137 303 120 303 c 0
 103 303 90 316 90 333 c 0
 90 350 103 363 120 363 c 0
 137 363 150 350 150 333 c 0xff
417 417 m 0xfe08
 417 400 404 387 387 387 c 0
 370 387 357 400 357 417 c 0
 357 434 370 447 387 447 c 0
 404 447 417 434 417 417 c 0xfe08
203 417 m 0xfe80
 203 400 190 387 173 387 c 0
 156 387 143 400 143 417 c 0
 143 434 156 447 173 447 c 0
 190 447 203 434 203 417 c 0xfe80
363 500 m 0xfe10
 363 483 350 470 333 470 c 0
 316 470 303 483 303 500 c 0
 303 517 316 530 333 530 c 0
 350 530 363 517 363 500 c 0xfe10
257 500 m 0xfe40
 257 483 244 470 227 470 c 0
 210 470 197 483 197 500 c 0
 197 517 210 530 227 530 c 0
 244 530 257 517 257 500 c 0xfe40
310 583 m 0xfe20
 310 566 297 553 280 553 c 0
 263 553 250 566 250 583 c 0
 250 600 263 613 280 613 c 0
 297 613 310 600 310 583 c 0xfe20
310 667 m 0
 310 650 297 637 280 637 c 0
 263 637 250 650 250 667 c 0
 250 684 263 697 280 697 c 0
 297 697 310 684 310 667 c 0
363 750 m 0xfe10
 363 733 350 720 333 720 c 0
 316 720 303 733 303 750 c 0
 303 767 316 780 333 780 c 0
 350 780 363 767 363 750 c 0xfe10
EndSplineSet
EndChar

StartChar: B
Encoding: 66 66 92
Width: 600
VWidth: 0
UnlinkRmOvrlpSave: 1
Flags: W
HStem: 220 60<91.1064 148.894 198.106 255.894 304.106 361.894> 303 60<144.106 201.894 411.106 468.894> 387 60<144.106 201.894 411.106 468.894> 470 60<144.106 201.894 251.106 308.894 358.106 415.894> 553 60<144.106 201.894 411.106 468.894> 637 60<144.106 201.894 411.106 468.894> 720 60<91.1064 148.894 198.106 255.894 304.106 361.894>
VStem: 90 60<221.106 278.894 721.106 778.894> 143 60<304.106 361.894 388.106 445.894 471.106 528.894 554.106 611.894 638.106 695.894> 197 60<221.106 278.894 721.106 778.894> 250 60<471.106 528.894> 303 60<221.106 278.894 721.106 778.894> 357 60<471.106 528.894> 410 60<304.106 361.894 388.106 445.894 554.106 611.894 638.106 695.894>
LayerCount: 2
Back
Fore
SplineSet
363 250 m 0xfe10
 363 233 350 220 333 220 c 0
 316 220 303 233 303 250 c 0
 303 267 316 280 333 280 c 0
 350 280 363 267 363 250 c 0xfe10
257 250 m 0xfe40
 257 233 244 220 227 220 c 0
 210 220 197 233 197 250 c 0
 197 267 210 280 227 280 c 0
 244 280 257 267 257 250 c 0xfe40
150 250 m 0xff
 150 233 137 220 120 220 c 0
 103 220 90 233 90 250 c 0
 90 267 103 280 120 280 c 0
 137 280 150 267 150 250 c 0xff
470 333 m 0xfe04
 470 316 457 303 440 303 c 0
 423 303 410 316 410 333 c 0
 410 350 423 363 440 363 c 0
 457 363 470 350 470 333 c 0xfe04
203 333 m 0xfe80
 203 316 190 303 173 303 c 0
 156 303 143 316 143 333 c 0
 143 350 156 363 173 363 c 0
 190 363 203 350 203 333 c 0xfe80
470 417 m 0xfe04
 470 400 457 387 440 387 c 0
 423 387 410 400 410 417 c 0
 410 434 423 447 440 447 c 0
 457 447 470 434 470 417 c 0xfe04
203 417 m 0xfe80
 203 400 190 387 173 387 c 0
 156 387 143 400 143 417 c 0
 143 434 156 447 173 447 c 0
 190 447 203 434 203 417 c 0xfe80
417 500 m 0xfe08
 417 483 404 470 387 470 c 0
 370 470 357 483 357 500 c 0
 357 517 370 530 387 530 c 0
 404 530 417 517 417 500 c 0xfe08
310 500 m 0xfe20
 310 483 297 470 280 470 c 0
 263 470 250 483 250 500 c 0
 250 517 263 530 280 530 c 0
 297 530 310 517 310 500 c 0xfe20
203 500 m 0xfe80
 203 483 190 470 173 470 c 0
 156 470 143 483 143 500 c 0
 143 517 156 530 173 530 c 0
 190 530 203 517 203 500 c 0xfe80
470 583 m 0xfe04
 470 566 457 553 440 553 c 0
 423 553 410 566 410 583 c 0
 410 600 423 613 440 613 c 0
 457 613 470 600 470 583 c 0xfe04
203 583 m 0xfe80
 203 566 190 553 173 553 c 0
 156 553 143 566 143 583 c 0
 143 600 156 613 173 613 c 0
 190 613 203 600 203 583 c 0xfe80
470 667 m 0xfe04
 470 650 457 637 440 637 c 0
 423 637 410 650 410 667 c 0
 410 684 423 697 440 697 c 0
 457 697 470 684 470 667 c 0xfe04
203 667 m 0xfe80
 203 650 190 637 173 637 c 0
 156 637 143 650 143 667 c 0
 143 684 156 697 173 697 c 0
 190 697 203 684 203 667 c 0xfe80
363 750 m 0xfe10
 363 733 350 720 333 720 c 0
 316 720 303 733 303 750 c 0
 303 767 316 780 333 780 c 0
 350 780 363 767 363 750 c 0xfe10
257 750 m 0xfe40
 257 733 244 720 227 720 c 0
 210 720 197 733 197 750 c 0
 197 767 210 780 227 780 c 0
 244 780 257 767 257 750 c 0xfe40
150 750 m 0xff
 150 733 137 720 120 720 c 0
 103 720 90 733 90 750 c 0
 90 767 103 780 120 780 c 0
 137 780 150 767 150 750 c 0xff
EndSplineSet
EndChar

StartChar: Aring
Encoding: 197 197 93
Width: 600
VWidth: 0
UnlinkRmOvrlpSave: 1
Flags: W
HStem: 220 60<91.1064 148.894 411.106 468.894> 303 60<91.1064 148.894 198.106 255.894 304.106 361.894 411.106 468.894> 387 60<144.106 201.894 358.106 415.894> 470 60<198.106 255.894 304.106 361.894> 553 60<251.106 308.894> 637 60<198.106 255.894 304.106 361.894> 720 60<251.106 308.894>
VStem: 90 60<221.106 278.894 304.106 361.894> 143 60<388.106 445.894> 197 60<304.106 361.894 471.106 528.894 638.106 695.894> 250 60<554.106 611.894 721.106 778.894> 303 60<304.106 361.894 471.106 528.894 638.106 695.894> 357 60<388.106 445.894> 410 60<221.106 278.894 304.106 361.894>
LayerCount: 2
Back
Fore
SplineSet
470 250 m 0xfe04
 470 233 457 220 440 220 c 0
 423 220 410 233 410 250 c 0
 410 267 423 280 440 280 c 0
 457 280 470 267 470 250 c 0xfe04
150 250 m 0xff
 150 233 137 220 120 220 c 0
 103 220 90 233 90 250 c 0
 90 267 103 280 120 280 c 0
 137 280 150 267 150 250 c 0xff
470 333 m 0xfe04
 470 316 457 303 440 303 c 0
 423 303 410 316 410 333 c 0
 410 350 423 363 440 363 c 0
 457 363 470 350 470 333 c 0xfe04
363 333 m 0xfe10
 363 316 350 303 333 303 c 0
 316 303 303 316 303 333 c 0
 303 350 316 363 333 363 c 0
 350 363 363 350 363 333 c 0xfe10
257 333 m 0xfe40
 257 316 244 303 227 303 c 0
 210 303 197 316 197 333 c 0
 197 350 210 363 227 363 c 0
 244 363 257 350 257 333 c 0xfe40
150 333 m 0xff
 150 316 137 303 120 303 c 0
 103 303 90 316 90 333 c 0
 90 350 103 363 120 363 c 0
 137 363 150 350 150 333 c 0xff
417 417 m 0xfe08
 417 400 404 387 387 387 c 0
 370 387 357 400 357 417 c 0
 357 434 370 447 387 447 c 0
 404 447 417 434 417 417 c 0xfe08
203 417 m 0xfe80
 203 400 190 387 173 387 c 0
 156 387 143 400 143 417 c 0
 143 434 156 447 173 447 c 0
 190 447 203 434 203 417 c 0xfe80
363 500 m 0xfe10
 363 483 350 470 333 470 c 0
 316 470 303 483 303 500 c 0
 303 517 316 530 333 530 c 0
 350 530 363 517 363 500 c 0xfe10
257 500 m 0xfe40
 257 483 244 470 227 470 c 0
 210 470 197 483 197 500 c 0
 197 517 210 530 227 530 c 0
 244 530 257 517 257 500 c 0xfe40
310 583 m 0xfe20
 310 566 297 553 280 553 c 0
 263 553 250 566 250 583 c 0
 250 600 263 613 280 613 c 0
 297 613 310 600 310 583 c 0xfe20
363 667 m 0xfe10
 363 650 350 637 333 637 c 0
 316 637 303 650 303 667 c 0
 303 684 316 697 333 697 c 0
 350 697 363 684 363 667 c 0xfe10
257 667 m 0xfe40
 257 650 244 637 227 637 c 0
 210 637 197 650 197 667 c 0
 197 684 210 697 227 697 c 0
 244 697 257 684 257 667 c 0xfe40
310 750 m 0xfe20
 310 733 297 720 280 720 c 0
 263 720 250 733 250 750 c 0
 250 767 263 780 280 780 c 0
 297 780 310 767 310 750 c 0xfe20
EndSplineSet
EndChar

